<svg width="141" height="135" viewBox="0 0 141 135" fill="none" xmlns="http://www.w3.org/2000/svg">
<g clip-path="url(#clip0_320_2311)">
<path d="M68.0059 18.1641C67.6152 18.2031 67.0195 18.2812 66.2188 18.3984C65.418 18.5156 64.7441 18.6328 64.1973 18.75C62.5176 19.0625 60.8574 19.5508 59.2168 20.2148C57.5762 20.8789 56.0137 21.6699 54.5293 22.5879C53.0449 23.5059 51.6582 24.5508 50.3691 25.7227C49.041 26.8945 47.8496 28.1641 46.7949 29.5312L46.0918 30.4102L46.0332 27.7148V25.0781L45.7402 24.6094C45.2715 23.9453 44.627 23.6523 43.8066 23.7305C42.9863 23.8086 42.4199 24.2188 42.1074 24.9609C42.0684 25.1172 42.0391 25.625 42.0195 26.4844C42 27.3438 41.9902 29.2969 41.9902 32.3438V39.375L42.2246 39.8438C42.3809 40.1562 42.6055 40.4004 42.8984 40.5762C43.1914 40.752 43.5137 40.8594 43.8652 40.8984C44.0996 40.8984 44.2852 40.8887 44.4219 40.8691C44.5586 40.8496 44.7441 40.7812 44.9785 40.6641C45.291 40.5078 45.5254 40.3027 45.6816 40.0488C45.8379 39.7949 46.0332 39.3359 46.2676 38.6719C46.3457 38.4375 46.4824 38.0957 46.6777 37.6465C46.873 37.1973 47.0684 36.7969 47.2637 36.4453C47.8887 35.1953 48.5527 34.0723 49.2559 33.0762C49.959 32.0801 50.7988 31.0742 51.7754 30.0586C53.8457 27.9102 56.1504 26.2012 58.6895 24.9316C61.2285 23.6621 64.041 22.8125 67.127 22.3828C67.7129 22.3047 68.709 22.2656 70.1152 22.2656C71.5215 22.2656 72.5371 22.3047 73.1621 22.3828C76.209 22.7734 79.0117 23.6133 81.5703 24.9023C84.1289 26.1914 86.4434 27.9102 88.5137 30.0586C90.7402 32.3242 92.4688 34.8828 93.6992 37.7344C94.9297 40.5859 95.6035 43.5938 95.7207 46.7578C95.7598 47.5781 95.8281 48.1543 95.9258 48.4863C96.0234 48.8184 96.209 49.1016 96.4824 49.3359C96.873 49.7266 97.3223 49.9219 97.8301 49.9219C98.3379 49.9219 98.7871 49.7266 99.1777 49.3359C99.4902 49.0625 99.6855 48.7598 99.7637 48.4277C99.8418 48.0957 99.8613 47.5 99.8223 46.6406C99.7051 44.0625 99.3047 41.6211 98.6211 39.3164C97.9375 37.0117 96.9316 34.7461 95.6035 32.5195C94.627 30.8398 93.4551 29.2773 92.0879 27.832C90.7598 26.3477 89.3047 25.0293 87.7227 23.877C86.1406 22.7246 84.4512 21.7188 82.6543 20.8594C80.8574 20.0391 78.9824 19.3945 77.0293 18.9258C75.6621 18.6133 74.1777 18.3887 72.5762 18.252C70.9746 18.1152 69.4512 18.0859 68.0059 18.1641ZM61.7949 34.9219C61.6777 34.9609 61.5703 35.0195 61.4727 35.0977C61.375 35.1758 61.2676 35.2734 61.1504 35.3906C60.877 35.6641 60.7109 35.957 60.6523 36.2695C60.5938 36.582 60.5645 37.2852 60.5645 38.3789V40.3125H59.5684C59.1777 40.3125 58.8848 40.3223 58.6895 40.3418C58.4941 40.3613 58.3379 40.4102 58.2207 40.4883C57.8691 40.6836 57.5859 40.9375 57.3711 41.25C57.1562 41.5625 57.0488 41.9141 57.0488 42.3047C57.0488 42.6953 57.1562 43.0566 57.3711 43.3887C57.5859 43.7207 57.8496 43.9648 58.1621 44.1211H58.2207C58.3379 44.1992 58.4941 44.248 58.6895 44.2676C58.8848 44.2871 59.1777 44.2969 59.5684 44.2969H60.5645V51.3281H59.627C59.041 51.3281 58.582 51.3965 58.25 51.5332C57.918 51.6699 57.6152 51.9336 57.3418 52.3242C57.2637 52.4805 57.2051 52.6172 57.166 52.7344C57.127 52.8516 57.1074 53.0664 57.1074 53.3789C57.1074 53.7695 57.1758 54.0918 57.3125 54.3457C57.4492 54.5996 57.6738 54.8438 57.9863 55.0781C58.1816 55.1953 58.3574 55.2734 58.5137 55.3125C58.6699 55.3516 59.002 55.3711 59.5098 55.3711L60.5645 55.4297V57.4805L60.623 59.5898L60.916 60C61.3457 60.625 61.9512 60.9277 62.7324 60.9082C63.5137 60.8887 64.0801 60.5469 64.4316 59.8828C64.5098 59.7266 64.5684 59.1895 64.6074 58.2715C64.6465 57.3535 64.666 55.0195 64.666 51.2695L64.7246 43.0078L71.0527 51.5039C72.8105 53.8086 74.3438 55.8301 75.6523 57.5684C76.9609 59.3066 77.6543 60.2148 77.7324 60.293C77.9277 60.5273 78.1426 60.6934 78.377 60.791C78.6113 60.8887 78.8848 60.9375 79.1973 60.9375C79.5488 60.9375 79.8711 60.8594 80.1641 60.7031C80.457 60.5469 80.7012 60.3125 80.8965 60L81.248 59.5898V57.5391L81.3066 55.4297L82.9473 55.3711C83.7285 55.3711 84.207 55.3613 84.3828 55.3418C84.5586 55.3223 84.7637 55.2344 84.998 55.0781C85.2715 54.8828 85.4863 54.6387 85.6426 54.3457C85.7988 54.0527 85.877 53.7305 85.877 53.3789C85.877 53.0273 85.7988 52.7051 85.6426 52.4121C85.4863 52.1191 85.2715 51.875 84.998 51.6797L84.5293 51.3867L81.248 51.2695V44.2969L84.6465 44.2383L85.0566 43.9453C85.5645 43.5156 85.8379 42.998 85.877 42.3926C85.916 41.7871 85.7012 41.25 85.2324 40.7812C84.998 40.5859 84.7441 40.459 84.4707 40.4004C84.1973 40.3418 83.6504 40.3125 82.8301 40.3125H81.248V38.4961C81.248 37.5195 81.2188 36.8457 81.1602 36.4746C81.1016 36.1035 80.9941 35.8008 80.8379 35.5664C80.6426 35.293 80.4082 35.0977 80.1348 34.9805C79.8613 34.8633 79.5684 34.7852 79.2559 34.7461C78.8652 34.7461 78.5234 34.8242 78.2305 34.9805C77.9375 35.1367 77.6934 35.3516 77.498 35.625L77.2051 36.0352L77.1465 44.3555V52.7344L70.584 44.0039C68.7871 41.582 67.2344 39.502 65.9258 37.7637C64.6172 36.0254 63.9238 35.1367 63.8457 35.0977C63.6895 34.9805 63.5039 34.8926 63.2891 34.834C63.0742 34.7754 62.8691 34.7461 62.6738 34.7461C62.5176 34.7461 62.3711 34.7559 62.2344 34.7754C62.0977 34.7949 61.9512 34.8438 61.7949 34.9219ZM41.5801 45.9961C41.4238 46.1133 41.2871 46.2207 41.1699 46.3184C41.0527 46.416 40.9551 46.543 40.877 46.6992H40.8184L40.5254 47.168V48.6328C40.5254 50.6641 40.7988 52.7539 41.3457 54.9023C41.8926 57.0508 42.6738 59.1211 43.6895 61.1133C44.7051 63.2227 45.9746 65.1562 47.498 66.9141C48.9824 68.6719 50.6523 70.2344 52.5078 71.6016C54.3633 72.9688 56.3457 74.1211 58.4551 75.0586C60.6035 75.957 62.8301 76.6016 65.1348 76.9922C66.8145 77.2656 68.5625 77.4023 70.3789 77.4023C72.1953 77.4023 73.9238 77.2461 75.5645 76.9336C77.2051 76.6602 78.8262 76.2109 80.4277 75.5859C82.0293 75 83.5625 74.2871 85.0273 73.4473C86.4922 72.6074 87.8691 71.6602 89.1582 70.6055C90.4863 69.5117 91.6777 68.3398 92.7324 67.0898L93.5527 66.1523V69.1992C93.5918 70.6445 93.6211 71.5332 93.6406 71.8652C93.6602 72.1973 93.7285 72.4609 93.8457 72.6562C93.9629 72.9297 94.1094 73.1445 94.2852 73.3008C94.4609 73.457 94.666 73.5742 94.9004 73.6523C95.0176 73.6914 95.1445 73.7305 95.2812 73.7695C95.418 73.8086 95.5449 73.8281 95.6621 73.8281C96.0527 73.8281 96.4141 73.7207 96.7461 73.5059C97.0781 73.291 97.3223 73.0273 97.4785 72.7148C97.5566 72.5195 97.6055 72.0703 97.625 71.3672C97.6445 70.6641 97.6543 68.6133 97.6543 65.2148C97.6543 61.3867 97.6348 59.1504 97.5957 58.5059C97.5566 57.8613 97.4004 57.4023 97.127 57.1289C96.8145 56.7773 96.3945 56.5723 95.8672 56.5137C95.3398 56.4551 94.8809 56.5625 94.4902 56.8359C94.2949 56.9531 94.1387 57.0996 94.0215 57.2754C93.9043 57.4512 93.7285 57.8125 93.4941 58.3594C92.752 59.8828 91.9707 61.2402 91.1504 62.4316C90.3301 63.623 89.3535 64.7656 88.2207 65.8594C86.7754 67.3047 85.1738 68.5645 83.416 69.6387C81.6582 70.7129 79.7637 71.5625 77.7324 72.1875L77.5566 72.2461C76.1895 72.6758 74.8906 72.9688 73.6602 73.125C72.4297 73.2812 71.0527 73.3398 69.5293 73.3008C68.1621 73.2617 67 73.1641 66.043 73.0078C65.0859 72.8516 64.002 72.5977 62.791 72.2461C60.9941 71.6992 59.2949 70.9766 57.6934 70.0781C56.0527 69.1406 54.5391 68.0566 53.1523 66.8262C51.7656 65.5957 50.5254 64.2383 49.4316 62.7539C48.3379 61.2305 47.4199 59.6094 46.6777 57.8906C46.0527 56.4062 45.5742 54.9219 45.2422 53.4375C44.9102 51.9531 44.6855 50.332 44.5684 48.5742C44.5293 47.8711 44.5 47.4316 44.4805 47.2559C44.4609 47.0801 44.373 46.8945 44.2168 46.6992C44.0215 46.4258 43.7773 46.2109 43.4844 46.0547C43.1914 45.8984 42.8691 45.8203 42.5176 45.8203C42.3613 45.8203 42.2051 45.8398 42.0488 45.8789C41.8926 45.918 41.7363 45.9766 41.5801 46.0547V45.9961Z" fill="black"/>
</g>
<path d="M42.228 112.812L47.1763 99.9277H49.0132L54.2866 112.812H52.3442L50.8413 108.91H45.4536L44.0386 112.812H42.228ZM45.9458 107.521H50.3139L48.9692 103.953C48.5591 102.869 48.2544 101.979 48.0552 101.281C47.8911 102.107 47.6596 102.928 47.3608 103.742L45.9458 107.521ZM55.4555 101.747V99.9277H57.0376V101.747H55.4555ZM55.4555 112.812V103.479H57.0376V112.812H55.4555ZM59.437 112.812V103.479H60.8608V104.894C61.2241 104.231 61.5581 103.795 61.8628 103.584C62.1733 103.373 62.5132 103.268 62.8823 103.268C63.4155 103.268 63.9575 103.438 64.5083 103.777L63.9634 105.245C63.5766 105.017 63.1899 104.902 62.8032 104.902C62.4575 104.902 62.147 105.008 61.8716 105.219C61.5962 105.424 61.3999 105.711 61.2827 106.08C61.1069 106.643 61.019 107.258 61.019 107.926V112.812H59.437ZM68.9028 111.397L69.1313 112.795C68.686 112.889 68.2876 112.936 67.936 112.936C67.3618 112.936 66.9165 112.845 66.6001 112.663C66.2837 112.481 66.061 112.244 65.9321 111.951C65.8032 111.652 65.7388 111.028 65.7388 110.079V104.709H64.5786V103.479H65.7388V101.167L67.312 100.218V103.479H68.9028V104.709H67.312V110.167C67.312 110.618 67.3384 110.908 67.3911 111.037C67.4497 111.166 67.5405 111.269 67.6636 111.345C67.7925 111.421 67.9741 111.459 68.2085 111.459C68.3843 111.459 68.6157 111.438 68.9028 111.397ZM70.4673 101.747V99.9277H72.0493V101.747H70.4673ZM70.4673 112.812V103.479H72.0493V112.812H70.4673ZM74.4663 112.812V103.479H75.8813V104.788C76.1743 104.331 76.5639 103.965 77.0503 103.689C77.5366 103.408 78.0903 103.268 78.7114 103.268C79.4028 103.268 79.9682 103.411 80.4077 103.698C80.853 103.985 81.1665 104.387 81.3481 104.902C82.0864 103.812 83.0473 103.268 84.2309 103.268C85.1567 103.268 85.8686 103.525 86.3667 104.041C86.8647 104.551 87.1138 105.339 87.1138 106.405V112.812H85.5405V106.933C85.5405 106.3 85.4878 105.846 85.3823 105.57C85.2827 105.289 85.0981 105.063 84.8286 104.894C84.5591 104.724 84.2427 104.639 83.8794 104.639C83.2231 104.639 82.6782 104.858 82.2446 105.298C81.811 105.731 81.5942 106.429 81.5942 107.39V112.812H80.0122V106.748C80.0122 106.045 79.8833 105.518 79.6255 105.166C79.3677 104.814 78.9458 104.639 78.3598 104.639C77.9145 104.639 77.5014 104.756 77.1206 104.99C76.7456 105.225 76.4731 105.567 76.3032 106.019C76.1333 106.47 76.0483 107.12 76.0483 107.97V112.812H74.4663ZM95.8501 109.807L97.4848 110.009C97.227 110.964 96.7495 111.705 96.0522 112.232C95.355 112.76 94.4643 113.023 93.3804 113.023C92.0151 113.023 90.9311 112.604 90.1284 111.767C89.3315 110.923 88.9331 109.742 88.9331 108.225C88.9331 106.654 89.3374 105.436 90.146 104.568C90.9546 103.701 92.0034 103.268 93.2925 103.268C94.5405 103.268 95.56 103.692 96.3511 104.542C97.1421 105.392 97.5376 106.587 97.5376 108.128C97.5376 108.222 97.5346 108.362 97.5288 108.55H90.5679C90.6264 109.575 90.9165 110.36 91.438 110.905C91.9595 111.45 92.6098 111.723 93.3891 111.723C93.9692 111.723 94.4643 111.57 94.8745 111.266C95.2846 110.961 95.6098 110.475 95.8501 109.807ZM90.6557 107.249H95.8677C95.7973 106.464 95.5981 105.875 95.27 105.482C94.7661 104.873 94.1128 104.568 93.31 104.568C92.5835 104.568 91.9712 104.812 91.4731 105.298C90.9809 105.784 90.7085 106.435 90.6557 107.249Z" fill="black"/>
<defs>
<clipPath id="clip0_320_2311">
<rect width="60" height="60" fill="white" transform="matrix(1 0 0 -1 40.1738 77.8125)"/>
</clipPath>
</defs>
</svg>
