<svg width="141" height="135" viewBox="0 0 141 135" fill="none" xmlns="http://www.w3.org/2000/svg">
<g clip-path="url(#clip0_320_2306)">
<path d="M79.978 17.8711C78.1812 18.0273 76.4233 18.4277 74.7046 19.0723C72.9858 19.7168 71.3647 20.6055 69.8413 21.7383C69.2944 22.1289 68.6108 22.7344 67.7905 23.5547C66.9702 24.375 66.3843 25.0586 66.0327 25.6055C65.8374 25.8789 65.6421 26.1621 65.4468 26.4551C65.2515 26.748 65.0757 27.0508 64.9194 27.3633L64.8608 27.4805C64.5874 27.9102 64.4214 28.2129 64.3628 28.3887C64.3042 28.5645 64.2749 28.7695 64.2749 29.0039C64.2749 29.3164 64.353 29.6094 64.5093 29.8828C64.6655 30.1562 64.8804 30.3711 65.1538 30.5273C65.3101 30.6055 65.4565 30.6543 65.5933 30.6738C65.73 30.6934 65.9155 30.7031 66.1499 30.7031C66.5405 30.6641 66.853 30.5566 67.0874 30.3809C67.3218 30.2051 67.5562 29.8828 67.7905 29.4141C68.3374 28.4766 69.0308 27.5391 69.8706 26.6016C70.7104 25.6641 71.5601 24.9023 72.4194 24.3164C73.3569 23.6133 74.3726 23.0371 75.4663 22.5879C76.5601 22.1387 77.6538 21.8164 78.7476 21.6211C79.5288 21.5039 80.4175 21.4453 81.4136 21.4453C82.4097 21.4453 83.2983 21.5039 84.0796 21.6211C86.3452 22.0117 88.4155 22.8613 90.2905 24.1699C92.1655 25.4785 93.689 27.1289 94.8608 29.1211C95.1733 29.6289 95.3979 29.9805 95.5347 30.1758C95.6714 30.3711 95.8569 30.5078 96.0913 30.5859C96.2866 30.6641 96.5503 30.7031 96.8823 30.7031C97.2144 30.7031 97.4585 30.6641 97.6147 30.5859C97.771 30.4688 97.937 30.3223 98.1128 30.1465C98.2886 29.9707 98.4155 29.8047 98.4937 29.6484C98.5718 29.4141 98.6011 29.1504 98.5815 28.8574C98.562 28.5645 98.4937 28.3203 98.3765 28.125C97.2046 25.7812 95.5347 23.75 93.3667 22.0312C91.1987 20.3125 88.8257 19.1211 86.2476 18.457C85.3101 18.1836 84.2749 17.998 83.1421 17.9004C82.0093 17.8027 80.9546 17.793 79.978 17.8711ZM80.271 27.3047C78.3569 27.6172 76.6968 28.3398 75.2905 29.4727C73.8843 30.6055 72.8882 32.0508 72.3022 33.8086C72.2241 34.082 72.1753 34.2773 72.1558 34.3945C72.1362 34.5117 72.1655 34.6875 72.2437 34.9219C72.3608 35.3906 72.6147 35.752 73.0054 36.0059C73.396 36.2598 73.8452 36.3281 74.353 36.2109C74.5874 36.1719 74.8022 36.084 74.9976 35.9473C75.1929 35.8105 75.3296 35.6445 75.4077 35.4492C75.4468 35.4102 75.5249 35.2734 75.6421 35.0391C75.7593 34.8047 75.8765 34.5508 75.9937 34.2773C76.6577 32.8711 77.7026 31.8848 79.1284 31.3184C80.5542 30.752 82.0093 30.7227 83.4937 31.2305C84.314 31.5039 85.0366 31.9531 85.6616 32.5781C86.2866 33.2031 86.7749 33.9258 87.1265 34.7461C87.2827 35.1367 87.4292 35.4297 87.5659 35.625C87.7026 35.8203 87.8687 35.957 88.064 36.0352C88.4937 36.2695 88.9233 36.3379 89.353 36.2402C89.7827 36.1426 90.1147 35.918 90.3491 35.5664C90.6226 35.1758 90.7397 34.7656 90.7007 34.3359C90.6616 33.9062 90.4272 33.3008 89.9976 32.5195C89.3726 31.2695 88.5229 30.2148 87.4487 29.3555C86.3745 28.4961 85.1733 27.8906 83.8452 27.5391H83.728C83.3765 27.4609 82.8003 27.3926 81.9995 27.334C81.1987 27.2754 80.6226 27.2656 80.271 27.3047ZM80.7397 39.9609C80.5054 40.0781 80.3003 40.2344 80.1245 40.4297C79.9487 40.625 79.8218 40.8398 79.7437 41.0742C79.7437 41.1914 79.7339 41.7773 79.7144 42.832C79.6948 43.8867 79.6851 45.332 79.6851 47.168V52.8516L44.0601 52.9102L43.6499 53.1445C43.3765 53.3008 43.1714 53.4668 43.0347 53.6426C42.8979 53.8184 42.7515 54.043 42.5952 54.3164L42.3608 54.7266V75.7617L42.5952 76.1133C42.7124 76.3477 42.9077 76.5918 43.1812 76.8457C43.4546 77.0996 43.7085 77.2852 43.9429 77.4023C44.0991 77.4805 45.4565 77.5293 48.0151 77.5488C50.5737 77.5684 57.5171 77.5781 68.8452 77.5781H93.4546L93.9233 77.3438C94.0405 77.2656 94.187 77.1582 94.3628 77.0215C94.5386 76.8848 94.6851 76.7578 94.8022 76.6406C95.1147 76.25 95.3003 75.6445 95.3589 74.8242C95.4175 74.0039 95.4272 70.7227 95.3882 64.9805V54.7266L95.0952 54.1992C94.978 54.0039 94.8511 53.8379 94.7144 53.7012C94.5776 53.5645 94.4116 53.4375 94.2163 53.3203L93.689 52.9102L83.3179 52.8516L83.2593 46.9922C83.2593 44.3359 83.2495 42.666 83.23 41.9824C83.2104 41.2988 83.1616 40.8984 83.0835 40.7812C82.8491 40.3516 82.5073 40.0586 82.0581 39.9023C81.6089 39.7461 81.1694 39.7656 80.7397 39.9609ZM92.7515 65.2148V74.9414H44.9976V55.5469H92.7515V65.2148ZM54.5483 62.1094C54.1187 62.2266 53.7085 62.4414 53.3179 62.7539C52.9272 63.0664 52.6343 63.4375 52.439 63.8672C52.3608 64.0234 52.3022 64.1895 52.2632 64.3652C52.2241 64.541 52.1851 64.7852 52.146 65.0977C52.146 65.5273 52.1558 65.8105 52.1753 65.9473C52.1948 66.084 52.2827 66.2891 52.439 66.5625C52.5952 66.9141 52.8003 67.2168 53.0542 67.4707C53.3081 67.7246 53.6108 67.9297 53.9624 68.0859C54.1577 68.1641 54.3335 68.2227 54.4897 68.2617C54.646 68.3008 54.8999 68.3203 55.2515 68.3203C55.6421 68.3203 55.9155 68.3008 56.0718 68.2617C56.228 68.2227 56.4429 68.125 56.7163 67.9688C57.3022 67.6562 57.7319 67.2461 58.0054 66.7383C58.2788 66.2305 58.396 65.6445 58.3569 64.9805C58.3179 64.5508 58.2202 64.1699 58.064 63.8379C57.9077 63.5059 57.6538 63.1836 57.3022 62.8711C56.9507 62.5586 56.5308 62.334 56.0425 62.1973C55.5542 62.0605 55.0562 62.0312 54.5483 62.1094ZM64.0405 62.1094C63.6108 62.2266 63.1909 62.4414 62.7808 62.7539C62.3706 63.0664 62.0679 63.4375 61.8726 63.8672C61.7944 64.0234 61.7358 64.1895 61.6968 64.3652C61.6577 64.541 61.6382 64.8242 61.6382 65.2148C61.6382 65.6836 61.6577 65.9863 61.6968 66.123C61.7358 66.2598 61.814 66.4453 61.9312 66.6797C62.0874 66.9922 62.2925 67.2656 62.5464 67.5C62.8003 67.7344 63.0835 67.9297 63.396 68.0859C63.5913 68.1641 63.7769 68.2227 63.9526 68.2617C64.1284 68.3008 64.3921 68.3203 64.7437 68.3203C65.1343 68.3203 65.3979 68.3008 65.5347 68.2617C65.6714 68.2227 65.896 68.125 66.2085 67.9688C66.5601 67.7734 66.8628 67.5195 67.1167 67.207C67.3706 66.8945 67.5562 66.5625 67.6733 66.2109C67.7905 65.8594 67.8296 65.4492 67.7905 64.9805C67.7515 64.5117 67.6538 64.1211 67.4976 63.8086C67.1851 63.1836 66.6968 62.7148 66.0327 62.4023C65.3687 62.0898 64.7046 61.9922 64.0405 62.1094Z" fill="black"/>
</g>
<path d="M40.24 112.812V99.9277H44.6785C45.6805 99.9277 46.4451 99.9893 46.9725 100.112C47.7107 100.282 48.3406 100.59 48.8621 101.035C49.5418 101.609 50.0486 102.345 50.3826 103.241C50.7225 104.132 50.8924 105.151 50.8924 106.3C50.8924 107.278 50.7781 108.146 50.5496 108.901C50.3211 109.657 50.0281 110.284 49.6707 110.782C49.3133 111.274 48.9207 111.664 48.493 111.951C48.0711 112.232 47.5584 112.446 46.9549 112.593C46.3572 112.739 45.6687 112.812 44.8894 112.812H40.24ZM41.9451 111.292H44.6961C45.5457 111.292 46.2107 111.213 46.6912 111.055C47.1775 110.896 47.5642 110.674 47.8514 110.387C48.2557 109.982 48.5691 109.44 48.7918 108.761C49.0203 108.075 49.1346 107.246 49.1346 106.273C49.1346 104.926 48.9119 103.892 48.4666 103.171C48.0271 102.444 47.491 101.958 46.8582 101.712C46.4012 101.536 45.6658 101.448 44.6521 101.448H41.9451V111.292ZM59.4353 109.807L61.0701 110.009C60.8123 110.964 60.3348 111.705 59.6375 112.232C58.9402 112.76 58.0496 113.023 56.9656 113.023C55.6004 113.023 54.5164 112.604 53.7137 111.767C52.9168 110.923 52.5183 109.742 52.5183 108.225C52.5183 106.654 52.9226 105.436 53.7312 104.568C54.5398 103.701 55.5887 103.268 56.8777 103.268C58.1258 103.268 59.1453 103.692 59.9363 104.542C60.7273 105.392 61.1228 106.587 61.1228 108.128C61.1228 108.222 61.1199 108.362 61.1141 108.55H54.1531C54.2117 109.575 54.5017 110.36 55.0232 110.905C55.5447 111.45 56.1951 111.723 56.9744 111.723C57.5545 111.723 58.0496 111.57 58.4598 111.266C58.8699 110.961 59.1951 110.475 59.4353 109.807ZM54.241 107.249H59.4529C59.3826 106.464 59.1834 105.875 58.8553 105.482C58.3514 104.873 57.698 104.568 56.8953 104.568C56.1687 104.568 55.5564 104.812 55.0584 105.298C54.5662 105.784 54.2937 106.435 54.241 107.249ZM65.658 112.812L62.1072 103.479H63.7771L65.781 109.068C65.9978 109.672 66.1971 110.299 66.3787 110.949C66.5193 110.457 66.7156 109.865 66.9676 109.174L69.0418 103.479H70.6678L67.1346 112.812H65.658ZM72.074 101.747V99.9277H73.656V101.747H72.074ZM72.074 112.812V103.479H73.656V112.812H72.074ZM82.1639 109.394L83.7195 109.596C83.5496 110.668 83.1131 111.509 82.41 112.118C81.7127 112.722 80.8543 113.023 79.8348 113.023C78.5574 113.023 77.5291 112.607 76.7498 111.775C75.9764 110.938 75.5896 109.739 75.5896 108.181C75.5896 107.173 75.7566 106.291 76.0906 105.535C76.4246 104.779 76.9314 104.214 77.6111 103.839C78.2967 103.458 79.0408 103.268 79.8435 103.268C80.8572 103.268 81.6863 103.525 82.3308 104.041C82.9754 104.551 83.3885 105.277 83.5701 106.221L82.032 106.458C81.8855 105.831 81.6248 105.359 81.2498 105.043C80.8807 104.727 80.4324 104.568 79.9051 104.568C79.1082 104.568 78.4607 104.855 77.9627 105.43C77.4646 105.998 77.2156 106.9 77.2156 108.137C77.2156 109.391 77.4558 110.302 77.9363 110.87C78.4168 111.438 79.0437 111.723 79.8172 111.723C80.4383 111.723 80.9568 111.532 81.3728 111.151C81.7889 110.771 82.0525 110.185 82.1639 109.394ZM91.4627 109.807L93.0975 110.009C92.8396 110.964 92.3621 111.705 91.6648 112.232C90.9676 112.76 90.0769 113.023 88.993 113.023C87.6277 113.023 86.5437 112.604 85.741 111.767C84.9441 110.923 84.5457 109.742 84.5457 108.225C84.5457 106.654 84.95 105.436 85.7586 104.568C86.5672 103.701 87.616 103.268 88.9051 103.268C90.1531 103.268 91.1726 103.692 91.9637 104.542C92.7547 105.392 93.1502 106.587 93.1502 108.128C93.1502 108.222 93.1473 108.362 93.1414 108.55H86.1805C86.2391 109.575 86.5291 110.36 87.0506 110.905C87.5721 111.45 88.2225 111.723 89.0017 111.723C89.5818 111.723 90.0769 111.57 90.4871 111.266C90.8973 110.961 91.2225 110.475 91.4627 109.807ZM86.2683 107.249H91.4803C91.41 106.464 91.2107 105.875 90.8826 105.482C90.3787 104.873 89.7254 104.568 88.9226 104.568C88.1961 104.568 87.5838 104.812 87.0857 105.298C86.5935 105.784 86.3211 106.435 86.2683 107.249ZM94.4598 110.026L96.0242 109.78C96.1121 110.407 96.3553 110.888 96.7537 111.222C97.158 111.556 97.7205 111.723 98.4412 111.723C99.1678 111.723 99.7068 111.576 100.058 111.283C100.41 110.984 100.586 110.636 100.586 110.237C100.586 109.88 100.43 109.599 100.12 109.394C99.9031 109.253 99.3641 109.074 98.5027 108.857C97.3426 108.564 96.5369 108.312 96.0857 108.102C95.6404 107.885 95.3006 107.589 95.0662 107.214C94.8377 106.833 94.7234 106.414 94.7234 105.957C94.7234 105.541 94.8172 105.157 95.0047 104.806C95.198 104.448 95.4588 104.152 95.7869 103.918C96.033 103.736 96.367 103.584 96.7889 103.461C97.2166 103.332 97.6736 103.268 98.16 103.268C98.8924 103.268 99.534 103.373 100.085 103.584C100.641 103.795 101.052 104.082 101.315 104.445C101.579 104.803 101.761 105.283 101.86 105.887L100.313 106.098C100.243 105.617 100.038 105.242 99.698 104.973C99.3641 104.703 98.8894 104.568 98.2742 104.568C97.5476 104.568 97.0291 104.688 96.7185 104.929C96.408 105.169 96.2527 105.45 96.2527 105.772C96.2527 105.978 96.3172 106.162 96.4461 106.326C96.575 106.496 96.7771 106.637 97.0525 106.748C97.2107 106.807 97.6766 106.941 98.45 107.152C99.5691 107.451 100.348 107.697 100.788 107.891C101.233 108.078 101.582 108.354 101.834 108.717C102.086 109.08 102.212 109.531 102.212 110.07C102.212 110.598 102.056 111.096 101.746 111.564C101.441 112.027 100.999 112.388 100.419 112.646C99.8387 112.897 99.1824 113.023 98.45 113.023C97.2371 113.023 96.3113 112.771 95.6726 112.268C95.0398 111.764 94.6355 111.017 94.4598 110.026Z" fill="black"/>
<defs>
<clipPath id="clip0_320_2306">
<rect width="57.31" height="60" fill="white" transform="matrix(1 0 0 -1 42.1238 77.8125)"/>
</clipPath>
</defs>
</svg>
