<svg width="61" height="61" viewBox="0 0 61 61" fill="none" xmlns="http://www.w3.org/2000/svg">
<g clip-path="url(#clip0_320_2313)">
<path d="M28.0059 1.16406C27.6152 1.20312 27.0195 1.28125 26.2188 1.39844C25.418 1.51562 24.7441 1.63281 24.1973 1.75C22.5176 2.0625 20.8574 2.55078 19.2168 3.21484C17.5762 3.87891 16.0137 4.66992 14.5293 5.58789C13.0449 6.50586 11.6582 7.55078 10.3691 8.72266C9.04102 9.89453 7.84961 11.1641 6.79492 12.5312L6.0918 13.4102L6.0332 10.7148V8.07812L5.74023 7.60938C5.27148 6.94531 4.62695 6.65234 3.80664 6.73047C2.98633 6.80859 2.41992 7.21875 2.10742 7.96094C2.06836 8.11719 2.03906 8.625 2.01953 9.48438C2 10.3438 1.99023 12.2969 1.99023 15.3438V22.375L2.22461 22.8438C2.38086 23.1562 2.60547 23.4004 2.89844 23.5762C3.19141 23.752 3.51367 23.8594 3.86523 23.8984C4.09961 23.8984 4.28516 23.8887 4.42188 23.8691C4.55859 23.8496 4.74414 23.7812 4.97852 23.6641C5.29102 23.5078 5.52539 23.3027 5.68164 23.0488C5.83789 22.7949 6.0332 22.3359 6.26758 21.6719C6.3457 21.4375 6.48242 21.0957 6.67773 20.6465C6.87305 20.1973 7.06836 19.7969 7.26367 19.4453C7.88867 18.1953 8.55273 17.0723 9.25586 16.0762C9.95898 15.0801 10.7988 14.0742 11.7754 13.0586C13.8457 10.9102 16.1504 9.20117 18.6895 7.93164C21.2285 6.66211 24.041 5.8125 27.127 5.38281C27.7129 5.30469 28.709 5.26562 30.1152 5.26562C31.5215 5.26562 32.5371 5.30469 33.1621 5.38281C36.209 5.77344 39.0117 6.61328 41.5703 7.90234C44.1289 9.19141 46.4434 10.9102 48.5137 13.0586C50.7402 15.3242 52.4688 17.8828 53.6992 20.7344C54.9297 23.5859 55.6035 26.5938 55.7207 29.7578C55.7598 30.5781 55.8281 31.1543 55.9258 31.4863C56.0234 31.8184 56.209 32.1016 56.4824 32.3359C56.873 32.7266 57.3223 32.9219 57.8301 32.9219C58.3379 32.9219 58.7871 32.7266 59.1777 32.3359C59.4902 32.0625 59.6855 31.7598 59.7637 31.4277C59.8418 31.0957 59.8613 30.5 59.8223 29.6406C59.7051 27.0625 59.3047 24.6211 58.6211 22.3164C57.9375 20.0117 56.9316 17.7461 55.6035 15.5195C54.627 13.8398 53.4551 12.2773 52.0879 10.832C50.7598 9.34766 49.3047 8.0293 47.7227 6.87695C46.1406 5.72461 44.4512 4.71875 42.6543 3.85938C40.8574 3.03906 38.9824 2.39453 37.0293 1.92578C35.6621 1.61328 34.1777 1.38867 32.5762 1.25195C30.9746 1.11523 29.4512 1.08594 28.0059 1.16406ZM21.7949 17.9219C21.6777 17.9609 21.5703 18.0195 21.4727 18.0977C21.375 18.1758 21.2676 18.2734 21.1504 18.3906C20.877 18.6641 20.7109 18.957 20.6523 19.2695C20.5938 19.582 20.5645 20.2852 20.5645 21.3789V23.3125H19.5684C19.1777 23.3125 18.8848 23.3223 18.6895 23.3418C18.4941 23.3613 18.3379 23.4102 18.2207 23.4883C17.8691 23.6836 17.5859 23.9375 17.3711 24.25C17.1562 24.5625 17.0488 24.9141 17.0488 25.3047C17.0488 25.6953 17.1562 26.0566 17.3711 26.3887C17.5859 26.7207 17.8496 26.9648 18.1621 27.1211H18.2207C18.3379 27.1992 18.4941 27.248 18.6895 27.2676C18.8848 27.2871 19.1777 27.2969 19.5684 27.2969H20.5645V34.3281H19.627C19.041 34.3281 18.582 34.3965 18.25 34.5332C17.918 34.6699 17.6152 34.9336 17.3418 35.3242C17.2637 35.4805 17.2051 35.6172 17.166 35.7344C17.127 35.8516 17.1074 36.0664 17.1074 36.3789C17.1074 36.7695 17.1758 37.0918 17.3125 37.3457C17.4492 37.5996 17.6738 37.8438 17.9863 38.0781C18.1816 38.1953 18.3574 38.2734 18.5137 38.3125C18.6699 38.3516 19.002 38.3711 19.5098 38.3711L20.5645 38.4297V40.4805L20.623 42.5898L20.916 43C21.3457 43.625 21.9512 43.9277 22.7324 43.9082C23.5137 43.8887 24.0801 43.5469 24.4316 42.8828C24.5098 42.7266 24.5684 42.1895 24.6074 41.2715C24.6465 40.3535 24.666 38.0195 24.666 34.2695L24.7246 26.0078L31.0527 34.5039C32.8105 36.8086 34.3438 38.8301 35.6523 40.5684C36.9609 42.3066 37.6543 43.2148 37.7324 43.293C37.9277 43.5273 38.1426 43.6934 38.377 43.791C38.6113 43.8887 38.8848 43.9375 39.1973 43.9375C39.5488 43.9375 39.8711 43.8594 40.1641 43.7031C40.457 43.5469 40.7012 43.3125 40.8965 43L41.248 42.5898V40.5391L41.3066 38.4297L42.9473 38.3711C43.7285 38.3711 44.207 38.3613 44.3828 38.3418C44.5586 38.3223 44.7637 38.2344 44.998 38.0781C45.2715 37.8828 45.4863 37.6387 45.6426 37.3457C45.7988 37.0527 45.877 36.7305 45.877 36.3789C45.877 36.0273 45.7988 35.7051 45.6426 35.4121C45.4863 35.1191 45.2715 34.875 44.998 34.6797L44.5293 34.3867L41.248 34.2695V27.2969L44.6465 27.2383L45.0566 26.9453C45.5645 26.5156 45.8379 25.998 45.877 25.3926C45.916 24.7871 45.7012 24.25 45.2324 23.7812C44.998 23.5859 44.7441 23.459 44.4707 23.4004C44.1973 23.3418 43.6504 23.3125 42.8301 23.3125H41.248V21.4961C41.248 20.5195 41.2188 19.8457 41.1602 19.4746C41.1016 19.1035 40.9941 18.8008 40.8379 18.5664C40.6426 18.293 40.4082 18.0977 40.1348 17.9805C39.8613 17.8633 39.5684 17.7852 39.2559 17.7461C38.8652 17.7461 38.5234 17.8242 38.2305 17.9805C37.9375 18.1367 37.6934 18.3516 37.498 18.625L37.2051 19.0352L37.1465 27.3555V35.7344L30.584 27.0039C28.7871 24.582 27.2344 22.502 25.9258 20.7637C24.6172 19.0254 23.9238 18.1367 23.8457 18.0977C23.6895 17.9805 23.5039 17.8926 23.2891 17.834C23.0742 17.7754 22.8691 17.7461 22.6738 17.7461C22.5176 17.7461 22.3711 17.7559 22.2344 17.7754C22.0977 17.7949 21.9512 17.8438 21.7949 17.9219ZM1.58008 28.9961C1.42383 29.1133 1.28711 29.2207 1.16992 29.3184C1.05273 29.416 0.955078 29.543 0.876953 29.6992H0.818359L0.525391 30.168V31.6328C0.525391 33.6641 0.798828 35.7539 1.3457 37.9023C1.89258 40.0508 2.67383 42.1211 3.68945 44.1133C4.70508 46.2227 5.97461 48.1562 7.49805 49.9141C8.98242 51.6719 10.6523 53.2344 12.5078 54.6016C14.3633 55.9688 16.3457 57.1211 18.4551 58.0586C20.6035 58.957 22.8301 59.6016 25.1348 59.9922C26.8145 60.2656 28.5625 60.4023 30.3789 60.4023C32.1953 60.4023 33.9238 60.2461 35.5645 59.9336C37.2051 59.6602 38.8262 59.2109 40.4277 58.5859C42.0293 58 43.5625 57.2871 45.0273 56.4473C46.4922 55.6074 47.8691 54.6602 49.1582 53.6055C50.4863 52.5117 51.6777 51.3398 52.7324 50.0898L53.5527 49.1523V52.1992C53.5918 53.6445 53.6211 54.5332 53.6406 54.8652C53.6602 55.1973 53.7285 55.4609 53.8457 55.6562C53.9629 55.9297 54.1094 56.1445 54.2852 56.3008C54.4609 56.457 54.666 56.5742 54.9004 56.6523C55.0176 56.6914 55.1445 56.7305 55.2812 56.7695C55.418 56.8086 55.5449 56.8281 55.6621 56.8281C56.0527 56.8281 56.4141 56.7207 56.7461 56.5059C57.0781 56.291 57.3223 56.0273 57.4785 55.7148C57.5566 55.5195 57.6055 55.0703 57.625 54.3672C57.6445 53.6641 57.6543 51.6133 57.6543 48.2148C57.6543 44.3867 57.6348 42.1504 57.5957 41.5059C57.5566 40.8613 57.4004 40.4023 57.127 40.1289C56.8145 39.7773 56.3945 39.5723 55.8672 39.5137C55.3398 39.4551 54.8809 39.5625 54.4902 39.8359C54.2949 39.9531 54.1387 40.0996 54.0215 40.2754C53.9043 40.4512 53.7285 40.8125 53.4941 41.3594C52.752 42.8828 51.9707 44.2402 51.1504 45.4316C50.3301 46.623 49.3535 47.7656 48.2207 48.8594C46.7754 50.3047 45.1738 51.5645 43.416 52.6387C41.6582 53.7129 39.7637 54.5625 37.7324 55.1875L37.5566 55.2461C36.1895 55.6758 34.8906 55.9688 33.6602 56.125C32.4297 56.2812 31.0527 56.3398 29.5293 56.3008C28.1621 56.2617 27 56.1641 26.043 56.0078C25.0859 55.8516 24.002 55.5977 22.791 55.2461C20.9941 54.6992 19.2949 53.9766 17.6934 53.0781C16.0527 52.1406 14.5391 51.0566 13.1523 49.8262C11.7656 48.5957 10.5254 47.2383 9.43164 45.7539C8.33789 44.2305 7.41992 42.6094 6.67773 40.8906C6.05273 39.4062 5.57422 37.9219 5.24219 36.4375C4.91016 34.9531 4.68555 33.332 4.56836 31.5742C4.5293 30.8711 4.5 30.4316 4.48047 30.2559C4.46094 30.0801 4.37305 29.8945 4.2168 29.6992C4.02148 29.4258 3.77734 29.2109 3.48438 29.0547C3.19141 28.8984 2.86914 28.8203 2.51758 28.8203C2.36133 28.8203 2.20508 28.8398 2.04883 28.8789C1.89258 28.918 1.73633 28.9766 1.58008 29.0547V28.9961Z" fill="black"/>
</g>
<defs>
<clipPath id="clip0_320_2313">
<rect width="60" height="60" fill="white" transform="matrix(1 0 0 -1 0.173828 60.8125)"/>
</clipPath>
</defs>
</svg>
