<svg width="141" height="135" viewBox="0 0 141 135" fill="none" xmlns="http://www.w3.org/2000/svg">
<path d="M59.5571 18.5156C59.3618 18.5938 59.1763 18.7402 59.0005 18.9551C58.8247 19.1699 58.7173 19.375 58.6782 19.5703C58.6001 19.7266 58.561 19.9219 58.561 20.1562C58.561 20.3906 58.6001 20.5859 58.6782 20.7422C58.7173 20.8594 59.0688 21.4648 59.7329 22.5586C60.397 23.6133 61.1196 24.7656 61.9009 26.0156C62.6821 27.2656 63.4048 28.418 64.0688 29.4727C64.6938 30.5273 65.0454 31.0742 65.1235 31.1133C65.2407 31.2695 65.3384 31.3574 65.4165 31.377C65.4946 31.3965 65.6118 31.4062 65.7681 31.4062C66.2368 31.4062 66.5981 31.1816 66.8521 30.7324C67.106 30.2832 67.1548 29.7852 66.9985 29.2383C66.9595 29.082 66.7544 28.7012 66.3833 28.0957C66.0122 27.4902 65.4946 26.6406 64.8306 25.5469C64.2837 24.6094 63.8052 23.8184 63.395 23.1738C62.9849 22.5293 62.7993 22.207 62.8384 22.207C62.8384 22.207 63.2192 22.2559 63.981 22.3535C64.7427 22.4512 65.6509 22.5781 66.7056 22.7344L70.6313 23.2617L74.5571 22.7344C75.6509 22.5781 76.5884 22.4609 77.3696 22.3828C78.1509 22.3047 78.5415 22.2656 78.5415 22.2656C78.5415 22.2656 78.3657 22.5781 78.0142 23.2031C77.6626 23.8281 77.2134 24.5703 76.6665 25.4297C76.1587 26.2891 75.6899 27.0508 75.2603 27.7148C74.8306 28.3789 74.5962 28.7695 74.5571 28.8867C74.4399 29.1211 74.3813 29.4238 74.3813 29.7949C74.3813 30.166 74.4399 30.4492 74.5571 30.6445C74.6743 30.8789 74.8208 31.0547 74.9966 31.1719C75.1724 31.2891 75.3579 31.3672 75.5532 31.4062C75.6704 31.4062 75.7778 31.3965 75.8755 31.377C75.9731 31.3574 76.0806 31.3086 76.1978 31.2305C76.3149 31.1914 76.4224 31.123 76.52 31.0254C76.6177 30.9277 76.686 30.8594 76.7251 30.8203C76.7642 30.7422 77.0962 30.1953 77.7212 29.1797C78.3462 28.1641 79.0884 26.9922 79.9478 25.6641C81.6274 22.8906 82.5747 21.2891 82.7896 20.8594C83.0044 20.4297 83.0337 20 82.8774 19.5703C82.7603 19.1797 82.604 18.8867 82.4087 18.6914C82.2134 18.4961 81.9985 18.3984 81.7642 18.3984C81.686 18.3984 81.1099 18.4668 80.0356 18.6035C78.9614 18.7402 77.7017 18.9062 76.2563 19.1016C74.8501 19.2969 73.6001 19.4727 72.5063 19.6289C71.4126 19.7852 70.8267 19.8633 70.7485 19.8633C70.6704 19.8633 70.0942 19.7852 69.02 19.6289C67.9458 19.4727 66.7056 19.2969 65.2993 19.1016C65.5728 19.1406 65.3579 19.1016 64.6548 18.9844C63.9517 18.8672 63.1509 18.75 62.2524 18.6328L59.9673 18.3984C59.9282 18.3984 59.8696 18.4082 59.7915 18.4277C59.7134 18.4473 59.6353 18.4766 59.5571 18.5156ZM56.3345 35.5078C55.1235 35.625 54.0493 35.9961 53.1118 36.6211C52.1743 37.2461 51.4321 38.0859 50.8853 39.1406C50.6899 39.4922 50.5337 39.9121 50.4165 40.4004C50.2993 40.8887 50.2017 41.4258 50.1235 42.0117C50.1235 42.3242 50.104 43.6719 50.0649 46.0547C50.0649 48.3984 50.0747 50.9375 50.0942 53.6719C50.1138 56.4062 50.1235 58.9453 50.1235 61.2891C50.1626 63.5938 50.1821 64.9023 50.1821 65.2148C50.3384 66.4648 50.5337 67.5 50.7681 68.3203C51.0024 69.1406 51.3345 69.9219 51.7642 70.6641C52.6235 72.0703 53.6782 73.2617 54.9282 74.2383C56.1782 75.2148 57.5259 75.8789 58.9712 76.2305C59.9868 76.5039 61.1587 76.6699 62.4868 76.7285C63.8149 76.7871 66.5884 76.8164 70.8071 76.8164C74.9478 76.8164 77.6821 76.7871 79.0103 76.7285C80.3384 76.6699 81.5298 76.5039 82.5845 76.2305C84.4985 75.7617 86.2368 74.7461 87.7993 73.1836C89.3618 71.6211 90.397 69.8828 90.9048 67.9688C91.1001 67.1875 91.2173 66.4648 91.2563 65.8008C91.2954 65.1367 91.3345 63.5742 91.3735 61.1133C91.4126 58.9648 91.4321 56.7578 91.4321 54.4922C91.4712 52.2656 91.4907 50.2246 91.4907 48.3691C91.4907 46.5137 91.4712 44.9609 91.4321 43.7109C91.4321 42.4609 91.4126 41.7383 91.3735 41.543C91.2563 40.6445 91.0317 39.8633 90.6997 39.1992C90.3677 38.5352 89.9087 37.9102 89.3228 37.3242C88.854 36.8945 88.3657 36.543 87.8579 36.2695C87.3501 35.9961 86.7642 35.7812 86.1001 35.625L85.397 35.4492H71.1587C67.2524 35.4492 63.8442 35.4492 60.9341 35.4492C58.0239 35.4492 56.4907 35.4688 56.3345 35.5078ZM85.5142 38.5547C85.8657 38.6328 86.1685 38.7402 86.4224 38.877C86.6763 39.0137 86.9399 39.2188 87.2134 39.4922C87.604 39.8438 87.8872 40.2051 88.063 40.5762C88.2388 40.9473 88.3462 41.4258 88.3853 42.0117C88.4243 42.207 88.4438 43.3984 88.4438 45.5859C88.4438 47.7734 88.4438 50.166 88.4438 52.7637C88.4438 55.3613 88.4438 57.793 88.4438 60.0586C88.4438 62.3242 88.4243 63.6523 88.3853 64.043C88.3462 65.0586 88.2583 65.918 88.1216 66.6211C87.9849 67.3242 87.7993 67.9297 87.5649 68.4375C87.1743 69.2969 86.5786 70.127 85.7778 70.9277C84.9771 71.7285 84.147 72.3438 83.2876 72.7734C82.7017 73.0859 82.0474 73.3105 81.3247 73.4473C80.6021 73.584 79.5962 73.6914 78.3071 73.7695C77.7212 73.7695 76.5688 73.7891 74.8501 73.8281C73.1704 73.8281 71.3931 73.8184 69.5181 73.7988C67.6431 73.7793 65.9438 73.75 64.4204 73.7109C62.8579 73.7109 61.9204 73.6914 61.6079 73.6523C60.5532 73.5352 59.6938 73.3594 59.0298 73.125C58.3657 72.8906 57.7212 72.5391 57.0962 72.0703C56.0806 71.3672 55.2505 70.5176 54.606 69.5215C53.9614 68.5254 53.561 67.4414 53.4048 66.2695C53.2485 65.3711 53.1606 64.2969 53.1411 63.0469C53.1216 61.7969 53.1118 58.3984 53.1118 52.8516C53.1118 47.9688 53.1118 44.9316 53.1118 43.7402C53.1118 42.5488 53.1509 41.8164 53.229 41.543C53.3071 41.1523 53.4146 40.8203 53.5513 40.5469C53.688 40.2734 53.8735 40 54.1079 39.7266C54.4595 39.3359 54.8403 39.043 55.2505 38.8477C55.6606 38.6523 56.1782 38.5352 56.8032 38.4961C56.9985 38.457 58.5122 38.4375 61.3442 38.4375C64.1763 38.4375 67.4673 38.4375 71.2173 38.4375C77.6626 38.4375 81.5884 38.4473 82.9946 38.4668C84.4009 38.4863 85.2407 38.5156 85.5142 38.5547ZM62.8384 45.1758C62.4868 45.2539 62.145 45.3906 61.813 45.5859C61.481 45.7812 61.1782 46.0352 60.9048 46.3477C60.4751 46.7773 60.1626 47.2656 59.9673 47.8125C59.772 48.3594 59.7134 48.9453 59.7915 49.5703C59.9478 50.5078 60.3872 51.2988 61.1099 51.9434C61.8325 52.5879 62.6821 52.9102 63.6587 52.9102C64.5571 52.9492 65.3677 52.6855 66.0903 52.1191C66.813 51.5527 67.272 50.8398 67.4673 49.9805C67.6626 49.3164 67.6626 48.6523 67.4673 47.9883C67.272 47.3242 66.9204 46.7383 66.4126 46.2305C65.9438 45.7617 65.397 45.4395 64.772 45.2637C64.147 45.0879 63.5024 45.0586 62.8384 45.1758ZM64.2446 47.4023C64.479 47.4414 64.6938 47.5684 64.8892 47.7832C65.0845 47.998 65.2212 48.2031 65.2993 48.3984C65.4165 48.6328 65.4556 48.8965 65.4165 49.1895C65.3774 49.4824 65.2993 49.7266 65.1821 49.9219C64.8696 50.3906 64.4497 50.6641 63.9224 50.7422C63.395 50.8203 62.936 50.6836 62.5454 50.332C62.272 50.0977 62.0864 49.8145 61.9888 49.4824C61.8911 49.1504 61.9009 48.8281 62.0181 48.5156C62.1743 48.0078 62.4673 47.6465 62.897 47.4316C63.3267 47.2168 63.7759 47.207 64.2446 47.4023ZM76.4321 49.1602C76.3149 49.1992 75.8462 49.6094 75.0259 50.3906C74.2056 51.1719 72.5649 52.793 70.104 55.2539C68.4243 56.9336 66.979 58.3887 65.7681 59.6191C64.5571 60.8496 63.9517 61.4844 63.9517 61.5234C63.8735 61.6406 63.8345 61.8066 63.8345 62.0215C63.8345 62.2363 63.8735 62.4023 63.9517 62.5195C64.0298 62.7148 64.186 62.8711 64.4204 62.9883C64.6548 63.1055 64.8892 63.1445 65.1235 63.1055C65.2407 63.0664 65.6606 62.7051 66.3833 62.0215C67.106 61.3379 68.7954 59.6484 71.4517 56.9531C73.2485 55.1953 74.7329 53.7207 75.9048 52.5293C77.0767 51.3379 77.6626 50.7031 77.6626 50.625C77.7407 50.4688 77.7798 50.3027 77.7798 50.127C77.7798 49.9512 77.7212 49.8047 77.604 49.6875C77.4478 49.4531 77.272 49.2969 77.0767 49.2188C76.8813 49.1406 76.6665 49.1211 76.4321 49.1602ZM77.0181 59.3555C76.2368 59.5508 75.563 59.9512 74.9966 60.5566C74.4302 61.1621 74.1079 61.8555 74.0298 62.6367C73.9517 63.3008 74.0005 63.916 74.1763 64.4824C74.3521 65.0488 74.6743 65.5469 75.1431 65.9766C75.9243 66.7578 76.8423 67.1387 77.897 67.1191C78.9517 67.0996 79.8696 66.6992 80.6509 65.918C81.0415 65.5273 81.3247 65.1172 81.5005 64.6875C81.6763 64.2578 81.7642 63.75 81.7642 63.1641C81.7642 62.6172 81.6665 62.1191 81.4712 61.6699C81.2759 61.2207 80.9829 60.8008 80.5923 60.4102C80.1235 59.9414 79.5767 59.6191 78.9517 59.4434C78.3267 59.2676 77.6821 59.2383 77.0181 59.3555ZM78.4829 61.582C79.147 61.8164 79.5181 62.2949 79.5962 63.0176C79.6743 63.7402 79.4009 64.2969 78.7759 64.6875C78.6587 64.7656 78.522 64.8242 78.3657 64.8633C78.2095 64.9023 78.0532 64.9219 77.897 64.9219C77.6626 64.9219 77.4575 64.8926 77.2817 64.834C77.106 64.7754 76.9399 64.668 76.7837 64.5117C76.5103 64.2773 76.3247 64.0039 76.2271 63.6914C76.1294 63.3789 76.1196 63.0664 76.1978 62.7539C76.354 62.2461 76.647 61.875 77.0767 61.6406C77.5063 61.4062 77.9751 61.3867 78.4829 61.582Z" fill="black"/>
<path d="M35.8257 112.812V99.9277H40.6597C41.6441 99.9277 42.4322 100.06 43.024 100.323C43.6216 100.581 44.0875 100.982 44.4214 101.527C44.7613 102.066 44.9312 102.632 44.9312 103.224C44.9312 103.774 44.7818 104.293 44.483 104.779C44.1841 105.266 43.733 105.658 43.1294 105.957C43.9087 106.186 44.5064 106.575 44.9224 107.126C45.3443 107.677 45.5552 108.327 45.5552 109.077C45.5552 109.681 45.4263 110.243 45.1685 110.765C44.9166 111.28 44.6031 111.679 44.2281 111.96C43.8531 112.241 43.3814 112.455 42.813 112.602C42.2505 112.742 41.5591 112.812 40.7388 112.812H35.8257ZM37.5308 105.342H40.3169C41.0728 105.342 41.6148 105.292 41.9429 105.192C42.3765 105.063 42.7017 104.85 42.9185 104.551C43.1412 104.252 43.2525 103.877 43.2525 103.426C43.2525 102.998 43.15 102.623 42.9449 102.301C42.7398 101.973 42.4468 101.75 42.066 101.633C41.6851 101.51 41.0318 101.448 40.106 101.448H37.5308V105.342ZM37.5308 111.292H40.7388C41.2896 111.292 41.6763 111.271 41.899 111.23C42.2916 111.16 42.6197 111.043 42.8834 110.879C43.147 110.715 43.3638 110.478 43.5337 110.167C43.7037 109.851 43.7886 109.487 43.7886 109.077C43.7886 108.597 43.6656 108.181 43.4195 107.829C43.1734 107.472 42.8306 107.223 42.3912 107.082C41.9576 106.936 41.3306 106.862 40.5103 106.862H37.5308V111.292ZM53.8169 112.812V111.441C53.0904 112.496 52.1031 113.023 50.855 113.023C50.3042 113.023 49.7886 112.918 49.3082 112.707C48.8335 112.496 48.4791 112.232 48.2447 111.916C48.0162 111.594 47.855 111.201 47.7613 110.738C47.6968 110.428 47.6646 109.936 47.6646 109.262V103.479H49.2466V108.655C49.2466 109.481 49.2789 110.038 49.3433 110.325C49.4429 110.741 49.6539 111.069 49.9761 111.31C50.2984 111.544 50.6968 111.661 51.1714 111.661C51.646 111.661 52.0914 111.541 52.5074 111.301C52.9234 111.055 53.2164 110.724 53.3863 110.308C53.5621 109.886 53.65 109.276 53.65 108.479V103.479H55.232V112.812H53.8169ZM57.0865 110.026L58.6509 109.78C58.7388 110.407 58.982 110.888 59.3804 111.222C59.7847 111.556 60.3472 111.723 61.0679 111.723C61.7945 111.723 62.3335 111.576 62.6851 111.283C63.0367 110.984 63.2125 110.636 63.2125 110.237C63.2125 109.88 63.0572 109.599 62.7466 109.394C62.5298 109.253 61.9908 109.074 61.1294 108.857C59.9693 108.564 59.1636 108.312 58.7125 108.102C58.2671 107.885 57.9273 107.589 57.6929 107.214C57.4644 106.833 57.3501 106.414 57.3501 105.957C57.3501 105.541 57.4439 105.157 57.6314 104.806C57.8248 104.448 58.0855 104.152 58.4136 103.918C58.6597 103.736 58.9937 103.584 59.4156 103.461C59.8433 103.332 60.3003 103.268 60.7867 103.268C61.5191 103.268 62.1607 103.373 62.7115 103.584C63.2681 103.795 63.6783 104.082 63.9419 104.445C64.2056 104.803 64.3873 105.283 64.4869 105.887L62.94 106.098C62.8697 105.617 62.6646 105.242 62.3248 104.973C61.9908 104.703 61.5162 104.568 60.9009 104.568C60.1744 104.568 59.6558 104.688 59.3453 104.929C59.0347 105.169 58.8794 105.45 58.8794 105.772C58.8794 105.978 58.9439 106.162 59.0728 106.326C59.2017 106.496 59.4039 106.637 59.6792 106.748C59.8375 106.807 60.3033 106.941 61.0767 107.152C62.1959 107.451 62.9751 107.697 63.4146 107.891C63.8599 108.078 64.2085 108.354 64.4605 108.717C64.7125 109.08 64.8384 109.531 64.8384 110.07C64.8384 110.598 64.6832 111.096 64.3726 111.564C64.0679 112.027 63.6255 112.388 63.0455 112.646C62.4654 112.897 61.8091 113.023 61.0767 113.023C59.8638 113.023 58.938 112.771 58.2994 112.268C57.6666 111.764 57.2623 111.017 57.0865 110.026ZM66.7281 101.747V99.9277H68.3101V101.747H66.7281ZM66.7281 112.812V103.479H68.3101V112.812H66.7281ZM70.7271 112.812V103.479H72.1509V104.806C72.8365 103.78 73.8267 103.268 75.1216 103.268C75.6841 103.268 76.1998 103.37 76.6685 103.575C77.1431 103.774 77.4976 104.038 77.732 104.366C77.9664 104.694 78.1304 105.084 78.2242 105.535C78.2828 105.828 78.3121 106.341 78.3121 107.073V112.812H76.73V107.135C76.73 106.49 76.6685 106.01 76.5455 105.693C76.4224 105.371 76.2027 105.116 75.8863 104.929C75.5757 104.735 75.2095 104.639 74.7876 104.639C74.1138 104.639 73.5308 104.853 73.0386 105.28C72.5523 105.708 72.3091 106.52 72.3091 107.715V112.812H70.7271ZM87.1363 109.807L88.771 110.009C88.5132 110.964 88.0357 111.705 87.3384 112.232C86.6412 112.76 85.7505 113.023 84.6666 113.023C83.3013 113.023 82.2173 112.604 81.4146 111.767C80.6177 110.923 80.2193 109.742 80.2193 108.225C80.2193 106.654 80.6236 105.436 81.4322 104.568C82.2408 103.701 83.2896 103.268 84.5787 103.268C85.8267 103.268 86.8462 103.692 87.6373 104.542C88.4283 105.392 88.8238 106.587 88.8238 108.128C88.8238 108.222 88.8209 108.362 88.815 108.55H81.8541C81.9126 109.575 82.2027 110.36 82.7242 110.905C83.2457 111.45 83.896 111.723 84.6753 111.723C85.2554 111.723 85.7505 111.57 86.1607 111.266C86.5709 110.961 86.896 110.475 87.1363 109.807ZM81.9419 107.249H87.1539C87.0835 106.464 86.8843 105.875 86.5562 105.482C86.0523 104.873 85.399 104.568 84.5962 104.568C83.8697 104.568 83.2574 104.812 82.7593 105.298C82.2671 105.784 81.9947 106.435 81.9419 107.249ZM90.1334 110.026L91.6978 109.78C91.7857 110.407 92.0289 110.888 92.4273 111.222C92.8316 111.556 93.3941 111.723 94.1148 111.723C94.8414 111.723 95.3804 111.576 95.732 111.283C96.0835 110.984 96.2593 110.636 96.2593 110.237C96.2593 109.88 96.1041 109.599 95.7935 109.394C95.5767 109.253 95.0376 109.074 94.1763 108.857C93.0162 108.564 92.2105 108.312 91.7593 108.102C91.314 107.885 90.9742 107.589 90.7398 107.214C90.5113 106.833 90.397 106.414 90.397 105.957C90.397 105.541 90.4908 105.157 90.6783 104.806C90.8716 104.448 91.1324 104.152 91.4605 103.918C91.7066 103.736 92.0406 103.584 92.4625 103.461C92.8902 103.332 93.3472 103.268 93.8335 103.268C94.566 103.268 95.2076 103.373 95.7584 103.584C96.315 103.795 96.7251 104.082 96.9888 104.445C97.2525 104.803 97.4341 105.283 97.5337 105.887L95.9869 106.098C95.9166 105.617 95.7115 105.242 95.3716 104.973C95.0376 104.703 94.563 104.568 93.9478 104.568C93.2212 104.568 92.7027 104.688 92.3921 104.929C92.0816 105.169 91.9263 105.45 91.9263 105.772C91.9263 105.978 91.9908 106.162 92.1197 106.326C92.2486 106.496 92.4507 106.637 92.7261 106.748C92.8843 106.807 93.3501 106.941 94.1236 107.152C95.2427 107.451 96.022 107.697 96.4615 107.891C96.9068 108.078 97.2554 108.354 97.5074 108.717C97.7593 109.08 97.8853 109.531 97.8853 110.07C97.8853 110.598 97.73 111.096 97.4195 111.564C97.1148 112.027 96.6724 112.388 96.0923 112.646C95.5123 112.897 94.856 113.023 94.1236 113.023C92.9107 113.023 91.9849 112.771 91.3462 112.268C90.7134 111.764 90.3091 111.017 90.1334 110.026ZM99.1333 110.026L100.698 109.78C100.786 110.407 101.029 110.888 101.427 111.222C101.832 111.556 102.394 111.723 103.115 111.723C103.841 111.723 104.38 111.576 104.732 111.283C105.084 110.984 105.259 110.636 105.259 110.237C105.259 109.88 105.104 109.599 104.794 109.394C104.577 109.253 104.038 109.074 103.176 108.857C102.016 108.564 101.21 108.312 100.759 108.102C100.314 107.885 99.9742 107.589 99.7398 107.214C99.5113 106.833 99.397 106.414 99.397 105.957C99.397 105.541 99.4908 105.157 99.6783 104.806C99.8716 104.448 100.132 104.152 100.46 103.918C100.707 103.736 101.041 103.584 101.462 103.461C101.89 103.332 102.347 103.268 102.834 103.268C103.566 103.268 104.208 103.373 104.758 103.584C105.315 103.795 105.725 104.082 105.989 104.445C106.252 104.803 106.434 105.283 106.534 105.887L104.987 106.098C104.917 105.617 104.711 105.242 104.372 104.973C104.038 104.703 103.563 104.568 102.948 104.568C102.221 104.568 101.703 104.688 101.392 104.929C101.082 105.169 100.926 105.45 100.926 105.772C100.926 105.978 100.991 106.162 101.12 106.326C101.249 106.496 101.451 106.637 101.726 106.748C101.884 106.807 102.35 106.941 103.124 107.152C104.243 107.451 105.022 107.697 105.461 107.891C105.907 108.078 106.255 108.354 106.507 108.717C106.759 109.08 106.885 109.531 106.885 110.07C106.885 110.598 106.73 111.096 106.419 111.564C106.115 112.027 105.672 112.388 105.092 112.646C104.512 112.897 103.856 113.023 103.124 113.023C101.911 113.023 100.985 112.771 100.346 112.268C99.7134 111.764 99.3091 111.017 99.1333 110.026Z" fill="black"/>
</svg>
