<svg width="44" height="61" viewBox="0 0 44 61" fill="none" xmlns="http://www.w3.org/2000/svg">
<path d="M10.5571 1.51562C10.3618 1.59375 10.1763 1.74023 10.0005 1.95508C9.82471 2.16992 9.71729 2.375 9.67822 2.57031C9.6001 2.72656 9.56104 2.92188 9.56104 3.15625C9.56104 3.39062 9.6001 3.58594 9.67822 3.74219C9.71729 3.85938 10.0688 4.46484 10.7329 5.55859C11.397 6.61328 12.1196 7.76562 12.9009 9.01562C13.6821 10.2656 14.4048 11.418 15.0688 12.4727C15.6938 13.5273 16.0454 14.0742 16.1235 14.1133C16.2407 14.2695 16.3384 14.3574 16.4165 14.377C16.4946 14.3965 16.6118 14.4062 16.7681 14.4062C17.2368 14.4062 17.5981 14.1816 17.8521 13.7324C18.106 13.2832 18.1548 12.7852 17.9985 12.2383C17.9595 12.082 17.7544 11.7012 17.3833 11.0957C17.0122 10.4902 16.4946 9.64062 15.8306 8.54688C15.2837 7.60938 14.8052 6.81836 14.395 6.17383C13.9849 5.5293 13.7993 5.20703 13.8384 5.20703C13.8384 5.20703 14.2192 5.25586 14.981 5.35352C15.7427 5.45117 16.6509 5.57812 17.7056 5.73438L21.6313 6.26172L25.5571 5.73438C26.6509 5.57812 27.5884 5.46094 28.3696 5.38281C29.1509 5.30469 29.5415 5.26562 29.5415 5.26562C29.5415 5.26562 29.3657 5.57812 29.0142 6.20312C28.6626 6.82812 28.2134 7.57031 27.6665 8.42969C27.1587 9.28906 26.6899 10.0508 26.2603 10.7148C25.8306 11.3789 25.5962 11.7695 25.5571 11.8867C25.4399 12.1211 25.3813 12.4238 25.3813 12.7949C25.3813 13.166 25.4399 13.4492 25.5571 13.6445C25.6743 13.8789 25.8208 14.0547 25.9966 14.1719C26.1724 14.2891 26.3579 14.3672 26.5532 14.4062C26.6704 14.4062 26.7778 14.3965 26.8755 14.377C26.9731 14.3574 27.0806 14.3086 27.1978 14.2305C27.3149 14.1914 27.4224 14.123 27.52 14.0254C27.6177 13.9277 27.686 13.8594 27.7251 13.8203C27.7642 13.7422 28.0962 13.1953 28.7212 12.1797C29.3462 11.1641 30.0884 9.99219 30.9478 8.66406C32.6274 5.89062 33.5747 4.28906 33.7896 3.85938C34.0044 3.42969 34.0337 3 33.8774 2.57031C33.7603 2.17969 33.604 1.88672 33.4087 1.69141C33.2134 1.49609 32.9985 1.39844 32.7642 1.39844C32.686 1.39844 32.1099 1.4668 31.0356 1.60352C29.9614 1.74023 28.7017 1.90625 27.2563 2.10156C25.8501 2.29688 24.6001 2.47266 23.5063 2.62891C22.4126 2.78516 21.8267 2.86328 21.7485 2.86328C21.6704 2.86328 21.0942 2.78516 20.02 2.62891C18.9458 2.47266 17.7056 2.29688 16.2993 2.10156C16.5728 2.14062 16.3579 2.10156 15.6548 1.98438C14.9517 1.86719 14.1509 1.75 13.2524 1.63281L10.9673 1.39844C10.9282 1.39844 10.8696 1.4082 10.7915 1.42773C10.7134 1.44727 10.6353 1.47656 10.5571 1.51562ZM7.33447 18.5078C6.12354 18.625 5.04932 18.9961 4.11182 19.6211C3.17432 20.2461 2.43213 21.0859 1.88525 22.1406C1.68994 22.4922 1.53369 22.9121 1.4165 23.4004C1.29932 23.8887 1.20166 24.4258 1.12354 25.0117C1.12354 25.3242 1.104 26.6719 1.06494 29.0547C1.06494 31.3984 1.07471 33.9375 1.09424 36.6719C1.11377 39.4062 1.12354 41.9453 1.12354 44.2891C1.1626 46.5938 1.18213 47.9023 1.18213 48.2148C1.33838 49.4648 1.53369 50.5 1.76807 51.3203C2.00244 52.1406 2.33447 52.9219 2.76416 53.6641C3.62354 55.0703 4.67822 56.2617 5.92822 57.2383C7.17822 58.2148 8.52588 58.8789 9.97119 59.2305C10.9868 59.5039 12.1587 59.6699 13.4868 59.7285C14.8149 59.7871 17.5884 59.8164 21.8071 59.8164C25.9478 59.8164 28.6821 59.7871 30.0103 59.7285C31.3384 59.6699 32.5298 59.5039 33.5845 59.2305C35.4985 58.7617 37.2368 57.7461 38.7993 56.1836C40.3618 54.6211 41.397 52.8828 41.9048 50.9688C42.1001 50.1875 42.2173 49.4648 42.2563 48.8008C42.2954 48.1367 42.3345 46.5742 42.3735 44.1133C42.4126 41.9648 42.4321 39.7578 42.4321 37.4922C42.4712 35.2656 42.4907 33.2246 42.4907 31.3691C42.4907 29.5137 42.4712 27.9609 42.4321 26.7109C42.4321 25.4609 42.4126 24.7383 42.3735 24.543C42.2563 23.6445 42.0317 22.8633 41.6997 22.1992C41.3677 21.5352 40.9087 20.9102 40.3228 20.3242C39.854 19.8945 39.3657 19.543 38.8579 19.2695C38.3501 18.9961 37.7642 18.7812 37.1001 18.625L36.397 18.4492H22.1587C18.2524 18.4492 14.8442 18.4492 11.9341 18.4492C9.02393 18.4492 7.49072 18.4688 7.33447 18.5078ZM36.5142 21.5547C36.8657 21.6328 37.1685 21.7402 37.4224 21.877C37.6763 22.0137 37.9399 22.2188 38.2134 22.4922C38.604 22.8438 38.8872 23.2051 39.063 23.5762C39.2388 23.9473 39.3462 24.4258 39.3853 25.0117C39.4243 25.207 39.4438 26.3984 39.4438 28.5859C39.4438 30.7734 39.4438 33.166 39.4438 35.7637C39.4438 38.3613 39.4438 40.793 39.4438 43.0586C39.4438 45.3242 39.4243 46.6523 39.3853 47.043C39.3462 48.0586 39.2583 48.918 39.1216 49.6211C38.9849 50.3242 38.7993 50.9297 38.5649 51.4375C38.1743 52.2969 37.5786 53.127 36.7778 53.9277C35.9771 54.7285 35.147 55.3438 34.2876 55.7734C33.7017 56.0859 33.0474 56.3105 32.3247 56.4473C31.6021 56.584 30.5962 56.6914 29.3071 56.7695C28.7212 56.7695 27.5688 56.7891 25.8501 56.8281C24.1704 56.8281 22.3931 56.8184 20.5181 56.7988C18.6431 56.7793 16.9438 56.75 15.4204 56.7109C13.8579 56.7109 12.9204 56.6914 12.6079 56.6523C11.5532 56.5352 10.6938 56.3594 10.0298 56.125C9.36572 55.8906 8.72119 55.5391 8.09619 55.0703C7.08057 54.3672 6.25049 53.5176 5.60596 52.5215C4.96143 51.5254 4.56104 50.4414 4.40479 49.2695C4.24854 48.3711 4.16064 47.2969 4.14111 46.0469C4.12158 44.7969 4.11182 41.3984 4.11182 35.8516C4.11182 30.9688 4.11182 27.9316 4.11182 26.7402C4.11182 25.5488 4.15088 24.8164 4.229 24.543C4.30713 24.1523 4.41455 23.8203 4.55127 23.5469C4.68799 23.2734 4.87354 23 5.10791 22.7266C5.45947 22.3359 5.84033 22.043 6.25049 21.8477C6.66064 21.6523 7.17822 21.5352 7.80322 21.4961C7.99854 21.457 9.51221 21.4375 12.3442 21.4375C15.1763 21.4375 18.4673 21.4375 22.2173 21.4375C28.6626 21.4375 32.5884 21.4473 33.9946 21.4668C35.4009 21.4863 36.2407 21.5156 36.5142 21.5547ZM13.8384 28.1758C13.4868 28.2539 13.145 28.3906 12.813 28.5859C12.481 28.7812 12.1782 29.0352 11.9048 29.3477C11.4751 29.7773 11.1626 30.2656 10.9673 30.8125C10.772 31.3594 10.7134 31.9453 10.7915 32.5703C10.9478 33.5078 11.3872 34.2988 12.1099 34.9434C12.8325 35.5879 13.6821 35.9102 14.6587 35.9102C15.5571 35.9492 16.3677 35.6855 17.0903 35.1191C17.813 34.5527 18.272 33.8398 18.4673 32.9805C18.6626 32.3164 18.6626 31.6523 18.4673 30.9883C18.272 30.3242 17.9204 29.7383 17.4126 29.2305C16.9438 28.7617 16.397 28.4395 15.772 28.2637C15.147 28.0879 14.5024 28.0586 13.8384 28.1758ZM15.2446 30.4023C15.479 30.4414 15.6938 30.5684 15.8892 30.7832C16.0845 30.998 16.2212 31.2031 16.2993 31.3984C16.4165 31.6328 16.4556 31.8965 16.4165 32.1895C16.3774 32.4824 16.2993 32.7266 16.1821 32.9219C15.8696 33.3906 15.4497 33.6641 14.9224 33.7422C14.395 33.8203 13.936 33.6836 13.5454 33.332C13.272 33.0977 13.0864 32.8145 12.9888 32.4824C12.8911 32.1504 12.9009 31.8281 13.0181 31.5156C13.1743 31.0078 13.4673 30.6465 13.897 30.4316C14.3267 30.2168 14.7759 30.207 15.2446 30.4023ZM27.4321 32.1602C27.3149 32.1992 26.8462 32.6094 26.0259 33.3906C25.2056 34.1719 23.5649 35.793 21.104 38.2539C19.4243 39.9336 17.979 41.3887 16.7681 42.6191C15.5571 43.8496 14.9517 44.4844 14.9517 44.5234C14.8735 44.6406 14.8345 44.8066 14.8345 45.0215C14.8345 45.2363 14.8735 45.4023 14.9517 45.5195C15.0298 45.7148 15.186 45.8711 15.4204 45.9883C15.6548 46.1055 15.8892 46.1445 16.1235 46.1055C16.2407 46.0664 16.6606 45.7051 17.3833 45.0215C18.106 44.3379 19.7954 42.6484 22.4517 39.9531C24.2485 38.1953 25.7329 36.7207 26.9048 35.5293C28.0767 34.3379 28.6626 33.7031 28.6626 33.625C28.7407 33.4688 28.7798 33.3027 28.7798 33.127C28.7798 32.9512 28.7212 32.8047 28.604 32.6875C28.4478 32.4531 28.272 32.2969 28.0767 32.2188C27.8813 32.1406 27.6665 32.1211 27.4321 32.1602ZM28.0181 42.3555C27.2368 42.5508 26.563 42.9512 25.9966 43.5566C25.4302 44.1621 25.1079 44.8555 25.0298 45.6367C24.9517 46.3008 25.0005 46.916 25.1763 47.4824C25.3521 48.0488 25.6743 48.5469 26.1431 48.9766C26.9243 49.7578 27.8423 50.1387 28.897 50.1191C29.9517 50.0996 30.8696 49.6992 31.6509 48.918C32.0415 48.5273 32.3247 48.1172 32.5005 47.6875C32.6763 47.2578 32.7642 46.75 32.7642 46.1641C32.7642 45.6172 32.6665 45.1191 32.4712 44.6699C32.2759 44.2207 31.9829 43.8008 31.5923 43.4102C31.1235 42.9414 30.5767 42.6191 29.9517 42.4434C29.3267 42.2676 28.6821 42.2383 28.0181 42.3555ZM29.4829 44.582C30.147 44.8164 30.5181 45.2949 30.5962 46.0176C30.6743 46.7402 30.4009 47.2969 29.7759 47.6875C29.6587 47.7656 29.522 47.8242 29.3657 47.8633C29.2095 47.9023 29.0532 47.9219 28.897 47.9219C28.6626 47.9219 28.4575 47.8926 28.2817 47.834C28.106 47.7754 27.9399 47.668 27.7837 47.5117C27.5103 47.2773 27.3247 47.0039 27.2271 46.6914C27.1294 46.3789 27.1196 46.0664 27.1978 45.7539C27.354 45.2461 27.647 44.875 28.0767 44.6406C28.5063 44.4062 28.9751 44.3867 29.4829 44.582Z" fill="black"/>
</svg>
