<svg width="79" height="46" viewBox="0 0 79 46" fill="none" xmlns="http://www.w3.org/2000/svg">
<g clip-path="url(#clip0_320_2328)">
<path d="M28.4722 1.60352C27.8862 1.63281 27.3369 1.67676 26.8242 1.73535C26.3115 1.79395 25.9087 1.86719 25.6157 1.95508C24.2095 2.33594 22.8765 2.86328 21.6167 3.53711C20.3569 4.24023 19.1997 5.0752 18.145 6.04199C17.0903 7.00879 16.1528 8.07812 15.3325 9.25C14.5122 10.4512 13.853 11.7402 13.355 13.1172C13.1206 13.7031 12.9229 14.3623 12.7617 15.0947C12.6006 15.8271 12.4761 16.5742 12.3882 17.3359C12.3589 17.6875 12.3149 18.0098 12.2563 18.3027C12.1978 18.5957 12.1538 18.7715 12.1245 18.8301C12.0952 18.8887 11.9854 18.9546 11.7949 19.0278C11.6045 19.1011 11.3774 19.1816 11.1138 19.2695C9.41455 19.6797 7.87646 20.3901 6.49951 21.4009C5.12256 22.4116 3.95068 23.6787 2.98389 25.2021C2.28076 26.2568 1.81201 27.2383 1.57764 28.1465C1.34326 29.0547 1.22607 30.2998 1.22607 31.8818C1.22607 32.4971 1.24072 33.0903 1.27002 33.6616C1.29932 34.2329 1.34326 34.6357 1.40186 34.8701C1.72412 36.6572 2.54443 38.3638 3.86279 39.9897C5.18115 41.6157 6.74854 42.8828 8.56494 43.791C9.26807 44.1426 9.96387 44.4136 10.6523 44.604C11.3408 44.7944 12.1392 44.9189 13.0474 44.9775C13.5161 45.0361 16.4165 45.0654 21.7485 45.0654C27.0806 45.0947 32.9106 45.1094 39.2388 45.1094C45.5669 45.1094 51.4116 45.0947 56.7729 45.0654C62.1343 45.0654 65.0933 45.0361 65.6499 44.9775C66.5874 44.9189 67.4077 44.7944 68.1108 44.604C68.814 44.4136 69.561 44.1133 70.3521 43.7031C71.9048 42.9121 73.2891 41.8135 74.5049 40.4072C75.7207 39.001 76.563 37.5361 77.0317 36.0127C77.2954 35.1045 77.4419 33.7861 77.4712 32.0576C77.5005 30.3291 77.3833 29.0254 77.1196 28.1465C76.8267 27.2676 76.3213 26.2642 75.6035 25.1362C74.8857 24.0083 74.1753 23.1074 73.4722 22.4336C72.7104 21.7598 71.8242 21.1445 70.8135 20.5879C69.8027 20.0312 68.7554 19.5918 67.6714 19.2695C67.3491 19.1816 67.0562 19.0938 66.7925 19.0059C66.5288 18.918 66.3677 18.8447 66.3091 18.7861C66.2798 18.7275 66.2139 18.5737 66.1113 18.3247C66.0088 18.0757 65.9136 17.79 65.8257 17.4678C65.4448 16.0908 64.771 14.7505 63.8042 13.4468C62.8374 12.1431 61.7534 11.0811 60.5522 10.2607C59.9956 9.87988 59.3364 9.51367 58.5747 9.16211C57.813 8.81055 57.0659 8.54688 56.3335 8.37109C55.7769 8.19531 55.3008 8.09277 54.9053 8.06348C54.5098 8.03418 53.7554 8.01953 52.6421 8.01953C51.4702 8.01953 50.7085 8.03418 50.3569 8.06348C50.0054 8.09277 49.5659 8.19531 49.0386 8.37109C48.7456 8.45898 48.3867 8.5835 47.9619 8.74463C47.5371 8.90576 47.1929 9.04492 46.9292 9.16211C46.6655 9.2793 46.4238 9.37451 46.2041 9.44775C45.9844 9.521 45.8599 9.55762 45.8306 9.55762C45.772 9.52832 45.6768 9.42578 45.5449 9.25C45.4131 9.07422 45.2593 8.88379 45.0835 8.67871C44.0874 7.38965 43.0986 6.34229 42.1172 5.53662C41.1357 4.73096 39.8833 3.94727 38.3599 3.18555C36.9243 2.45312 35.4888 1.97705 34.0532 1.75732C32.6177 1.5376 30.7573 1.48633 28.4722 1.60352ZM33.3501 6.26172C34.8442 6.61328 36.1992 7.1626 37.415 7.90967C38.6309 8.65674 39.7222 9.60156 40.689 10.7441C41.187 11.3301 41.6338 11.9746 42.0293 12.6777C42.4248 13.3809 42.8276 14.2158 43.2378 15.1826C43.4136 15.6514 43.582 16.0615 43.7432 16.4131C43.9043 16.7646 44.0142 16.9697 44.0728 17.0283C44.1606 17.0869 44.2998 17.043 44.4902 16.8965C44.6807 16.75 45.0249 16.4277 45.5229 15.9297C46.3433 15.168 47.0098 14.5894 47.5225 14.1938C48.0352 13.7983 48.5991 13.4688 49.2144 13.2051C49.8589 12.9121 50.4155 12.7144 50.8843 12.6118C51.353 12.5093 51.9536 12.458 52.686 12.458C53.9165 12.458 55.0811 12.6851 56.1797 13.1392C57.2783 13.5933 58.2671 14.2598 59.146 15.1387C59.5854 15.5781 59.9004 15.937 60.0908 16.2153C60.2812 16.4937 60.4937 16.8525 60.728 17.292C61.021 17.9658 61.2407 18.6543 61.3872 19.3574C61.5337 20.0605 61.6069 20.8516 61.6069 21.7305C61.6069 22.1699 61.6216 22.5142 61.6509 22.7632C61.6802 23.0122 61.7241 23.1514 61.7827 23.1807C61.8413 23.2393 62.0684 23.2832 62.4639 23.3125C62.8594 23.3418 63.3208 23.3711 63.8481 23.4004C64.6099 23.4297 65.1738 23.4663 65.54 23.5103C65.9062 23.5542 66.3091 23.6494 66.7485 23.7959C68.5942 24.3818 70.0811 25.4219 71.209 26.916C72.3369 28.4102 72.9009 30.0801 72.9009 31.9258C72.9009 32.6875 72.8276 33.3613 72.6812 33.9473C72.5347 34.5332 72.2856 35.1631 71.9341 35.8369C71.2603 37.1553 70.2935 38.2319 69.0337 39.0669C67.7739 39.9019 66.3677 40.4072 64.8149 40.583C64.6099 40.6123 63.9507 40.6416 62.8374 40.6709C61.7534 40.6709 60.1421 40.6709 58.0034 40.6709C55.8647 40.6709 53.1987 40.6709 50.0054 40.6709C46.7827 40.6709 42.9448 40.6562 38.4917 40.627C32.5444 40.627 27.8716 40.6123 24.4731 40.583C21.104 40.583 18.5625 40.5684 16.8486 40.5391C15.1348 40.5098 14.0288 40.4805 13.5308 40.4512C13.0034 40.4219 12.6372 40.3779 12.4321 40.3193C10.8501 39.9092 9.46582 39.1035 8.2793 37.9023C7.09277 36.7012 6.32373 35.3242 5.97217 33.7715C5.76709 32.7754 5.75244 31.7354 5.92822 30.6514C6.104 29.5674 6.45557 28.5713 6.98291 27.6631C7.33447 27.0771 7.83984 26.4692 8.49902 25.8394C9.1582 25.2095 9.79541 24.7334 10.4106 24.4111C11.231 24.001 11.9854 23.7227 12.6738 23.5762C13.3623 23.4297 14.2925 23.3564 15.4644 23.3564C16.2847 23.3564 16.8267 23.3418 17.0903 23.3125C17.354 23.2832 17.5005 23.2393 17.5298 23.1807C17.5591 23.1221 17.5591 22.9536 17.5298 22.6753C17.5005 22.397 17.4565 22.0967 17.3979 21.7744C17.1636 20.3975 17.0684 19.2036 17.1123 18.1929C17.1562 17.1821 17.3394 16.1641 17.6616 15.1387C18.0425 13.9375 18.5845 12.8242 19.2876 11.7988C20.02 10.7734 20.8623 9.85791 21.8145 9.05225C22.7666 8.24658 23.8286 7.58008 25.0005 7.05273C26.1431 6.52539 27.3442 6.17383 28.604 5.99805C29.2192 5.91016 30.0103 5.89551 30.9771 5.9541C31.9438 6.0127 32.7349 6.11523 33.3501 6.26172Z" fill="black"/>
</g>
<defs>
<clipPath id="clip0_320_2328">
<rect width="77.75" height="45" fill="white" transform="matrix(1 0 0 -1 0.473633 45.8125)"/>
</clipPath>
</defs>
</svg>
