<svg width="141" height="133" viewBox="0 0 141 133" fill="none" xmlns="http://www.w3.org/2000/svg">
<g clip-path="url(#clip0_320_2327)">
<path d="M59.4722 23.6035C58.8862 23.6328 58.3369 23.6768 57.8242 23.7354C57.3115 23.7939 56.9087 23.8672 56.6157 23.9551C55.2095 24.3359 53.8765 24.8633 52.6167 25.5371C51.3569 26.2402 50.1997 27.0752 49.145 28.042C48.0903 29.0088 47.1528 30.0781 46.3325 31.25C45.5122 32.4512 44.853 33.7402 44.355 35.1172C44.1206 35.7031 43.9229 36.3623 43.7617 37.0947C43.6006 37.8271 43.4761 38.5742 43.3882 39.3359C43.3589 39.6875 43.3149 40.0098 43.2563 40.3027C43.1978 40.5957 43.1538 40.7715 43.1245 40.8301C43.0952 40.8887 42.9854 40.9546 42.7949 41.0278C42.6045 41.1011 42.3774 41.1816 42.1138 41.2695C40.4146 41.6797 38.8765 42.3901 37.4995 43.4009C36.1226 44.4116 34.9507 45.6787 33.9839 47.2021C33.2808 48.2568 32.812 49.2383 32.5776 50.1465C32.3433 51.0547 32.2261 52.2998 32.2261 53.8818C32.2261 54.4971 32.2407 55.0903 32.27 55.6616C32.2993 56.2329 32.3433 56.6357 32.4019 56.8701C32.7241 58.6572 33.5444 60.3638 34.8628 61.9897C36.1812 63.6157 37.7485 64.8828 39.5649 65.791C40.2681 66.1426 40.9639 66.4136 41.6523 66.604C42.3408 66.7944 43.1392 66.9189 44.0474 66.9775C44.5161 67.0361 47.4165 67.0654 52.7485 67.0654C58.0806 67.0947 63.9106 67.1094 70.2388 67.1094C76.5669 67.1094 82.4116 67.0947 87.7729 67.0654C93.1343 67.0654 96.0933 67.0361 96.6499 66.9775C97.5874 66.9189 98.4077 66.7944 99.1108 66.604C99.814 66.4136 100.561 66.1133 101.352 65.7031C102.905 64.9121 104.289 63.8135 105.505 62.4072C106.721 61.001 107.563 59.5361 108.032 58.0127C108.295 57.1045 108.442 55.7861 108.471 54.0576C108.5 52.3291 108.383 51.0254 108.12 50.1465C107.827 49.2676 107.321 48.2642 106.604 47.1362C105.886 46.0083 105.175 45.1074 104.472 44.4336C103.71 43.7598 102.824 43.1445 101.813 42.5879C100.803 42.0312 99.7554 41.5918 98.6714 41.2695C98.3491 41.1816 98.0562 41.0938 97.7925 41.0059C97.5288 40.918 97.3677 40.8447 97.3091 40.7861C97.2798 40.7275 97.2139 40.5737 97.1113 40.3247C97.0088 40.0757 96.9136 39.79 96.8257 39.4678C96.4448 38.0908 95.771 36.7505 94.8042 35.4468C93.8374 34.1431 92.7534 33.0811 91.5522 32.2607C90.9956 31.8799 90.3364 31.5137 89.5747 31.1621C88.813 30.8105 88.0659 30.5469 87.3335 30.3711C86.7769 30.1953 86.3008 30.0928 85.9053 30.0635C85.5098 30.0342 84.7554 30.0195 83.6421 30.0195C82.4702 30.0195 81.7085 30.0342 81.3569 30.0635C81.0054 30.0928 80.5659 30.1953 80.0386 30.3711C79.7456 30.459 79.3867 30.5835 78.9619 30.7446C78.5371 30.9058 78.1929 31.0449 77.9292 31.1621C77.6655 31.2793 77.4238 31.3745 77.2041 31.4478C76.9844 31.521 76.8599 31.5576 76.8306 31.5576C76.772 31.5283 76.6768 31.4258 76.5449 31.25C76.4131 31.0742 76.2593 30.8838 76.0835 30.6787C75.0874 29.3896 74.0986 28.3423 73.1172 27.5366C72.1357 26.731 70.8833 25.9473 69.3599 25.1855C67.9243 24.4531 66.4888 23.9771 65.0532 23.7573C63.6177 23.5376 61.7573 23.4863 59.4722 23.6035ZM64.3501 28.2617C65.8442 28.6133 67.1992 29.1626 68.415 29.9097C69.6309 30.6567 70.7222 31.6016 71.689 32.7441C72.187 33.3301 72.6338 33.9746 73.0293 34.6777C73.4248 35.3809 73.8276 36.2158 74.2378 37.1826C74.4136 37.6514 74.582 38.0615 74.7432 38.4131C74.9043 38.7646 75.0142 38.9697 75.0728 39.0283C75.1606 39.0869 75.2998 39.043 75.4902 38.8965C75.6807 38.75 76.0249 38.4277 76.5229 37.9297C77.3433 37.168 78.0098 36.5894 78.5225 36.1938C79.0352 35.7983 79.5991 35.4688 80.2144 35.2051C80.8589 34.9121 81.4155 34.7144 81.8843 34.6118C82.353 34.5093 82.9536 34.458 83.686 34.458C84.9165 34.458 86.0811 34.6851 87.1797 35.1392C88.2783 35.5933 89.2671 36.2598 90.146 37.1387C90.5854 37.5781 90.9004 37.937 91.0908 38.2153C91.2812 38.4937 91.4937 38.8525 91.728 39.292C92.021 39.9658 92.2407 40.6543 92.3872 41.3574C92.5337 42.0605 92.6069 42.8516 92.6069 43.7305C92.6069 44.1699 92.6216 44.5142 92.6509 44.7632C92.6802 45.0122 92.7241 45.1514 92.7827 45.1807C92.8413 45.2393 93.0684 45.2832 93.4639 45.3125C93.8594 45.3418 94.3208 45.3711 94.8481 45.4004C95.6099 45.4297 96.1738 45.4663 96.54 45.5103C96.9062 45.5542 97.3091 45.6494 97.7485 45.7959C99.5942 46.3818 101.081 47.4219 102.209 48.916C103.337 50.4102 103.901 52.0801 103.901 53.9258C103.901 54.6875 103.828 55.3613 103.681 55.9473C103.535 56.5332 103.286 57.1631 102.934 57.8369C102.26 59.1553 101.293 60.2319 100.034 61.0669C98.7739 61.9019 97.3677 62.4072 95.8149 62.583C95.6099 62.6123 94.9507 62.6416 93.8374 62.6709C92.7534 62.6709 91.1421 62.6709 89.0034 62.6709C86.8647 62.6709 84.1987 62.6709 81.0054 62.6709C77.7827 62.6709 73.9448 62.6562 69.4917 62.627C63.5444 62.627 58.8716 62.6123 55.4731 62.583C52.104 62.583 49.5625 62.5684 47.8486 62.5391C46.1348 62.5098 45.0288 62.4805 44.5308 62.4512C44.0034 62.4219 43.6372 62.3779 43.4321 62.3193C41.8501 61.9092 40.4658 61.1035 39.2793 59.9023C38.0928 58.7012 37.3237 57.3242 36.9722 55.7715C36.7671 54.7754 36.7524 53.7354 36.9282 52.6514C37.104 51.5674 37.4556 50.5713 37.9829 49.6631C38.3345 49.0771 38.8398 48.4692 39.499 47.8394C40.1582 47.2095 40.7954 46.7334 41.4106 46.4111C42.231 46.001 42.9854 45.7227 43.6738 45.5762C44.3623 45.4297 45.2925 45.3564 46.4644 45.3564C47.2847 45.3564 47.8267 45.3418 48.0903 45.3125C48.354 45.2832 48.5005 45.2393 48.5298 45.1807C48.5591 45.1221 48.5591 44.9536 48.5298 44.6753C48.5005 44.397 48.4565 44.0967 48.3979 43.7744C48.1636 42.3975 48.0684 41.2036 48.1123 40.1929C48.1562 39.1821 48.3394 38.1641 48.6616 37.1387C49.0425 35.9375 49.5845 34.8242 50.2876 33.7988C51.02 32.7734 51.8623 31.8579 52.8145 31.0522C53.7666 30.2466 54.8286 29.5801 56.0005 29.0527C57.1431 28.5254 58.3442 28.1738 59.604 27.998C60.2192 27.9102 61.0103 27.8955 61.9771 27.9541C62.9438 28.0127 63.7349 28.1152 64.3501 28.2617Z" fill="black"/>
</g>
<path d="M57.4887 106.295L59.1938 106.726C58.8364 108.126 58.1918 109.195 57.2602 109.934C56.3344 110.666 55.2006 111.032 53.8588 111.032C52.4701 111.032 51.3393 110.751 50.4662 110.188C49.5991 109.62 48.9369 108.8 48.4799 107.728C48.0287 106.655 47.8032 105.504 47.8032 104.273C47.8032 102.932 48.058 101.763 48.5678 100.767C49.0834 99.7646 49.8129 99.0059 50.7563 98.4902C51.7055 97.9688 52.7485 97.708 53.8852 97.708C55.1742 97.708 56.2582 98.0361 57.1371 98.6924C58.016 99.3486 58.6283 100.271 58.9741 101.461L57.2953 101.856C56.9965 100.919 56.5629 100.236 55.9946 99.8086C55.4262 99.3809 54.7114 99.167 53.85 99.167C52.8598 99.167 52.0307 99.4043 51.3627 99.8789C50.7006 100.354 50.2348 100.992 49.9653 101.795C49.6957 102.592 49.561 103.415 49.561 104.265C49.561 105.36 49.7192 106.318 50.0356 107.139C50.3578 107.953 50.8559 108.562 51.5297 108.967C52.2035 109.371 52.933 109.573 53.7182 109.573C54.6733 109.573 55.4819 109.298 56.144 108.747C56.8061 108.196 57.2543 107.379 57.4887 106.295ZM61.0658 110.812V97.9277H62.6479V110.812H61.0658ZM64.52 106.146C64.52 104.417 65.0004 103.137 65.9614 102.305C66.7641 101.613 67.7426 101.268 68.8969 101.268C70.1801 101.268 71.2289 101.689 72.0434 102.533C72.8578 103.371 73.2651 104.531 73.2651 106.014C73.2651 107.215 73.0834 108.161 72.7201 108.853C72.3627 109.538 71.8383 110.071 71.1469 110.452C70.4614 110.833 69.7114 111.023 68.8969 111.023C67.5903 111.023 66.5326 110.604 65.7241 109.767C64.9213 108.929 64.52 107.722 64.52 106.146ZM66.1459 106.146C66.1459 107.341 66.4067 108.237 66.9282 108.835C67.4496 109.427 68.1059 109.723 68.8969 109.723C69.6821 109.723 70.3354 109.424 70.8569 108.826C71.3783 108.229 71.6391 107.317 71.6391 106.093C71.6391 104.938 71.3754 104.065 70.8481 103.474C70.3266 102.876 69.6762 102.577 68.8969 102.577C68.1059 102.577 67.4496 102.873 66.9282 103.465C66.4067 104.057 66.1459 104.95 66.1459 106.146ZM81.2455 110.812V109.441C80.519 110.496 79.5317 111.023 78.2836 111.023C77.7328 111.023 77.2172 110.918 76.7367 110.707C76.2621 110.496 75.9076 110.232 75.6733 109.916C75.4448 109.594 75.2836 109.201 75.1899 108.738C75.1254 108.428 75.0932 107.936 75.0932 107.262V101.479H76.6752V106.655C76.6752 107.481 76.7075 108.038 76.7719 108.325C76.8715 108.741 77.0825 109.069 77.4047 109.31C77.727 109.544 78.1254 109.661 78.6 109.661C79.0746 109.661 79.52 109.541 79.936 109.301C80.352 109.055 80.645 108.724 80.8149 108.308C80.9907 107.886 81.0785 107.276 81.0785 106.479V101.479H82.6606V110.812H81.2455ZM91.2035 110.812V109.635C90.6117 110.561 89.7416 111.023 88.5932 111.023C87.8491 111.023 87.1635 110.818 86.5366 110.408C85.9155 109.998 85.4321 109.427 85.0864 108.694C84.7465 107.956 84.5766 107.109 84.5766 106.154C84.5766 105.223 84.7319 104.379 85.0424 103.623C85.353 102.861 85.8188 102.278 86.4399 101.874C87.061 101.47 87.7553 101.268 88.5229 101.268C89.0854 101.268 89.5864 101.388 90.0258 101.628C90.4653 101.862 90.8227 102.17 91.0981 102.551V97.9277H92.6713V110.812H91.2035ZM86.2026 106.154C86.2026 107.35 86.4545 108.243 86.9584 108.835C87.4623 109.427 88.0571 109.723 88.7426 109.723C89.434 109.723 90.02 109.441 90.5004 108.879C90.9867 108.311 91.2299 107.446 91.2299 106.286C91.2299 105.009 90.9838 104.071 90.4916 103.474C89.9994 102.876 89.393 102.577 88.6723 102.577C87.9692 102.577 87.3803 102.864 86.9057 103.438C86.4369 104.013 86.2026 104.918 86.2026 106.154Z" fill="black"/>
<defs>
<clipPath id="clip0_320_2327">
<rect width="77.75" height="45" fill="white" transform="matrix(1 0 0 -1 31.4736 67.8125)"/>
</clipPath>
</defs>
</svg>
