<svg width="141" height="135" viewBox="0 0 141 135" fill="none" xmlns="http://www.w3.org/2000/svg">
<g clip-path="url(#clip0_320_2316)">
<path d="M57.2336 18.3984C56.7258 18.4375 56.3352 18.4961 56.0618 18.5742C55.7883 18.6523 55.4172 18.8086 54.9485 19.043C54.1672 19.4727 53.5325 19.9902 53.0442 20.5957C52.5559 21.2012 52.2141 21.8945 52.0188 22.6758C51.9407 22.9492 51.8918 24.1602 51.8723 26.3086C51.8528 28.457 51.843 35.6055 51.843 47.7539V72.3633L52.0188 73.0078C52.0969 73.2812 52.1653 73.5059 52.2239 73.6816C52.2825 73.8574 52.3899 74.0625 52.5461 74.2969C53.0149 75.0781 53.6008 75.7129 54.304 76.2012C55.0071 76.6895 55.8079 77.0117 56.7063 77.168C56.9797 77.207 57.9075 77.2363 59.4895 77.2559C61.0715 77.2754 64.9485 77.2852 71.1204 77.2852C78.8547 77.2461 83.2395 77.2168 84.2747 77.1973C85.3098 77.1777 86.0813 77.0312 86.5891 76.7578C87.4875 76.2891 88.2102 75.752 88.7571 75.1465C89.304 74.541 89.6946 73.8281 89.929 73.0078C89.968 72.7734 89.9973 71.543 90.0168 69.3164C90.0364 67.0898 90.0461 60.0781 90.0461 48.2812C90.0461 44.9219 90.0461 41.7578 90.0461 38.7891C90.0461 35.8203 90.0364 33.2129 90.0168 30.9668C89.9973 28.7207 89.9875 26.9336 89.9875 25.6055C89.9875 24.2773 89.9875 23.5742 89.9875 23.4961C89.9875 22.9492 89.9192 22.4902 89.7825 22.1191C89.6458 21.748 89.4016 21.3281 89.05 20.8594C88.5422 20.1562 87.9856 19.6191 87.3801 19.248C86.7747 18.877 86.1008 18.6133 85.3586 18.457C85.1633 18.457 84.1086 18.4473 82.1946 18.4277C80.2805 18.4082 76.7063 18.3984 71.4719 18.3984C67.8 18.3984 64.5676 18.3984 61.7747 18.3984C58.9817 18.3984 57.468 18.3984 57.2336 18.3984ZM60.5149 21.6797C60.6711 21.7969 60.8274 21.9336 60.9836 22.0898C61.1399 22.2461 61.2375 22.4023 61.2766 22.5586C61.3547 22.832 61.4329 23.0273 61.511 23.1445C61.5891 23.2617 61.7063 23.3594 61.8625 23.4375L62.1555 23.6133H79.6165L79.9094 23.4961C80.1047 23.3789 80.2805 23.2324 80.4368 23.0566C80.593 22.8809 80.6907 22.6562 80.7297 22.3828C80.8079 22.1875 80.925 22.002 81.0813 21.8262C81.2375 21.6504 81.3743 21.5625 81.4915 21.5625C82.0774 21.5625 82.6926 21.5723 83.3372 21.5918C83.9817 21.6113 84.343 21.6406 84.4211 21.6797C84.8899 21.7969 85.3 22.0215 85.6516 22.3535C86.0032 22.6855 86.2571 23.0859 86.4133 23.5547C86.4524 23.7109 86.4719 25.0879 86.4719 27.6855C86.4719 30.2832 86.4719 37.0312 86.4719 47.9297V71.9531L86.2961 72.3047C86.1399 72.6953 85.9348 73.0176 85.6809 73.2715C85.427 73.5254 85.1047 73.7305 84.7141 73.8867L84.2454 74.0039L71.1204 74.0625C63.9719 74.0625 59.8997 74.0527 58.9036 74.0332C57.9075 74.0137 57.2141 73.8867 56.8235 73.6523C56.5891 73.5352 56.384 73.3984 56.2083 73.2422C56.0325 73.0859 55.886 72.8906 55.7688 72.6562C55.5735 72.3047 55.4661 71.2891 55.4465 69.6094C55.427 67.9297 55.4172 60.6836 55.4172 47.8711C55.4172 37.1289 55.427 30.459 55.4465 27.8613C55.4661 25.2637 55.4954 23.8867 55.5344 23.7305C55.6516 23.3008 55.8372 22.9199 56.0911 22.5879C56.345 22.2559 56.6672 22.0117 57.0579 21.8555C57.3313 21.6992 57.6145 21.6016 57.9075 21.5625C58.2004 21.5234 58.6399 21.5234 59.2258 21.5625C59.6555 21.5625 59.9485 21.5723 60.1047 21.5918C60.261 21.6113 60.3977 21.6406 60.5149 21.6797ZM70.3 61.582C69.5579 61.7773 68.9719 62.1582 68.5422 62.7246C68.1125 63.291 67.8977 63.9648 67.8977 64.7461C67.8977 65.3711 68.054 65.9375 68.3665 66.4453C68.679 66.9531 69.1086 67.3438 69.6555 67.6172C70.8274 68.2031 71.9407 68.1152 72.9954 67.3535C74.05 66.5918 74.4993 65.5664 74.343 64.2773C74.2258 63.6133 73.9524 63.0371 73.5227 62.5488C73.093 62.0605 72.5657 61.7383 71.9407 61.582C71.7063 61.5039 71.4231 61.4648 71.0911 61.4648C70.759 61.4648 70.4954 61.5039 70.3 61.582Z" fill="black"/>
</g>
<path d="M53.0241 112.812V99.9277H57.4625C58.4645 99.9277 59.2292 99.9893 59.7565 100.112C60.4948 100.282 61.1247 100.59 61.6461 101.035C62.3258 101.609 62.8327 102.345 63.1667 103.241C63.5065 104.132 63.6764 105.151 63.6764 106.3C63.6764 107.278 63.5622 108.146 63.3336 108.901C63.1051 109.657 62.8122 110.284 62.4547 110.782C62.0973 111.274 61.7047 111.664 61.277 111.951C60.8551 112.232 60.3424 112.446 59.7389 112.593C59.1413 112.739 58.4528 112.812 57.6735 112.812H53.0241ZM54.7292 111.292H57.4801C58.3297 111.292 58.9948 111.213 59.4752 111.055C59.9616 110.896 60.3483 110.674 60.6354 110.387C61.0397 109.982 61.3532 109.44 61.5758 108.761C61.8043 108.075 61.9186 107.246 61.9186 106.273C61.9186 104.926 61.6959 103.892 61.2506 103.171C60.8112 102.444 60.275 101.958 59.6422 101.712C59.1852 101.536 58.4499 101.448 57.4362 101.448H54.7292V111.292ZM71.9206 111.661C71.3346 112.159 70.7692 112.511 70.2243 112.716C69.6852 112.921 69.1051 113.023 68.484 113.023C67.4586 113.023 66.6706 112.774 66.1198 112.276C65.569 111.772 65.2936 111.131 65.2936 110.352C65.2936 109.895 65.3961 109.479 65.6012 109.104C65.8122 108.723 66.0846 108.418 66.4186 108.189C66.7584 107.961 67.1393 107.788 67.5612 107.671C67.8717 107.589 68.3405 107.51 68.9674 107.434C70.2448 107.281 71.1852 107.1 71.7887 106.889C71.7946 106.672 71.7975 106.534 71.7975 106.476C71.7975 105.831 71.6481 105.377 71.3493 105.113C70.945 104.756 70.3444 104.577 69.5475 104.577C68.8034 104.577 68.2526 104.709 67.8952 104.973C67.5436 105.23 67.2829 105.69 67.1129 106.353L65.5661 106.142C65.7067 105.479 65.9381 104.946 66.2604 104.542C66.5827 104.132 67.0485 103.818 67.6579 103.602C68.2672 103.379 68.9733 103.268 69.776 103.268C70.5729 103.268 71.2204 103.361 71.7184 103.549C72.2165 103.736 72.5827 103.974 72.817 104.261C73.0514 104.542 73.2155 104.899 73.3092 105.333C73.362 105.603 73.3883 106.089 73.3883 106.792V108.901C73.3883 110.372 73.4206 111.304 73.485 111.696C73.5553 112.083 73.6901 112.455 73.8893 112.812H72.237C72.0729 112.484 71.9674 112.101 71.9206 111.661ZM71.7887 108.128C71.2145 108.362 70.3532 108.562 69.2047 108.726C68.5543 108.819 68.0944 108.925 67.8249 109.042C67.5553 109.159 67.3473 109.332 67.2008 109.561C67.0543 109.783 66.9811 110.032 66.9811 110.308C66.9811 110.729 67.1393 111.081 67.4557 111.362C67.778 111.644 68.2467 111.784 68.862 111.784C69.4713 111.784 70.0133 111.652 70.4879 111.389C70.9625 111.119 71.3112 110.753 71.5338 110.29C71.7038 109.933 71.7887 109.405 71.7887 108.708V108.128ZM79.3034 111.397L79.5319 112.795C79.0866 112.889 78.6881 112.936 78.3366 112.936C77.7624 112.936 77.317 112.845 77.0006 112.663C76.6842 112.481 76.4616 112.244 76.3327 111.951C76.2038 111.652 76.1393 111.028 76.1393 110.079V104.709H74.9792V103.479H76.1393V101.167L77.7125 100.218V103.479H79.3034V104.709H77.7125V110.167C77.7125 110.618 77.7389 110.908 77.7917 111.037C77.8502 111.166 77.9411 111.269 78.0641 111.345C78.193 111.421 78.3747 111.459 78.609 111.459C78.7848 111.459 79.0163 111.438 79.3034 111.397ZM86.9499 111.661C86.3639 112.159 85.7985 112.511 85.2536 112.716C84.7145 112.921 84.1344 113.023 83.5133 113.023C82.4879 113.023 81.6999 112.774 81.1491 112.276C80.5983 111.772 80.3229 111.131 80.3229 110.352C80.3229 109.895 80.4254 109.479 80.6305 109.104C80.8415 108.723 81.1139 108.418 81.4479 108.189C81.7877 107.961 82.1686 107.788 82.5905 107.671C82.901 107.589 83.3698 107.51 83.9967 107.434C85.2741 107.281 86.2145 107.1 86.818 106.889C86.8239 106.672 86.8268 106.534 86.8268 106.476C86.8268 105.831 86.6774 105.377 86.3786 105.113C85.9743 104.756 85.3737 104.577 84.5768 104.577C83.8327 104.577 83.2819 104.709 82.9245 104.973C82.5729 105.23 82.3122 105.69 82.1422 106.353L80.5954 106.142C80.736 105.479 80.9674 104.946 81.2897 104.542C81.612 104.132 82.0778 103.818 82.6872 103.602C83.2965 103.379 84.0026 103.268 84.8053 103.268C85.6022 103.268 86.2497 103.361 86.7477 103.549C87.2458 103.736 87.612 103.974 87.8463 104.261C88.0807 104.542 88.2448 104.899 88.3385 105.333C88.3913 105.603 88.4176 106.089 88.4176 106.792V108.901C88.4176 110.372 88.4499 111.304 88.5143 111.696C88.5846 112.083 88.7194 112.455 88.9186 112.812H87.2663C87.1022 112.484 86.9967 112.101 86.9499 111.661ZM86.818 108.128C86.2438 108.362 85.3825 108.562 84.234 108.726C83.5836 108.819 83.1237 108.925 82.8542 109.042C82.5846 109.159 82.3766 109.332 82.2301 109.561C82.0836 109.783 82.0104 110.032 82.0104 110.308C82.0104 110.729 82.1686 111.081 82.485 111.362C82.8073 111.644 83.276 111.784 83.8913 111.784C84.5006 111.784 85.0426 111.652 85.5172 111.389C85.9918 111.119 86.3405 110.753 86.5631 110.29C86.7331 109.933 86.818 109.405 86.818 108.708V108.128Z" fill="black"/>
<defs>
<clipPath id="clip0_320_2316">
<rect width="40.38" height="60" fill="white" transform="matrix(1 0 0 -1 50.3738 77.8125)"/>
</clipPath>
</defs>
</svg>
