<svg width="41" height="61" viewBox="0 0 41 61" fill="none" xmlns="http://www.w3.org/2000/svg">
<g clip-path="url(#clip0_320_2318)">
<path d="M7.23364 1.39844C6.72583 1.4375 6.33521 1.49609 6.06177 1.57422C5.78833 1.65234 5.41724 1.80859 4.94849 2.04297C4.16724 2.47266 3.53247 2.99023 3.04419 3.5957C2.55591 4.20117 2.21411 4.89453 2.0188 5.67578C1.94067 5.94922 1.89185 7.16016 1.87231 9.30859C1.85278 11.457 1.84302 18.6055 1.84302 30.7539V55.3633L2.0188 56.0078C2.09692 56.2812 2.16528 56.5059 2.22388 56.6816C2.28247 56.8574 2.38989 57.0625 2.54614 57.2969C3.01489 58.0781 3.60083 58.7129 4.30396 59.2012C5.00708 59.6895 5.80786 60.0117 6.7063 60.168C6.97974 60.207 7.90747 60.2363 9.4895 60.2559C11.0715 60.2754 14.9485 60.2852 21.1204 60.2852C28.8547 60.2461 33.2395 60.2168 34.2747 60.1973C35.3098 60.1777 36.0813 60.0312 36.5891 59.7578C37.4875 59.2891 38.2102 58.752 38.7571 58.1465C39.304 57.541 39.6946 56.8281 39.929 56.0078C39.968 55.7734 39.9973 54.543 40.0168 52.3164C40.0364 50.0898 40.0461 43.0781 40.0461 31.2812C40.0461 27.9219 40.0461 24.7578 40.0461 21.7891C40.0461 18.8203 40.0364 16.2129 40.0168 13.9668C39.9973 11.7207 39.9875 9.93359 39.9875 8.60547C39.9875 7.27734 39.9875 6.57422 39.9875 6.49609C39.9875 5.94922 39.9192 5.49023 39.7825 5.11914C39.6458 4.74805 39.4016 4.32812 39.05 3.85938C38.5422 3.15625 37.9856 2.61914 37.3801 2.24805C36.7747 1.87695 36.1008 1.61328 35.3586 1.45703C35.1633 1.45703 34.1086 1.44727 32.1946 1.42773C30.2805 1.4082 26.7063 1.39844 21.4719 1.39844C17.8 1.39844 14.5676 1.39844 11.7747 1.39844C8.98169 1.39844 7.46802 1.39844 7.23364 1.39844ZM10.5149 4.67969C10.6711 4.79688 10.8274 4.93359 10.9836 5.08984C11.1399 5.24609 11.2375 5.40234 11.2766 5.55859C11.3547 5.83203 11.4329 6.02734 11.511 6.14453C11.5891 6.26172 11.7063 6.35938 11.8625 6.4375L12.1555 6.61328H29.6165L29.9094 6.49609C30.1047 6.37891 30.2805 6.23242 30.4368 6.05664C30.593 5.88086 30.6907 5.65625 30.7297 5.38281C30.8079 5.1875 30.925 5.00195 31.0813 4.82617C31.2375 4.65039 31.3743 4.5625 31.4915 4.5625C32.0774 4.5625 32.6926 4.57227 33.3372 4.5918C33.9817 4.61133 34.343 4.64062 34.4211 4.67969C34.8899 4.79688 35.3 5.02148 35.6516 5.35352C36.0032 5.68555 36.2571 6.08594 36.4133 6.55469C36.4524 6.71094 36.4719 8.08789 36.4719 10.6855C36.4719 13.2832 36.4719 20.0312 36.4719 30.9297V54.9531L36.2961 55.3047C36.1399 55.6953 35.9348 56.0176 35.6809 56.2715C35.427 56.5254 35.1047 56.7305 34.7141 56.8867L34.2454 57.0039L21.1204 57.0625C13.9719 57.0625 9.89966 57.0527 8.90356 57.0332C7.90747 57.0137 7.21411 56.8867 6.82349 56.6523C6.58911 56.5352 6.38403 56.3984 6.20825 56.2422C6.03247 56.0859 5.88599 55.8906 5.7688 55.6562C5.57349 55.3047 5.46606 54.2891 5.44653 52.6094C5.427 50.9297 5.41724 43.6836 5.41724 30.8711C5.41724 20.1289 5.427 13.459 5.44653 10.8613C5.46606 8.26367 5.49536 6.88672 5.53442 6.73047C5.65161 6.30078 5.83716 5.91992 6.09106 5.58789C6.34497 5.25586 6.66724 5.01172 7.05786 4.85547C7.3313 4.69922 7.6145 4.60156 7.90747 4.5625C8.20044 4.52344 8.63989 4.52344 9.22583 4.5625C9.65552 4.5625 9.94849 4.57227 10.1047 4.5918C10.261 4.61133 10.3977 4.64062 10.5149 4.67969ZM20.3 44.582C19.5579 44.7773 18.9719 45.1582 18.5422 45.7246C18.1125 46.291 17.8977 46.9648 17.8977 47.7461C17.8977 48.3711 18.054 48.9375 18.3665 49.4453C18.679 49.9531 19.1086 50.3438 19.6555 50.6172C20.8274 51.2031 21.9407 51.1152 22.9954 50.3535C24.05 49.5918 24.4993 48.5664 24.343 47.2773C24.2258 46.6133 23.9524 46.0371 23.5227 45.5488C23.093 45.0605 22.5657 44.7383 21.9407 44.582C21.7063 44.5039 21.4231 44.4648 21.0911 44.4648C20.759 44.4648 20.4954 44.5039 20.3 44.582Z" fill="black"/>
</g>
<defs>
<clipPath id="clip0_320_2318">
<rect width="40.38" height="60" fill="white" transform="matrix(1 0 0 -1 0.373779 60.8125)"/>
</clipPath>
</defs>
</svg>
