<svg width="58" height="61" viewBox="0 0 58 61" fill="none" xmlns="http://www.w3.org/2000/svg">
<g clip-path="url(#clip0_320_2308)">
<path d="M37.978 0.871094C36.1812 1.02734 34.4233 1.42773 32.7046 2.07227C30.9858 2.7168 29.3647 3.60547 27.8413 4.73828C27.2944 5.12891 26.6108 5.73438 25.7905 6.55469C24.9702 7.375 24.3843 8.05859 24.0327 8.60547C23.8374 8.87891 23.6421 9.16211 23.4468 9.45508C23.2515 9.74805 23.0757 10.0508 22.9194 10.3633L22.8608 10.4805C22.5874 10.9102 22.4214 11.2129 22.3628 11.3887C22.3042 11.5645 22.2749 11.7695 22.2749 12.0039C22.2749 12.3164 22.353 12.6094 22.5093 12.8828C22.6655 13.1562 22.8804 13.3711 23.1538 13.5273C23.3101 13.6055 23.4565 13.6543 23.5933 13.6738C23.73 13.6934 23.9155 13.7031 24.1499 13.7031C24.5405 13.6641 24.853 13.5566 25.0874 13.3809C25.3218 13.2051 25.5562 12.8828 25.7905 12.4141C26.3374 11.4766 27.0308 10.5391 27.8706 9.60156C28.7104 8.66406 29.5601 7.90234 30.4194 7.31641C31.3569 6.61328 32.3726 6.03711 33.4663 5.58789C34.5601 5.13867 35.6538 4.81641 36.7476 4.62109C37.5288 4.50391 38.4175 4.44531 39.4136 4.44531C40.4097 4.44531 41.2983 4.50391 42.0796 4.62109C44.3452 5.01172 46.4155 5.86133 48.2905 7.16992C50.1655 8.47852 51.689 10.1289 52.8608 12.1211C53.1733 12.6289 53.3979 12.9805 53.5347 13.1758C53.6714 13.3711 53.8569 13.5078 54.0913 13.5859C54.2866 13.6641 54.5503 13.7031 54.8823 13.7031C55.2144 13.7031 55.4585 13.6641 55.6147 13.5859C55.771 13.4688 55.937 13.3223 56.1128 13.1465C56.2886 12.9707 56.4155 12.8047 56.4937 12.6484C56.5718 12.4141 56.6011 12.1504 56.5815 11.8574C56.562 11.5645 56.4937 11.3203 56.3765 11.125C55.2046 8.78125 53.5347 6.75 51.3667 5.03125C49.1987 3.3125 46.8257 2.12109 44.2476 1.45703C43.3101 1.18359 42.2749 0.998047 41.1421 0.900391C40.0093 0.802734 38.9546 0.792969 37.978 0.871094ZM38.271 10.3047C36.3569 10.6172 34.6968 11.3398 33.2905 12.4727C31.8843 13.6055 30.8882 15.0508 30.3022 16.8086C30.2241 17.082 30.1753 17.2773 30.1558 17.3945C30.1362 17.5117 30.1655 17.6875 30.2437 17.9219C30.3608 18.3906 30.6147 18.752 31.0054 19.0059C31.396 19.2598 31.8452 19.3281 32.353 19.2109C32.5874 19.1719 32.8022 19.084 32.9976 18.9473C33.1929 18.8105 33.3296 18.6445 33.4077 18.4492C33.4468 18.4102 33.5249 18.2734 33.6421 18.0391C33.7593 17.8047 33.8765 17.5508 33.9937 17.2773C34.6577 15.8711 35.7026 14.8848 37.1284 14.3184C38.5542 13.752 40.0093 13.7227 41.4937 14.2305C42.314 14.5039 43.0366 14.9531 43.6616 15.5781C44.2866 16.2031 44.7749 16.9258 45.1265 17.7461C45.2827 18.1367 45.4292 18.4297 45.5659 18.625C45.7026 18.8203 45.8687 18.957 46.064 19.0352C46.4937 19.2695 46.9233 19.3379 47.353 19.2402C47.7827 19.1426 48.1147 18.918 48.3491 18.5664C48.6226 18.1758 48.7397 17.7656 48.7007 17.3359C48.6616 16.9062 48.4272 16.3008 47.9976 15.5195C47.3726 14.2695 46.5229 13.2148 45.4487 12.3555C44.3745 11.4961 43.1733 10.8906 41.8452 10.5391H41.728C41.3765 10.4609 40.8003 10.3926 39.9995 10.334C39.1987 10.2754 38.6226 10.2656 38.271 10.3047ZM38.7397 22.9609C38.5054 23.0781 38.3003 23.2344 38.1245 23.4297C37.9487 23.625 37.8218 23.8398 37.7437 24.0742C37.7437 24.1914 37.7339 24.7773 37.7144 25.832C37.6948 26.8867 37.6851 28.332 37.6851 30.168V35.8516L2.06006 35.9102L1.6499 36.1445C1.37646 36.3008 1.17139 36.4668 1.03467 36.6426C0.897949 36.8184 0.751465 37.043 0.595215 37.3164L0.36084 37.7266V58.7617L0.595215 59.1133C0.712402 59.3477 0.907715 59.5918 1.18115 59.8457C1.45459 60.0996 1.7085 60.2852 1.94287 60.4023C2.09912 60.4805 3.45654 60.5293 6.01514 60.5488C8.57373 60.5684 15.5171 60.5781 26.8452 60.5781H51.4546L51.9233 60.3438C52.0405 60.2656 52.187 60.1582 52.3628 60.0215C52.5386 59.8848 52.6851 59.7578 52.8022 59.6406C53.1147 59.25 53.3003 58.6445 53.3589 57.8242C53.4175 57.0039 53.4272 53.7227 53.3882 47.9805V37.7266L53.0952 37.1992C52.978 37.0039 52.8511 36.8379 52.7144 36.7012C52.5776 36.5645 52.4116 36.4375 52.2163 36.3203L51.689 35.9102L41.3179 35.8516L41.2593 29.9922C41.2593 27.3359 41.2495 25.666 41.23 24.9824C41.2104 24.2988 41.1616 23.8984 41.0835 23.7812C40.8491 23.3516 40.5073 23.0586 40.0581 22.9023C39.6089 22.7461 39.1694 22.7656 38.7397 22.9609ZM50.7515 48.2148V57.9414H2.99756V38.5469H50.7515V48.2148ZM12.5483 45.1094C12.1187 45.2266 11.7085 45.4414 11.3179 45.7539C10.9272 46.0664 10.6343 46.4375 10.439 46.8672C10.3608 47.0234 10.3022 47.1895 10.2632 47.3652C10.2241 47.541 10.1851 47.7852 10.146 48.0977C10.146 48.5273 10.1558 48.8105 10.1753 48.9473C10.1948 49.084 10.2827 49.2891 10.439 49.5625C10.5952 49.9141 10.8003 50.2168 11.0542 50.4707C11.3081 50.7246 11.6108 50.9297 11.9624 51.0859C12.1577 51.1641 12.3335 51.2227 12.4897 51.2617C12.646 51.3008 12.8999 51.3203 13.2515 51.3203C13.6421 51.3203 13.9155 51.3008 14.0718 51.2617C14.228 51.2227 14.4429 51.125 14.7163 50.9688C15.3022 50.6562 15.7319 50.2461 16.0054 49.7383C16.2788 49.2305 16.396 48.6445 16.3569 47.9805C16.3179 47.5508 16.2202 47.1699 16.064 46.8379C15.9077 46.5059 15.6538 46.1836 15.3022 45.8711C14.9507 45.5586 14.5308 45.334 14.0425 45.1973C13.5542 45.0605 13.0562 45.0312 12.5483 45.1094ZM22.0405 45.1094C21.6108 45.2266 21.1909 45.4414 20.7808 45.7539C20.3706 46.0664 20.0679 46.4375 19.8726 46.8672C19.7944 47.0234 19.7358 47.1895 19.6968 47.3652C19.6577 47.541 19.6382 47.8242 19.6382 48.2148C19.6382 48.6836 19.6577 48.9863 19.6968 49.123C19.7358 49.2598 19.814 49.4453 19.9312 49.6797C20.0874 49.9922 20.2925 50.2656 20.5464 50.5C20.8003 50.7344 21.0835 50.9297 21.396 51.0859C21.5913 51.1641 21.7769 51.2227 21.9526 51.2617C22.1284 51.3008 22.3921 51.3203 22.7437 51.3203C23.1343 51.3203 23.3979 51.3008 23.5347 51.2617C23.6714 51.2227 23.896 51.125 24.2085 50.9688C24.5601 50.7734 24.8628 50.5195 25.1167 50.207C25.3706 49.8945 25.5562 49.5625 25.6733 49.2109C25.7905 48.8594 25.8296 48.4492 25.7905 47.9805C25.7515 47.5117 25.6538 47.1211 25.4976 46.8086C25.1851 46.1836 24.6968 45.7148 24.0327 45.4023C23.3687 45.0898 22.7046 44.9922 22.0405 45.1094Z" fill="black"/>
</g>
<defs>
<clipPath id="clip0_320_2308">
<rect width="57.31" height="60" fill="white" transform="matrix(1 0 0 -1 0.123779 60.8125)"/>
</clipPath>
</defs>
</svg>
