<svg width="32" height="32" viewBox="0 0 32 32" fill="none" xmlns="http://www.w3.org/2000/svg">
<g clip-path="url(#clip0_320_2549)">
<g clip-path="url(#clip1_320_2549)">
<g clip-path="url(#clip2_320_2549)">
<mask id="mask0_320_2549" style="mask-type:luminance" maskUnits="userSpaceOnUse" x="0" y="0" width="32" height="32">
<path d="M32 0H0V32H32V0Z" fill="white"/>
</mask>
<g mask="url(#mask0_320_2549)">
<path d="M30.6667 31.4067C30.6667 31.3334 30.8001 12.5534 30.5067 12.2267C30.4001 12.1134 30.1801 11.94 26.6801 9.10674C26.6801 5.00674 26.6801 5.2534 26.6267 5.10674C26.5734 4.96007 26.8534 5.2534 21.8201 0.220071C21.5201 -0.0865957 22.6668 7.09714e-05 6.0001 7.09714e-05C5.82329 7.09714e-05 5.65372 0.0703089 5.52869 0.195333C5.40367 0.320357 5.33343 0.489927 5.33343 0.666738V9.10674C1.33343 12.3534 1.46677 12.1867 1.3801 12.44C1.29343 12.6934 1.33343 13.16 1.33343 31.3334C1.33343 31.5102 1.40367 31.6798 1.5287 31.8048C1.65372 31.9298 1.82329 32.0001 2.0001 32.0001C31.0334 32.0001 30.5601 32.26 30.6667 31.4067ZM2.66677 14.0667L13.0868 22.5001L2.66677 30.0001V14.0667ZM14.1868 23.3334C14.7246 23.6892 15.3552 23.8789 16.0001 23.8789C16.645 23.8789 17.2756 23.6892 17.8134 23.3334L27.9401 30.6667H4.0601L14.1868 23.3334ZM18.9134 22.48L29.3334 14.0667V30.0001L18.9134 22.48ZM22.0001 2.2734L24.3934 4.66674H22.0001V2.2734ZM28.9401 12.6667L26.6667 14.5067V10.8267L28.9401 12.6667ZM20.6668 1.3334V5.3334C20.6668 5.51021 20.737 5.67978 20.862 5.80481C20.987 5.92983 21.1566 6.00007 21.3334 6.00007H25.3334V15.5867L17.2601 22.1267C16.9038 22.4158 16.4589 22.5735 16.0001 22.5735C15.5413 22.5735 15.0964 22.4158 14.7401 22.1267L6.66676 15.5867V1.3334H20.6668ZM5.33343 14.5067L3.0601 12.6667L5.33343 10.8267V14.5067Z" fill="#FFCC00"/>
<mask id="mask1_320_2549" style="mask-type:luminance" maskUnits="userSpaceOnUse" x="1" y="-1" width="30" height="34">
<path d="M30.6667 31.4067C30.6667 31.3334 30.8001 12.5534 30.5067 12.2267C30.4001 12.1134 30.1801 11.94 26.6801 9.10674C26.6801 5.00674 26.6801 5.2534 26.6267 5.10674C26.5734 4.96007 26.8534 5.2534 21.8201 0.220071C21.5201 -0.0865957 22.6668 7.09714e-05 6.0001 7.09714e-05C5.82329 7.09714e-05 5.65372 0.0703089 5.52869 0.195333C5.40367 0.320357 5.33343 0.489927 5.33343 0.666738V9.10674C1.33343 12.3534 1.46677 12.1867 1.3801 12.44C1.29343 12.6934 1.33343 13.16 1.33343 31.3334C1.33343 31.5102 1.40367 31.6798 1.5287 31.8048C1.65372 31.9298 1.82329 32.0001 2.0001 32.0001C31.0334 32.0001 30.5601 32.26 30.6667 31.4067ZM2.66677 14.0667L13.0868 22.5001L2.66677 30.0001V14.0667ZM14.1868 23.3334C14.7246 23.6892 15.3552 23.8789 16.0001 23.8789C16.645 23.8789 17.2756 23.6892 17.8134 23.3334L27.9401 30.6667H4.0601L14.1868 23.3334ZM18.9134 22.48L29.3334 14.0667V30.0001L18.9134 22.48ZM22.0001 2.2734L24.3934 4.66674H22.0001V2.2734ZM28.9401 12.6667L26.6667 14.5067V10.8267L28.9401 12.6667ZM20.6668 1.3334V5.3334C20.6668 5.51021 20.737 5.67978 20.862 5.80481C20.987 5.92983 21.1566 6.00007 21.3334 6.00007H25.3334V15.5867L17.2601 22.1267C16.9038 22.4158 16.4589 22.5735 16.0001 22.5735C15.5413 22.5735 15.0964 22.4158 14.7401 22.1267L6.66676 15.5867V1.3334H20.6668ZM5.33343 14.5067L3.0601 12.6667L5.33343 10.8267V14.5067Z" fill="white"/>
</mask>
<g mask="url(#mask1_320_2549)">
<path d="M30.6666 31.4069L34.6358 31.9031L34.6666 31.6559V31.4069H30.6666ZM30.5066 12.2269L33.4828 9.5544L33.4515 9.51955L33.4194 9.48544L30.5066 12.2269ZM26.68 9.1069H22.68V11.0152L24.1632 12.2159L26.68 9.1069ZM21.82 0.220228L18.9606 3.0174L18.976 3.03311L18.9916 3.04865L21.82 0.220228ZM5.33337 9.1069L7.85418 12.2126L9.33337 11.012V9.1069H5.33337ZM2.66671 14.0669L5.18316 10.9577L-1.33329 5.6836V14.0669H2.66671ZM13.0867 22.5003L15.4234 25.7467L19.675 22.6866L15.6031 19.391L13.0867 22.5003ZM2.66671 30.0003H-1.33329V37.8077L5.00343 33.2467L2.66671 30.0003ZM14.1867 23.3336L16.3936 19.9975L14.0837 18.4695L11.8406 20.0938L14.1867 23.3336ZM17.8133 23.3336L20.1594 20.0938L17.9163 18.4695L15.6064 19.9975L17.8133 23.3336ZM27.94 30.6669V34.6669H40.2835L30.2861 27.4272L27.94 30.6669ZM4.06004 30.6669L1.71395 27.4272L-8.28345 34.6669H4.06004V30.6669ZM18.9133 22.4802L16.4005 19.3681L12.3252 22.6586L16.5725 25.7238L18.9133 22.4802ZM29.3333 14.0669H33.3333V5.69611L26.8205 10.9547L29.3333 14.0669ZM29.3333 30.0003L26.9925 33.2438L33.3333 37.8199V30.0003H29.3333ZM22 2.27356L24.8284 -0.554864L18 -7.3833V2.27356H22ZM24.3933 4.6669V8.6669H34.0502L27.2217 1.83847L24.3933 4.6669ZM22 4.6669H18V8.6669H22V4.6669ZM28.94 12.6669L31.4565 15.7761L35.2979 12.6669L31.4565 9.55771L28.94 12.6669ZM26.6666 14.5069H22.6666V22.8905L29.1832 17.6161L26.6666 14.5069ZM26.6666 10.8269L29.1832 7.71771L22.6666 2.44332V10.8269H26.6666ZM20.6667 1.33356H24.6667V-2.66644H20.6667V1.33356ZM25.3333 6.00023H29.3333V2.00023H25.3333V6.00023ZM25.3333 15.5869L27.8511 18.6951L29.3333 17.4944V15.5869H25.3333ZM17.26 22.1269L14.7422 19.0188L14.74 19.0205L17.26 22.1269ZM14.74 22.1269L17.26 19.0205L17.2578 19.0188L14.74 22.1269ZM6.6667 15.5869H2.6667V17.4944L4.14888 18.6951L6.6667 15.5869ZM6.6667 1.33356V-2.66644H2.6667V1.33356H6.6667ZM5.33337 14.5069L2.81684 17.6161L9.33337 22.8905V14.5069H5.33337ZM3.06004 12.6669L0.54351 9.55771L-3.29792 12.6669L0.54351 15.7761L3.06004 12.6669ZM5.33337 10.8269H9.33337V2.44332L2.81684 7.71771L5.33337 10.8269ZM34.6666 31.4069C34.6666 31.5705 34.6999 26.5052 34.6966 21.9091C34.695 19.5317 34.6841 17.1267 34.6549 15.2877C34.6404 14.3737 34.6208 13.5667 34.5937 12.9627C34.5806 12.6693 34.5633 12.3683 34.538 12.1078C34.5263 11.9875 34.5052 11.7939 34.4661 11.5825C34.4476 11.4825 34.4091 11.2895 34.3372 11.0599C34.3159 10.9918 34.108 10.2506 33.4828 9.5544L27.5304 14.8994C26.9145 14.2134 26.7155 13.4914 26.703 13.4513C26.6398 13.2496 26.6099 13.0933 26.5997 13.0385C26.5773 12.9172 26.5722 12.8477 26.5756 12.8829C26.5805 12.9334 26.5905 13.0695 26.6018 13.321C26.6235 13.8068 26.6417 14.5212 26.6559 15.4149C26.6842 17.1913 26.695 19.5471 26.6966 21.9147C26.7001 26.8087 26.6666 31.17 26.6666 31.4069H34.6666ZM33.4194 9.48544C33.1339 9.18201 32.7707 8.89374 32.3907 8.58448C31.8795 8.16843 30.9411 7.41002 29.1968 5.99792L24.1632 12.2159C25.9188 13.6371 26.8405 14.382 27.3409 14.7893C27.5965 14.9974 27.7148 15.095 27.7714 15.1429C27.8293 15.192 27.725 15.1078 27.5938 14.9684L33.4194 9.48544ZM30.68 9.1069C30.68 7.07963 30.6801 6.07377 30.6729 5.56756C30.6702 5.37513 30.6661 5.04517 30.6281 4.73347C30.6005 4.50665 30.5483 4.21537 30.4387 3.88683C30.3935 3.75132 30.3496 3.64442 30.3448 3.63247C30.3343 3.60668 30.3602 3.66947 30.3858 3.73992L22.8675 6.47387C22.8998 6.56265 22.9319 6.64071 22.9273 6.62942C22.9271 6.62879 22.9243 6.62194 22.9206 6.61262C22.9167 6.60289 22.9109 6.58817 22.904 6.57004C22.8898 6.53294 22.8707 6.48116 22.8498 6.4186C22.7504 6.12066 22.707 5.8662 22.6868 5.70095C22.6639 5.51237 22.6698 5.4045 22.6737 5.68123C22.6799 6.11335 22.68 7.03416 22.68 9.1069H30.68ZM30.3858 3.73992C30.4365 3.8793 30.4801 4.03387 30.4554 3.95022C30.4339 3.8774 30.3683 3.65759 30.2461 3.39166C30.0156 2.88983 29.732 2.54626 29.632 2.42636C29.4433 2.20023 29.1843 1.9364 28.9398 1.68839C28.3603 1.10035 27.1524 -0.104176 24.6484 -2.6082L18.9916 3.04865C21.5209 5.57797 22.6896 6.74344 23.2418 7.30374C23.5632 7.62989 23.5588 7.63481 23.4899 7.55222C23.4497 7.50409 23.1923 7.20099 22.9764 6.73085C22.8615 6.48077 22.8003 6.27461 22.783 6.21607C22.7625 6.14669 22.8101 6.31615 22.8675 6.47387L30.3858 3.73992ZM24.6793 -2.57695C24.8674 -2.38465 24.9974 -2.20421 24.9768 -2.23175C24.9766 -2.232 24.9113 -2.32041 24.8281 -2.41995C24.7346 -2.532 24.598 -2.6841 24.4169 -2.84742C23.5771 -3.60498 22.6696 -3.80927 22.2716 -3.88067C21.6655 -3.98939 20.8603 -3.99755 20.0838 -4.00461C18.2267 -4.02148 14.2919 -3.99977 6.00004 -3.99977V4.00023C14.3747 4.00023 18.1999 3.97861 20.0111 3.99506C21.0688 4.00467 21.0748 4.03235 20.859 3.99363C20.6561 3.95723 19.8385 3.79648 19.0585 3.09288C18.7456 2.81068 18.5435 2.52391 18.5752 2.56619C18.5789 2.57107 18.735 2.78678 18.9606 3.0174L24.6793 -2.57695ZM6.00004 -3.99977C4.76236 -3.99977 3.57537 -3.5081 2.70021 -2.63293L8.35706 3.02392C7.73194 3.64904 6.88409 4.00023 6.00004 4.00023V-3.99977ZM2.70021 -2.63293C1.82504 -1.75777 1.33337 -0.570782 1.33337 0.666896H9.33337C9.33337 1.55095 8.98218 2.3988 8.35706 3.02392L2.70021 -2.63293ZM1.33337 0.666896V9.1069H9.33337V0.666896H1.33337ZM2.81256 6.00117C0.86106 7.58515 -0.168128 8.40586 -0.66359 8.81658C-0.849802 8.97094 -1.22378 9.2771 -1.53218 9.62787C-1.7512 9.87696 -1.99427 10.2065 -2.19713 10.6302C-2.34247 10.9338 -2.46271 11.3153 -2.40461 11.1455L5.1647 13.735C5.24446 13.5019 5.13901 13.8332 5.0186 14.0847C4.84065 14.4564 4.63263 14.732 4.47581 14.9103C4.35099 15.0523 4.25831 15.132 4.28066 15.112C4.29177 15.102 4.33571 15.0637 4.44201 14.9756C4.90155 14.5946 5.80569 13.8753 7.85418 12.2126L2.81256 6.00117ZM-2.40461 11.1455C-2.66 11.892 -2.65692 12.6001 -2.66273 12.8507C-2.67246 13.2694 -2.67538 13.9698 -2.67579 15.1655C-2.67662 17.5733 -2.66663 22.2708 -2.66663 31.3336H5.33337C5.33337 22.2231 5.32337 17.6005 5.32421 15.1683C5.32463 13.9441 5.32796 13.3444 5.33511 13.0364C5.34617 12.5603 5.37675 13.1151 5.1647 13.735L-2.40461 11.1455ZM-2.66663 31.3336C-2.66663 32.5713 -2.17496 33.7582 -1.29979 34.6334L4.35707 28.9766C4.98219 29.6017 5.33337 30.4495 5.33337 31.3336H-2.66663ZM-1.29979 34.6334C-0.424614 35.5086 0.762374 36.0003 2.00004 36.0003V28.0003C2.88409 28.0003 3.73194 28.3514 4.35707 28.9766L-1.29979 34.6334ZM2.00004 36.0003C16.4526 36.0003 23.6758 36.0653 27.2281 36.0233C28.8348 36.0043 30.1773 35.9708 31.1048 35.7617C31.5652 35.658 32.8958 35.3207 33.8352 34.0229C34.6463 32.9025 34.6903 31.4671 34.6358 31.9031L26.6975 30.9108C26.6164 31.5601 26.6518 30.3032 27.3549 29.3319C28.1864 28.1833 29.3097 27.9656 29.3458 27.9575C29.4248 27.9397 29.0509 28.0012 27.1335 28.0239C23.6375 28.0652 16.5807 28.0003 2.00004 28.0003V36.0003ZM0.150259 17.1762L10.5702 25.6095L15.6031 19.391L5.18316 10.9577L0.150259 17.1762ZM10.7499 19.2538L0.329982 26.7538L5.00343 33.2467L15.4234 25.7467L10.7499 19.2538ZM6.66671 30.0003V14.0669H-1.33329V30.0003H6.66671ZM11.9798 26.6697C13.1722 27.4585 14.5703 27.8791 16 27.8791V19.8791C16.14 19.8791 16.2768 19.9203 16.3936 19.9975L11.9798 26.6697ZM16 27.8791C17.4297 27.8791 18.8278 27.4585 20.0202 26.6697L15.6064 19.9975C15.7232 19.9203 15.86 19.8791 16 19.8791V27.8791ZM15.4672 26.5733L25.5939 33.9066L30.2861 27.4272L20.1594 20.0938L15.4672 26.5733ZM27.94 26.6669H4.06004V34.6669H27.94V26.6669ZM6.40613 33.9066L16.5327 26.5733L11.8406 20.0938L1.71395 27.4272L6.40613 33.9066ZM21.4262 25.5924L31.8462 17.1791L26.8205 10.9547L16.4005 19.3681L21.4262 25.5924ZM25.3333 14.0669V30.0003H33.3333V14.0669H25.3333ZM31.6741 26.7567L21.2541 19.2367L16.5725 25.7238L26.9925 33.2438L31.6741 26.7567ZM19.1716 5.10199L21.5649 7.49532L27.2217 1.83847L24.8284 -0.554864L19.1716 5.10199ZM24.3933 0.666896H22V8.6669H24.3933V0.666896ZM26 4.6669V2.27356H18V4.6669H26ZM26.4234 9.55771L24.1501 11.3977L29.1832 17.6161L31.4565 15.7761L26.4234 9.55771ZM30.6666 14.5069V10.8269H22.6666V14.5069H30.6666ZM24.1501 13.9361L26.4234 15.7761L31.4565 9.55771L29.1832 7.71771L24.1501 13.9361ZM16.6667 1.33356V5.33356H24.6667V1.33356H16.6667ZM16.6667 5.33356C16.6667 6.57123 17.1583 7.75822 18.0335 8.63339L23.6903 2.97654C24.3155 3.60167 24.6667 4.44952 24.6667 5.33356H16.6667ZM18.0335 8.63339C18.9087 9.50856 20.0956 10.0002 21.3333 10.0002V2.00023C22.2174 2.00023 23.0652 2.35142 23.6903 2.97654L18.0335 8.63339ZM21.3333 10.0002H25.3333V2.00023H21.3333V10.0002ZM21.3333 6.00023V15.5869H29.3333V6.00023H21.3333ZM22.8155 12.4788L14.7422 19.0188L19.7778 25.2351L27.8511 18.6951L22.8155 12.4788ZM14.74 19.0205C15.0963 18.7315 15.5412 18.5737 16 18.5737V26.5737C17.3764 26.5737 18.711 26.1005 19.78 25.2333L14.74 19.0205ZM16 18.5737C16.4588 18.5737 16.9037 18.7315 17.26 19.0205L12.22 25.2333C13.2889 26.1005 14.6235 26.5737 16 26.5737V18.5737ZM17.2578 19.0188L9.18453 12.4788L4.14888 18.6951L12.2222 25.2351L17.2578 19.0188ZM10.6667 15.5869V1.33356H2.6667V15.5869H10.6667ZM6.6667 5.33356H20.6667V-2.66644H6.6667V5.33356ZM7.8499 11.3977L5.57657 9.55771L0.54351 15.7761L2.81684 17.6161L7.8499 11.3977ZM5.57657 15.7761L7.8499 13.9361L2.81684 7.71771L0.54351 9.55771L5.57657 15.7761ZM1.33337 10.8269V14.5069H9.33337V10.8269H1.33337Z" fill="#FFC805"/>
</g>
<path d="M8.66667 6.00032H15.3333C15.5101 6.00032 15.6797 5.93008 15.8047 5.80506C15.9298 5.68003 16 5.51046 16 5.33365C16 5.15684 15.9298 4.98727 15.8047 4.86225C15.6797 4.73722 15.5101 4.66699 15.3333 4.66699H8.66667C8.48986 4.66699 8.32029 4.73722 8.19526 4.86225C8.07024 4.98727 8 5.15684 8 5.33365C8 5.51046 8.07024 5.68003 8.19526 5.80506C8.32029 5.93008 8.48986 6.00032 8.66667 6.00032ZM8.66667 8.66699H18C18.1768 8.66699 18.3464 8.59675 18.4714 8.47172C18.5964 8.3467 18.6667 8.17713 18.6667 8.00032C18.6667 7.82351 18.5964 7.65394 18.4714 7.52891C18.3464 7.40389 18.1768 7.33365 18 7.33365H8.66667C8.48986 7.33365 8.32029 7.40389 8.19526 7.52891C8.07024 7.65394 8 7.82351 8 8.00032C8 8.17713 8.07024 8.3467 8.19526 8.47172C8.32029 8.59675 8.48986 8.66699 8.66667 8.66699ZM8.66667 11.3337H18C18.1768 11.3337 18.3464 11.2635 18.4714 11.1384C18.5964 11.0134 18.6667 10.8438 18.6667 10.667C18.6667 10.4902 18.5964 10.3206 18.4714 10.1956C18.3464 10.0706 18.1768 10.0003 18 10.0003H8.66667C8.48986 10.0003 8.32029 10.0706 8.19526 10.1956C8.07024 10.3206 8 10.4902 8 10.667C8 10.8438 8.07024 11.0134 8.19526 11.1384C8.32029 11.2635 8.48986 11.3337 8.66667 11.3337ZM8.66667 14.0004H11.3333C11.5101 14.0004 11.6797 13.9301 11.8047 13.8051C11.9298 13.6801 12 13.5105 12 13.3337C12 13.1569 11.9298 12.9873 11.8047 12.8623C11.6797 12.7373 11.5101 12.667 11.3333 12.667H8.66667C8.48986 12.667 8.32029 12.7373 8.19526 12.8623C8.07024 12.9873 8 13.1569 8 13.3337C8 13.5105 8.07024 13.6801 8.19526 13.8051C8.32029 13.9301 8.48986 14.0004 8.66667 14.0004Z" fill="#FFCC00"/>
</g>
</g>
</g>
</g>
<defs>
<clipPath id="clip0_320_2549">
<rect width="32" height="32" fill="white"/>
</clipPath>
<clipPath id="clip1_320_2549">
<rect width="32" height="32" fill="white"/>
</clipPath>
<clipPath id="clip2_320_2549">
<rect width="32" height="32" fill="white"/>
</clipPath>
</defs>
</svg>
