<svg width="21" height="31" viewBox="0 0 21 31" fill="none" xmlns="http://www.w3.org/2000/svg">
<g clip-path="url(#clip0_320_2651)">
<path d="M20.5 15.0898C20.5 13.7747 20.2396 12.5378 19.7188 11.3789C19.1979 10.2201 18.485 9.21094 17.5801 8.35156C16.6751 7.49219 15.6107 6.8151 14.3867 6.32031C13.1758 5.8125 11.8802 5.55859 10.5 5.55859C9.11979 5.55859 7.82422 5.8125 6.61328 6.32031C5.38932 6.8151 4.32487 7.49219 3.41992 8.35156C2.51497 9.21094 1.80208 10.2201 1.28125 11.3789C0.760417 12.5378 0.5 13.7747 0.5 15.0898C0.5 16.2747 0.714844 17.401 1.14453 18.4688C1.57422 19.5234 2.16667 20.4707 2.92188 21.3105C3.67708 22.1504 4.56901 22.8438 5.59766 23.3906C6.6263 23.9505 7.73958 24.3216 8.9375 24.5039V17.8438H6.39844V15.0898H8.9375V13C8.9375 11.8021 9.28255 10.8841 9.97266 10.2461C10.6628 9.60807 11.5742 9.28906 12.707 9.28906C13.2539 9.28906 13.765 9.31836 14.2402 9.37695C14.7155 9.43555 14.9531 9.46484 14.9531 9.46484V11.8086H13.6836C13.0716 11.8086 12.6484 11.9648 12.4141 12.2773C12.1797 12.5898 12.0625 12.9349 12.0625 13.3125V15.0898H14.8359L14.3867 17.8438H12.0625V24.5039C13.2604 24.3216 14.3737 23.9505 15.4023 23.3906C16.431 22.8438 17.3229 22.1504 18.0781 21.3105C18.8333 20.4707 19.4258 19.5234 19.8555 18.4688C20.2852 17.401 20.5 16.2747 20.5 15.0898Z" fill="#FFCC00"/>
</g>
<defs>
<clipPath id="clip0_320_2651">
<rect width="20" height="20" fill="white" transform="matrix(1 0 0 -1 0.5 25.0898)"/>
</clipPath>
</defs>
</svg>
