<svg width="31" height="30" viewBox="0 0 31 30" fill="none" xmlns="http://www.w3.org/2000/svg">
<path d="M11.73 22.9688L12.1401 22.7344C12.2573 22.6758 12.3794 22.6318 12.5063 22.6025C12.6333 22.5732 12.7651 22.5586 12.9019 22.5586C13.1753 22.5586 13.4292 22.627 13.6636 22.7637C13.8979 22.9004 14.0737 23.0762 14.1909 23.291L15.6265 25.752C15.8218 26.1035 15.8657 26.4795 15.7583 26.8799C15.6509 27.2803 15.4214 27.5879 15.0698 27.8027L13.9272 28.4473C13.5757 28.6426 13.1997 28.8037 12.7993 28.9307C12.3989 29.0576 11.9937 29.1309 11.5835 29.1504L11.73 22.9688ZM11.73 22.9688L11.5542 29.0625L11.5835 29.1504L11.73 22.9688ZM11.73 22.9688C11.6323 23.0273 11.5298 23.0713 11.4224 23.1006C11.3149 23.1299 11.2026 23.1445 11.0854 23.1445C11.0269 23.1445 10.9683 23.1445 10.9097 23.1445C10.8511 23.1445 10.7925 23.1348 10.7339 23.1152C10.5581 23.0762 10.4019 23.0029 10.2651 22.8955C10.1284 22.7881 10.021 22.6562 9.94287 22.5L11.73 22.9688ZM11.5835 29.1504H11.437C11.3979 29.1504 11.354 29.1504 11.3052 29.1504C11.2563 29.1504 11.2124 29.1504 11.1733 29.1504C10.1968 29.1504 9.30811 28.9111 8.50732 28.4326C7.70654 27.9541 7.08154 27.3242 6.63232 26.543L6.60303 26.5137L2.44287 19.3066L2.53076 19.248L11.5835 29.1504ZM2.53076 19.248C2.31592 18.877 2.14502 18.4717 2.01807 18.0322C1.89111 17.5928 1.82764 17.1387 1.82764 16.6699C1.82764 16.1426 1.90088 15.6396 2.04736 15.1611C2.19385 14.6826 2.40381 14.2383 2.67725 13.8281V13.8574L2.53076 19.248ZM2.53076 19.248L2.44287 19.2773C2.22803 18.9062 2.05713 18.4961 1.93018 18.0469C1.80322 17.5977 1.73975 17.1387 1.73975 16.6699C1.73975 16.123 1.81299 15.6055 1.95947 15.1172C2.10596 14.6289 2.31592 14.1797 2.58936 13.7695V13.7988L2.53076 19.248ZM9.94287 22.5L7.59912 18.4277C7.54053 18.3301 7.49658 18.2275 7.46729 18.1201C7.43799 18.0127 7.42334 17.9004 7.42334 17.7832C7.42334 17.7051 7.42334 17.6367 7.42334 17.5781C7.42334 17.5195 7.43311 17.4707 7.45264 17.4316C7.51123 17.2559 7.58936 17.0996 7.68701 16.9629C7.78467 16.8262 7.91162 16.7188 8.06787 16.6406L8.47803 16.4062L9.94287 22.5ZM8.47803 16.4062C8.7124 16.2695 8.89795 16.084 9.03467 15.8496C9.17139 15.6152 9.23975 15.3613 9.23975 15.0879C9.23975 14.9512 9.22021 14.8193 9.18115 14.6924C9.14209 14.5654 9.09326 14.4434 9.03467 14.3262L8.47803 16.4062ZM9.03467 14.3262L7.62842 11.8945C7.53076 11.7188 7.40381 11.5723 7.24756 11.4551C7.09131 11.3379 6.91553 11.25 6.72021 11.1914C6.66162 11.1719 6.59814 11.1572 6.52979 11.1475C6.46143 11.1377 6.38818 11.1328 6.31006 11.1328C6.17334 11.1328 6.0415 11.1523 5.91455 11.1914C5.7876 11.2305 5.66553 11.2793 5.54834 11.3379H5.57764L4.43506 11.9824L9.03467 14.3262ZM4.43506 11.9824C4.06396 12.1973 3.73193 12.4463 3.43896 12.7295C3.146 13.0127 2.89209 13.3301 2.67725 13.6816H2.64795L2.58936 13.7988L4.43506 11.9824ZM14.4839 26.8066C14.5425 26.7871 14.5913 26.748 14.6304 26.6895C14.6694 26.6309 14.689 26.5625 14.689 26.4844C14.689 26.4453 14.6841 26.4111 14.6743 26.3818C14.6646 26.3525 14.6499 26.3281 14.6304 26.3086L13.2241 23.8477C13.1851 23.8086 13.1362 23.7695 13.0776 23.7305C13.019 23.6914 12.9604 23.6719 12.9019 23.6719C12.8628 23.6719 12.8286 23.6768 12.7993 23.6865C12.77 23.6963 12.7358 23.7109 12.6968 23.7305L14.4839 26.8066ZM11.5249 28.0078C11.8569 27.9883 12.1841 27.9346 12.5063 27.8467C12.8286 27.7588 13.1265 27.627 13.3999 27.4512L13.3706 27.4805L11.5249 28.0078ZM11.3784 28.0371C11.3589 28.0371 11.3296 28.0371 11.2905 28.0371C11.2515 28.0371 11.2026 28.0371 11.144 28.0371C10.4019 28.0371 9.71338 27.8467 9.07861 27.4658C8.44385 27.085 7.95068 26.5918 7.59912 25.9863V25.957L11.3784 28.0371ZM7.59912 25.957L3.40967 18.7207C3.23389 18.4277 3.09717 18.1055 2.99951 17.7539C2.90186 17.4023 2.85303 17.041 2.85303 16.6699C2.85303 16.2402 2.91162 15.835 3.02881 15.4541C3.146 15.0732 3.31201 14.7168 3.52686 14.3848V14.4141L7.59912 25.957ZM3.52686 14.4141L3.58545 14.2969C3.78076 14.0234 3.99561 13.7744 4.22998 13.5498C4.46436 13.3252 4.71826 13.1348 4.9917 12.9785L3.52686 14.4141ZM6.13428 12.334C6.15381 12.3145 6.17822 12.2998 6.20752 12.29C6.23682 12.2803 6.271 12.2754 6.31006 12.2754C6.32959 12.2754 6.34912 12.2754 6.36865 12.2754C6.38818 12.2754 6.40771 12.2754 6.42725 12.2754C6.46631 12.2949 6.50537 12.3193 6.54443 12.3486C6.5835 12.3779 6.61279 12.4121 6.63232 12.4512L6.13428 12.334ZM6.63232 12.4512L8.03857 14.9121L8.12646 14.8535L6.63232 12.4512ZM8.12646 14.8535L8.03857 14.9121C8.05811 14.9316 8.07275 14.9561 8.08252 14.9854C8.09229 15.0146 8.09717 15.0488 8.09717 15.0879C8.09717 15.166 8.08252 15.2344 8.05322 15.293C8.02393 15.3516 7.97998 15.3906 7.92139 15.4102L8.12646 14.8535ZM7.92139 15.4102L7.51123 15.6445C7.23779 15.8203 6.99854 16.0303 6.79346 16.2744C6.58838 16.5186 6.44678 16.7969 6.36865 17.1094V17.1387C6.34912 17.2363 6.32959 17.3389 6.31006 17.4463C6.29053 17.5537 6.28076 17.666 6.28076 17.7832C6.28076 17.998 6.31006 18.208 6.36865 18.4131C6.42725 18.6182 6.51514 18.8184 6.63232 19.0137L6.60303 18.9844L8.97607 23.0566L7.92139 15.4102ZM8.97607 23.0566C9.13232 23.3496 9.3374 23.5938 9.59131 23.7891C9.84521 23.9844 10.1284 24.1211 10.4409 24.1992L8.97607 23.0566ZM10.4409 24.1992C10.5386 24.2188 10.6411 24.2383 10.7485 24.2578C10.856 24.2773 10.9683 24.2871 11.0854 24.2871C11.3003 24.2871 11.5151 24.2578 11.73 24.1992C11.9448 24.1406 12.1401 24.0625 12.3159 23.9648L10.4409 24.1992ZM12.7847 26.2207C12.9214 26.2207 13.0337 26.1719 13.1216 26.0742C13.2095 25.9766 13.2534 25.8691 13.2534 25.752C13.2534 25.6152 13.2095 25.498 13.1216 25.4004C13.0337 25.3027 12.9214 25.2539 12.7847 25.2539C12.6675 25.2539 12.5601 25.3027 12.4624 25.4004C12.3647 25.498 12.3159 25.6152 12.3159 25.752C12.3159 25.8691 12.3647 25.9766 12.4624 26.0742C12.5601 26.1719 12.6675 26.2207 12.7847 26.2207ZM10.939 26.748C11.0757 26.748 11.188 26.6992 11.2759 26.6016C11.3638 26.5039 11.4077 26.3965 11.4077 26.2793C11.4077 26.1426 11.3638 26.0303 11.2759 25.9424C11.188 25.8545 11.0757 25.8105 10.939 25.8105C10.8022 25.8105 10.6899 25.8545 10.6021 25.9424C10.5142 26.0303 10.4702 26.1426 10.4702 26.2793C10.4702 26.3965 10.5142 26.5039 10.6021 26.6016C10.6899 26.6992 10.8022 26.748 10.939 26.748ZM6.19287 14.9121C6.2124 14.9121 6.22217 14.9121 6.22217 14.9121C6.37842 14.9121 6.51025 14.8535 6.61768 14.7363C6.7251 14.6191 6.77881 14.4824 6.77881 14.3262C6.77881 14.1699 6.7251 14.0381 6.61768 13.9307C6.51025 13.8232 6.37842 13.7695 6.22217 13.7695C6.22217 13.7695 6.2124 13.7695 6.19287 13.7695C6.05615 13.7695 5.93408 13.8281 5.82666 13.9453C5.71924 14.0625 5.66553 14.1895 5.66553 14.3262C5.66553 14.4824 5.71924 14.6143 5.82666 14.7217C5.93408 14.8291 6.05615 14.8926 6.19287 14.9121ZM4.81592 16.2598C4.81592 16.2598 4.82568 16.2598 4.84521 16.2598C5.00146 16.2598 5.1333 16.2012 5.24072 16.084C5.34814 15.9668 5.40186 15.8301 5.40186 15.6738C5.40186 15.5176 5.34814 15.3857 5.24072 15.2783C5.1333 15.1709 5.00146 15.1172 4.84521 15.1172C4.82568 15.1172 4.81592 15.1172 4.81592 15.1172C4.65967 15.1367 4.52783 15.2002 4.42041 15.3076C4.31299 15.415 4.25928 15.5371 4.25928 15.6738C4.25928 15.8301 4.31299 15.9619 4.42041 16.0693C4.52783 16.1768 4.65967 16.2402 4.81592 16.2598ZM16.4761 15.791L20.021 12.7734H28.4292C28.8394 12.7734 29.1909 12.627 29.4839 12.334C29.7769 12.041 29.9233 11.6895 29.9233 11.2793V2.34375C29.9233 1.93359 29.7769 1.58203 29.4839 1.28906C29.1909 0.996094 28.8394 0.849609 28.4292 0.849609H11.9644C11.5542 0.849609 11.2026 0.996094 10.9097 1.28906C10.6167 1.58203 10.4702 1.93359 10.4702 2.34375V11.2793C10.4702 11.6895 10.6167 12.041 10.9097 12.334C11.2026 12.627 11.5542 12.7734 11.9644 12.7734H13.2827V14.2383C13.2827 14.6289 13.3853 14.9902 13.5903 15.3223C13.7954 15.6543 14.0737 15.8984 14.4253 16.0547C14.562 16.1133 14.6987 16.1572 14.8354 16.1865C14.9722 16.2158 15.1089 16.2305 15.2456 16.2305C15.4604 16.2305 15.6753 16.1914 15.8901 16.1133C16.105 16.0352 16.3003 15.9277 16.4761 15.791ZM19.4644 11.7773L15.7437 14.9121C15.6851 14.9707 15.6118 15.0195 15.5239 15.0586C15.436 15.0977 15.3433 15.1172 15.2456 15.1172C15.187 15.1172 15.1284 15.1074 15.0698 15.0879C15.0112 15.0684 14.9624 15.0488 14.9233 15.0293C14.7671 14.9707 14.645 14.8682 14.5571 14.7217C14.4692 14.5752 14.4253 14.4238 14.4253 14.2676C14.4253 14.248 14.4253 14.2383 14.4253 14.2383V12.2168C14.4253 12.0605 14.3667 11.9287 14.2495 11.8213C14.1323 11.7139 13.9956 11.6602 13.8394 11.6602H11.9644C11.8667 11.6602 11.7788 11.6211 11.7007 11.543C11.6226 11.4648 11.5835 11.377 11.5835 11.2793V2.34375C11.5835 2.24609 11.6226 2.1582 11.7007 2.08008C11.7788 2.00195 11.8667 1.96289 11.9644 1.96289H28.4292C28.5269 1.96289 28.6147 2.00195 28.6929 2.08008C28.771 2.1582 28.8101 2.24609 28.8101 2.34375V11.2793C28.8101 11.377 28.771 11.4648 28.6929 11.543C28.6147 11.6211 28.5269 11.6602 28.4292 11.6602H19.8159C19.7573 11.6602 19.6987 11.6699 19.6401 11.6895C19.5815 11.709 19.5229 11.7383 19.4644 11.7773ZM28.2827 14.4727C28.2827 14.6875 28.2192 14.8682 28.0923 15.0146C27.9653 15.1611 27.8042 15.2246 27.6089 15.2051C27.4136 15.2051 27.2427 15.1416 27.0962 15.0146C26.9497 14.8877 26.8765 14.7363 26.8765 14.5605C26.8569 14.3652 26.9155 14.1992 27.0522 14.0625C27.189 13.9258 27.3452 13.8477 27.521 13.8281L28.2827 14.4727ZM28.2827 14.4727C28.2632 14.2773 28.1802 14.1113 28.0337 13.9746C27.8872 13.8379 27.7163 13.7891 27.521 13.8281L28.2827 14.4727ZM28.1655 16.9043C28.1851 16.709 28.1362 16.5332 28.019 16.377C27.9019 16.2207 27.7456 16.1328 27.5503 16.1133C27.3745 16.0938 27.2085 16.1426 27.0522 16.2598C26.896 16.377 26.7983 16.5234 26.7593 16.6992C26.7397 16.875 26.7886 17.041 26.9058 17.1973C27.0229 17.3535 27.1694 17.4512 27.3452 17.4902C27.5405 17.5293 27.7163 17.4902 27.8726 17.373C28.0288 17.2559 28.1265 17.0996 28.1655 16.9043ZM28.0776 16.9043C28.0386 17.0801 27.9507 17.2168 27.814 17.3145C27.6772 17.4121 27.5308 17.4414 27.3745 17.4023C27.1987 17.3633 27.062 17.2803 26.9644 17.1533C26.8667 17.0264 26.8276 16.8848 26.8472 16.7285C26.8862 16.5723 26.9692 16.4404 27.0962 16.333C27.2231 16.2256 27.3745 16.1816 27.5503 16.2012C27.7261 16.2207 27.8628 16.2988 27.9604 16.4355C28.0581 16.5723 28.0972 16.7285 28.0776 16.9043ZM26.2026 18.8965C26.1831 18.9355 26.1733 18.9746 26.1733 19.0137C26.1733 19.0527 26.1733 19.0918 26.1733 19.1309C26.1733 19.2676 26.2124 19.3945 26.2905 19.5117C26.3687 19.6289 26.4663 19.7168 26.5835 19.7754L26.6128 19.8047C26.6519 19.8047 26.6909 19.8145 26.73 19.834C26.769 19.8535 26.8179 19.8633 26.8765 19.8633C27.0327 19.8633 27.1694 19.8193 27.2866 19.7314C27.4038 19.6436 27.4819 19.5312 27.521 19.3945C27.5796 19.1992 27.5698 19.0137 27.4917 18.8379C27.4136 18.6621 27.2769 18.5449 27.0815 18.4863C26.9058 18.4277 26.73 18.4375 26.5542 18.5156C26.3784 18.5938 26.2612 18.7207 26.2026 18.8965ZM25.1772 20.918C25.0991 21.0742 25.0747 21.2451 25.104 21.4307C25.1333 21.6162 25.2261 21.7676 25.3823 21.8848C25.5386 21.9824 25.7192 22.0166 25.9243 21.9873C26.1294 21.958 26.2808 21.8555 26.3784 21.6797C26.4761 21.5039 26.5054 21.3184 26.4663 21.123C26.4272 20.9277 26.3198 20.7812 26.144 20.6836C25.9683 20.6055 25.7876 20.5859 25.6021 20.625C25.4165 20.6641 25.2749 20.7617 25.1772 20.918ZM24.7378 22.6465C24.6011 22.5293 24.4399 22.4707 24.2544 22.4707C24.0688 22.4707 23.9077 22.5391 23.771 22.6758C23.6343 22.8125 23.5659 22.9736 23.5659 23.1592C23.5659 23.3447 23.6343 23.5059 23.771 23.6426C23.8882 23.7988 24.0493 23.877 24.2544 23.877C24.4595 23.877 24.6304 23.8086 24.7671 23.6719C24.9038 23.5156 24.9722 23.3398 24.9722 23.1445C24.9722 22.9492 24.894 22.7832 24.7378 22.6465ZM22.0132 24.1113C21.8569 24.209 21.7593 24.3506 21.7202 24.5361C21.6812 24.7217 21.7104 24.8926 21.8081 25.0488C21.9058 25.2246 22.0474 25.3369 22.2329 25.3857C22.4185 25.4346 22.5991 25.4004 22.7749 25.2832C22.9507 25.1855 23.0581 25.0342 23.0972 24.8291C23.1362 24.624 23.0972 24.4434 22.98 24.2871C22.9019 24.209 22.814 24.1406 22.7163 24.082C22.6187 24.0234 22.5112 23.9941 22.394 23.9941C22.3354 23.9941 22.272 24.0039 22.2036 24.0234C22.1353 24.043 22.0718 24.0723 22.0132 24.1113ZM20.1089 25.0781C20.2847 25.0391 20.4556 25.0488 20.6216 25.1074C20.7876 25.166 20.9194 25.2832 21.0171 25.459L20.9292 25.5176C20.9878 25.6543 20.9878 25.8057 20.9292 25.9717C20.8706 26.1377 20.7534 26.25 20.5776 26.3086L20.1089 25.0781ZM20.1089 25.0781C19.9331 25.1562 19.8062 25.2832 19.728 25.459C19.6499 25.6348 19.6401 25.8105 19.6987 25.9863C19.7573 26.1816 19.8794 26.3184 20.0649 26.3965C20.2505 26.4746 20.4312 26.4746 20.6069 26.3965L20.1089 25.0781ZM17.9409 25.6934C17.7456 25.7129 17.5942 25.8008 17.4868 25.957C17.3794 26.1133 17.3354 26.2891 17.355 26.4844C17.3745 26.6797 17.4624 26.8359 17.6187 26.9531C17.7749 27.0703 17.9507 27.1094 18.146 27.0703C18.3218 27.0508 18.4634 26.9775 18.5708 26.8506C18.6782 26.7236 18.7319 26.5723 18.7319 26.3965C18.7319 26.377 18.7319 26.3525 18.7319 26.3232C18.7319 26.2939 18.7319 26.2695 18.7319 26.25C18.6929 26.0938 18.605 25.9619 18.4683 25.8545C18.3315 25.7471 18.1753 25.6934 17.9995 25.6934C17.9995 25.6934 17.9897 25.6934 17.9702 25.6934C17.9507 25.6934 17.9312 25.6934 17.9116 25.6934H17.9409ZM15.4507 3.51562H14.1323C14.0151 3.51562 13.9175 3.55957 13.8394 3.64746C13.7612 3.73535 13.7222 3.84766 13.7222 3.98438C13.7222 4.10156 13.7612 4.20898 13.8394 4.30664C13.9175 4.4043 14.0151 4.45312 14.1323 4.45312H15.4507C15.5288 4.45312 15.5923 4.47754 15.6411 4.52637C15.6899 4.5752 15.7144 4.64844 15.7144 4.74609V5.50781C15.7144 5.58594 15.6899 5.64941 15.6411 5.69824C15.5923 5.74707 15.5288 5.77148 15.4507 5.77148H14.8062C14.4937 5.77148 14.23 5.89355 14.0151 6.1377C13.8003 6.38184 13.6929 6.67969 13.6929 7.03125V7.79297C13.6929 8.125 13.8003 8.41309 14.0151 8.65723C14.23 8.90137 14.4937 9.02344 14.8062 9.02344H16.1245C16.2417 9.02344 16.3442 8.97461 16.4321 8.87695C16.52 8.7793 16.564 8.66211 16.564 8.52539C16.564 8.4082 16.52 8.30078 16.4321 8.20312C16.3442 8.10547 16.2417 8.05664 16.1245 8.05664H14.8062C14.7476 8.05664 14.6938 8.03223 14.645 7.9834C14.5962 7.93457 14.5718 7.87109 14.5718 7.79297V7.03125C14.5718 6.93359 14.5962 6.86035 14.645 6.81152C14.6938 6.7627 14.7476 6.73828 14.8062 6.73828H15.4507C15.7632 6.73828 16.0269 6.61621 16.2417 6.37207C16.4565 6.12793 16.564 5.83984 16.564 5.50781V4.74609C16.564 4.41406 16.4565 4.12598 16.2417 3.88184C16.0269 3.6377 15.7632 3.51562 15.4507 3.51562ZM20.1089 3.51562C19.9917 3.51562 19.894 3.55957 19.8159 3.64746C19.7378 3.73535 19.6987 3.84766 19.6987 3.98438V5.77148H18.7905C18.7319 5.77148 18.6782 5.74707 18.6294 5.69824C18.5806 5.64941 18.5562 5.58594 18.5562 5.50781V3.98438C18.5562 3.84766 18.5171 3.73535 18.439 3.64746C18.3608 3.55957 18.2534 3.51562 18.1167 3.51562C17.9995 3.51562 17.9019 3.55957 17.8237 3.64746C17.7456 3.73535 17.7065 3.84766 17.7065 3.98438V5.50781C17.7065 5.83984 17.8091 6.12793 18.0142 6.37207C18.2192 6.61621 18.478 6.73828 18.7905 6.73828H19.6987V8.52539C19.6987 8.66211 19.7378 8.7793 19.8159 8.87695C19.894 8.97461 19.9917 9.02344 20.1089 9.02344C20.2456 9.02344 20.353 8.97461 20.4312 8.87695C20.5093 8.7793 20.5483 8.66211 20.5483 8.52539V3.98438C20.5483 3.84766 20.5093 3.73535 20.4312 3.64746C20.353 3.55957 20.2456 3.51562 20.1089 3.51562ZM23.3022 6.15234H22.6284V3.98438C22.6284 3.84766 22.5845 3.73535 22.4966 3.64746C22.4087 3.55957 22.2964 3.51562 22.1597 3.51562C22.0229 3.51562 21.9106 3.55957 21.8228 3.64746C21.7349 3.73535 21.6909 3.84766 21.6909 3.98438V8.52539C21.6909 8.66211 21.7349 8.7793 21.8228 8.87695C21.9106 8.97461 22.0229 9.02344 22.1597 9.02344C22.2964 9.02344 22.4087 8.97461 22.4966 8.87695C22.5845 8.7793 22.6284 8.66211 22.6284 8.52539V7.11914H23.3022C23.3804 7.11914 23.4487 7.14355 23.5073 7.19238C23.5659 7.24121 23.5952 7.31445 23.5952 7.41211V8.52539C23.5952 8.66211 23.6392 8.7793 23.7271 8.87695C23.8149 8.97461 23.9272 9.02344 24.064 9.02344C24.2007 9.02344 24.313 8.97461 24.4009 8.87695C24.4888 8.7793 24.5327 8.66211 24.5327 8.52539V7.41211C24.5327 7.06055 24.4106 6.7627 24.1665 6.51855C23.9224 6.27441 23.6343 6.15234 23.3022 6.15234ZM26.4663 6.29883L26.437 6.32812C26.3979 6.28906 26.3491 6.25 26.2905 6.21094C26.2319 6.17188 26.1733 6.15234 26.1147 6.15234C25.978 6.15234 25.8706 6.20117 25.7925 6.29883C25.7144 6.39648 25.6753 6.51367 25.6753 6.65039V8.52539C25.6753 8.66211 25.7144 8.7793 25.7925 8.87695C25.8706 8.97461 25.978 9.02344 26.1147 9.02344C26.2319 9.02344 26.3296 8.97461 26.4077 8.87695C26.4858 8.7793 26.5249 8.66211 26.5249 8.52539V7.58789L27.0815 6.97266C27.1206 6.93359 27.1499 6.88477 27.1694 6.82617C27.189 6.76758 27.1987 6.70898 27.1987 6.65039C27.1987 6.57227 27.189 6.50879 27.1694 6.45996C27.1499 6.41113 27.1206 6.35742 27.0815 6.29883C27.0425 6.25977 26.9937 6.22559 26.9351 6.19629C26.8765 6.16699 26.8179 6.15234 26.7593 6.15234C26.7007 6.15234 26.647 6.16699 26.5981 6.19629C26.5493 6.22559 26.5054 6.25977 26.4663 6.29883Z" fill="#FFCC00"/>
</svg>
