<svg width="28" height="27" viewBox="0 0 28 27" fill="none" xmlns="http://www.w3.org/2000/svg">
<g clip-path="url(#clip0_320_2580)">
<path d="M26.3035 3.92871C26.1101 3.78809 25.8992 3.68701 25.6707 3.62549C25.4421 3.56396 25.2136 3.52441 24.9851 3.50684H3.46948C3.38159 3.54199 3.28491 3.55957 3.17944 3.55957C3.07397 3.55957 2.97729 3.57715 2.8894 3.6123C2.29175 3.84082 1.81274 4.17041 1.45239 4.60107C1.09204 5.03174 0.86792 5.57227 0.780029 6.22266V20.7773C0.815186 20.8828 0.832764 20.9839 0.832764 21.0806C0.832764 21.1772 0.850342 21.2783 0.885498 21.3838C1.13159 21.9814 1.46558 22.4604 1.88745 22.8208C2.30933 23.1812 2.83667 23.4053 3.46948 23.4932H24.9851C25.1433 23.4756 25.3059 23.4536 25.4729 23.4272C25.6399 23.4009 25.7937 23.3525 25.9343 23.2822C26.4617 23.0186 26.8835 22.6846 27.2 22.2803C27.5164 21.876 27.7097 21.3838 27.78 20.8037V6.27539C27.7273 5.74805 27.5735 5.29541 27.3186 4.91748C27.0637 4.53955 26.7253 4.20996 26.3035 3.92871ZM24.3523 5.64258C24.3523 5.67773 24.3347 5.7041 24.2996 5.72168C24.2644 5.73926 24.2292 5.76562 24.1941 5.80078C23.3855 6.39844 22.5769 7.00488 21.7683 7.62012C20.9597 8.21777 20.1467 8.82422 19.3293 9.43945C18.512 10.0547 17.699 10.6611 16.8904 11.2588C16.0818 11.874 15.2732 12.4893 14.4646 13.1045C14.4119 13.1396 14.3591 13.166 14.3064 13.1836C14.2537 13.2012 14.1921 13.1836 14.1218 13.1309C13.2957 12.498 12.4695 11.874 11.6433 11.2588C10.8171 10.6436 9.99097 10.0239 9.16479 9.3999C8.33862 8.77588 7.50366 8.14746 6.65991 7.51465C5.83374 6.89941 4.99878 6.27539 4.15503 5.64258H24.3523ZM25.6707 20.1709C25.6707 20.5576 25.5696 20.8521 25.3674 21.0542C25.1653 21.2563 24.8708 21.3574 24.4841 21.3574H4.04956C3.698 21.3574 3.41675 21.2563 3.20581 21.0542C2.99487 20.8521 2.8894 20.5752 2.8894 20.2236V7.38281C2.94214 7.38281 2.98608 7.396 3.02124 7.42236C3.0564 7.44873 3.08276 7.4707 3.10034 7.48828C4.0144 8.17383 4.91968 8.85938 5.81616 9.54492C6.73022 10.2305 7.63989 10.9116 8.54517 11.5884C9.45044 12.2651 10.3601 12.9463 11.2742 13.6318C12.1707 14.3174 13.0759 14.9941 13.99 15.6621C14.113 15.7676 14.2141 15.8159 14.2932 15.8071C14.3723 15.7983 14.4734 15.75 14.5964 15.6621C15.4929 14.9766 16.3982 14.2998 17.3123 13.6318C18.2087 12.9463 19.1096 12.2651 20.0149 11.5884C20.9202 10.9116 21.821 10.2393 22.7175 9.57129C23.6316 8.88574 24.5369 8.20898 25.4333 7.54102C25.4685 7.50586 25.5037 7.4751 25.5388 7.44873C25.574 7.42236 25.6179 7.3916 25.6707 7.35645V20.1709Z" fill="#FFCC00"/>
</g>
<defs>
<clipPath id="clip0_320_2580">
<rect width="27" height="27" fill="white" transform="matrix(1 0 0 -1 0.780029 27)"/>
</clipPath>
</defs>
</svg>
