<svg width="21" height="31" viewBox="0 0 21 31" fill="none" xmlns="http://www.w3.org/2000/svg">
<g clip-path="url(#clip0_320_2657)">
<path d="M14.6992 5.08984H6.32031C5.40885 5.08984 4.58854 5.22005 3.85938 5.48047C3.14323 5.75391 2.53776 6.13802 2.04297 6.63281C1.54818 7.1276 1.16406 7.73307 0.890625 8.44922C0.630208 9.17839 0.5 9.99219 0.5 10.8906V19.2695C0.5 20.181 0.630208 20.9948 0.890625 21.7109C1.16406 22.4401 1.54818 23.0521 2.04297 23.5469C2.53776 24.0417 3.14323 24.4258 3.85938 24.6992C4.58854 24.9596 5.40885 25.0898 6.32031 25.0898H14.6797C15.5911 25.0898 16.4115 24.9596 17.1406 24.6992C17.8568 24.4258 18.4622 24.0417 18.957 23.5469C19.4518 23.0521 19.8359 22.4466 20.1094 21.7305C20.3698 21.0013 20.5 20.1875 20.5 19.2891V10.8906C20.5 9.99219 20.3698 9.17839 20.1094 8.44922C19.849 7.73307 19.4681 7.1276 18.9668 6.63281C18.4655 6.13802 17.8568 5.75391 17.1406 5.48047C16.4245 5.22005 15.6107 5.08984 14.6992 5.08984ZM10.5 18.9766C9.96615 18.9766 9.46484 18.8724 8.99609 18.6641C8.52734 18.4557 8.11719 18.1758 7.76562 17.8242C7.41406 17.4727 7.13411 17.0625 6.92578 16.5938C6.73047 16.125 6.63281 15.6237 6.63281 15.0898C6.63281 14.556 6.73047 14.0547 6.92578 13.5859C7.13411 13.1172 7.41406 12.707 7.76562 12.3555C8.11719 12.0039 8.52734 11.724 8.99609 11.5156C9.46484 11.3073 9.96615 11.2031 10.5 11.2031C11.0339 11.2031 11.5417 11.3073 12.0234 11.5156C12.4922 11.724 12.9023 12.0039 13.2539 12.3555C13.6055 12.707 13.8789 13.1172 14.0742 13.5859C14.2826 14.0547 14.3867 14.556 14.3867 15.0898C14.3867 15.6237 14.2826 16.125 14.0742 16.5938C13.8789 17.0625 13.6055 17.4727 13.2539 17.8242C12.9023 18.1758 12.4922 18.4557 12.0234 18.6641C11.5417 18.8724 11.0339 18.9766 10.5 18.9766ZM16.4375 9.97266C16.4115 10.0247 16.3789 10.0801 16.3398 10.1387C16.3008 10.1973 16.2617 10.2526 16.2227 10.3047C16.1706 10.3438 16.1152 10.3828 16.0566 10.4219C15.998 10.4609 15.9427 10.4935 15.8906 10.5195C15.8255 10.5326 15.7604 10.5488 15.6953 10.5684C15.6302 10.5879 15.5651 10.5977 15.5 10.5977C15.3698 10.5977 15.2428 10.5716 15.1191 10.5195C14.9954 10.4674 14.888 10.3958 14.7969 10.3047C14.7578 10.2526 14.7188 10.1973 14.6797 10.1387C14.6406 10.0801 14.6081 10.0247 14.582 9.97266C14.556 9.90755 14.5365 9.84245 14.5234 9.77734C14.5104 9.71224 14.5039 9.64714 14.5039 9.58203C14.5039 9.51693 14.5104 9.45508 14.5234 9.39648C14.5365 9.33789 14.556 9.27604 14.582 9.21094C14.6081 9.14583 14.6406 9.08724 14.6797 9.03516C14.7188 8.98307 14.7578 8.93099 14.7969 8.87891C14.9141 8.76172 15.054 8.68034 15.2168 8.63477C15.3796 8.58919 15.5391 8.57943 15.6953 8.60547C15.7344 8.61849 15.7702 8.62826 15.8027 8.63477C15.8353 8.64128 15.8646 8.65104 15.8906 8.66406C15.9167 8.67708 15.946 8.6901 15.9785 8.70312C16.0111 8.71615 16.0404 8.73568 16.0664 8.76172C16.0924 8.77474 16.1185 8.79427 16.1445 8.82031C16.1706 8.84635 16.1966 8.86588 16.2227 8.87891C16.2617 8.93099 16.3008 8.98307 16.3398 9.03516C16.3789 9.08724 16.4115 9.14583 16.4375 9.21094C16.4505 9.27604 16.4668 9.33789 16.4863 9.39648C16.5059 9.45508 16.5156 9.51693 16.5156 9.58203C16.5156 9.64714 16.5059 9.71224 16.4863 9.77734C16.4668 9.84245 16.4505 9.90755 16.4375 9.97266Z" fill="#FFCC00"/>
</g>
<defs>
<clipPath id="clip0_320_2657">
<rect width="20" height="20" fill="white" transform="matrix(1 0 0 -1 0.5 25.0898)"/>
</clipPath>
</defs>
</svg>
