<svg width="21" height="31" viewBox="0 0 21 31" fill="none" xmlns="http://www.w3.org/2000/svg">
<path d="M18.4883 6.14453H2.51172C2.51172 6.14453 2.50846 6.14453 2.50195 6.14453C2.49544 6.14453 2.49219 6.14453 2.49219 6.14453C2.11458 6.14453 1.79232 6.27148 1.52539 6.52539C1.25846 6.7793 1.125 7.08203 1.125 7.43359V22.7461C1.125 23.0977 1.25846 23.4004 1.52539 23.6543C1.79232 23.9082 2.11458 24.0352 2.49219 24.0352C2.49219 24.0352 2.49544 24.0352 2.50195 24.0352C2.50846 24.0352 2.51172 24.0352 2.51172 24.0352H18.4883C18.4883 24.0352 18.4948 24.0352 18.5078 24.0352C18.8724 24.0352 19.1882 23.9115 19.4551 23.6641C19.722 23.4167 19.862 23.1107 19.875 22.7461V7.43359C19.862 7.08203 19.722 6.7793 19.4551 6.52539C19.1882 6.27148 18.8724 6.14453 18.5078 6.14453C18.4948 6.14453 18.4883 6.14453 18.4883 6.14453ZM6.69141 21.3984H3.89844V12.8438H6.69141V21.3984ZM5.30469 11.6914C4.84896 11.6914 4.46484 11.5417 4.15234 11.2422C3.83984 10.9427 3.68359 10.5781 3.68359 10.1484C3.68359 9.71875 3.83984 9.35417 4.15234 9.05469C4.46484 8.75521 4.84896 8.60547 5.30469 8.60547C5.7474 8.60547 6.125 8.75521 6.4375 9.05469C6.75 9.35417 6.90625 9.71875 6.90625 10.1484C6.90625 10.5781 6.75 10.9427 6.4375 11.2422C6.125 11.5417 5.7474 11.6914 5.30469 11.6914ZM17.1016 21.3984H14.3281V17.2383C14.3281 16.7435 14.263 16.2422 14.1328 15.7344C14.0026 15.2266 13.5859 14.9727 12.8828 14.9727C12.1536 14.9727 11.6914 15.2005 11.4961 15.6562C11.3008 16.112 11.2031 16.6133 11.2031 17.1602V21.3984H8.42969V12.8633H11.1055V14.0156H11.125C11.3854 13.599 11.7402 13.2637 12.1895 13.0098C12.6387 12.7559 13.1302 12.6289 13.6641 12.6289C13.6771 12.6289 13.6934 12.6289 13.7129 12.6289C13.7324 12.6289 13.7552 12.6354 13.7812 12.6484H13.7617C15.168 12.6484 16.0762 13.0358 16.4863 13.8105C16.8965 14.5853 17.1016 15.5521 17.1016 16.7109V21.3984Z" fill="#FFCC00"/>
</svg>
