<svg width="60" height="31" viewBox="0 0 60 31" fill="none" xmlns="http://www.w3.org/2000/svg">
<g clip-path="url(#clip0_320_2647)">
<path d="M30 0.0898438C25.8594 0.0898438 21.9629 0.480469 18.3105 1.26172C14.6777 2.04297 11.5039 3.1123 8.78906 4.46973C6.07422 5.82715 3.92578 7.42383 2.34375 9.25977C0.78125 11.0762 0 13.0195 0 15.0898C0 17.1602 0.78125 19.1035 2.34375 20.9199C3.92578 22.7559 6.07422 24.3525 8.78906 25.71C11.5039 27.0674 14.6777 28.1367 18.3105 28.918C21.9629 29.6992 25.8594 30.0898 30 30.0898C34.1406 30.0898 38.0371 29.6992 41.6895 28.918C45.3223 28.1367 48.4961 27.0674 51.2109 25.71C53.9258 24.3525 56.0742 22.7559 57.6562 20.9199C59.2188 19.1035 60 17.1602 60 15.0898C60 13.0195 59.2188 11.0762 57.6562 9.25977C56.0742 7.42383 53.9258 5.82715 51.2109 4.46973C48.4961 3.1123 45.3223 2.04297 41.6895 1.26172C38.0371 0.480469 34.1406 0.0898438 30 0.0898438ZM30 27.7168C26.1914 27.7168 22.6074 27.3848 19.248 26.7207C15.8887 26.0566 12.959 25.1533 10.459 24.0107C7.95898 22.8682 5.98633 21.5352 4.54102 20.0117C3.0957 18.4688 2.37305 16.8281 2.37305 15.0898C2.37305 13.3516 3.0957 11.7109 4.54102 10.168C5.98633 8.64453 7.95898 7.31152 10.459 6.16895C12.959 5.02637 15.8887 4.12305 19.248 3.45898C22.6074 2.79492 26.1914 2.46289 30 2.46289C33.8086 2.46289 37.3926 2.79492 40.752 3.45898C44.1113 4.12305 47.041 5.02637 49.541 6.16895C52.041 7.31152 54.0137 8.64453 55.459 10.168C56.9043 11.7109 57.627 13.3516 57.627 15.0898C57.627 16.8281 56.9043 18.4688 55.459 20.0117C54.0137 21.5352 52.041 22.8682 49.541 24.0107C47.041 25.1533 44.1113 26.0566 40.752 26.7207C37.3926 27.3848 33.8086 27.7168 30 27.7168ZM26.2207 12.4531V10.0801H34.6875V12.4531H31.6406V20.0996H29.2676V12.4531H26.2207ZM44.8828 10.0801V20.0996H42.5391L38.2324 14.123V20.0996H35.8594V10.0801H38.2324L42.5391 16.0566V10.0801H44.8828ZM15.0293 20.0996V10.0801H17.4023L20.0391 14.123L22.6758 10.0801H25.0195V20.0996H22.6758V14.4453L20.8594 17.1992H19.1895L17.4023 14.4453V20.0996H15.0293Z" fill="#FFCC00"/>
</g>
<defs>
<clipPath id="clip0_320_2647">
<rect width="60" height="30" fill="white" transform="matrix(1 0 0 -1 0 30.0898)"/>
</clipPath>
</defs>
</svg>
