<svg width="73" height="22" viewBox="0 0 73 22" fill="none" xmlns="http://www.w3.org/2000/svg">
<g clip-path="url(#clip0_320_2413)">
<g clip-path="url(#clip1_320_2413)">
<path d="M7.57959 7.61426L9.27686 10.8799L13.1011 11.4062L10.3403 13.9521L10.9849 17.5508L7.57959 15.8535L4.16357 17.5508L4.81885 13.9521L2.05811 11.4062L5.87158 10.8799L7.57959 7.61426Z" fill="#C7C7C7"/>
<path d="M21.9546 7.61426L23.6519 10.8799L27.4761 11.4062L24.7153 13.9521L25.3599 17.5508L21.9546 15.8535L18.5386 17.5508L19.1938 13.9521L16.4331 11.4062L20.2466 10.8799L21.9546 7.61426Z" fill="#C7C7C7"/>
<path d="M36.3296 7.61426L38.0269 10.8799L41.8511 11.4062L39.0903 13.9521L39.7349 17.5508L36.3296 15.8535L32.9136 17.5508L33.5688 13.9521L30.8081 11.4062L34.6216 10.8799L36.3296 7.61426Z" fill="#C7C7C7"/>
<path d="M50.7046 7.61426L52.4019 10.8799L56.2261 11.4062L53.4653 13.9521L54.1099 17.5508L50.7046 15.8535L47.2886 17.5508L47.9438 13.9521L45.1831 11.4062L48.9966 10.8799L50.7046 7.61426Z" fill="#C7C7C7"/>
<path d="M65.0796 7.61426L66.7769 10.8799L70.6011 11.4062L67.8403 13.9521L68.4849 17.5508L65.0796 15.8535L61.6636 17.5508L62.3188 13.9521L59.5581 11.4062L63.3716 10.8799L65.0796 7.61426Z" fill="#C7C7C7"/>
</g>
<g clip-path="url(#clip2_320_2413)">
<g clip-path="url(#clip3_320_2413)">
<path d="M6.25656 7.88412L7.86286 10.9747L11.4821 11.4729L8.86934 13.8823L9.47933 17.2881L6.25656 15.6818L3.02363 17.2881L3.64378 13.8823L1.03101 11.4729L4.6401 10.9747L6.25656 7.88412Z" fill="#FFCC00"/>
<path d="M19.8611 7.88412L21.4674 10.9747L25.0866 11.4729L22.4738 13.8823L23.0838 17.2881L19.8611 15.6818L16.6281 17.2881L17.2483 13.8823L14.6355 11.4729L18.2446 10.9747L19.8611 7.88412Z" fill="#FFCC00"/>
<path d="M33.4655 7.88412L35.0718 10.9747L38.6911 11.4729L36.0783 13.8823L36.6883 17.2881L33.4655 15.6818L30.2326 17.2881L30.8528 13.8823L28.24 11.4729L31.8491 10.9747L33.4655 7.88412Z" fill="#FFCC00"/>
<path d="M47.0703 7.88412L48.6766 10.9747L52.2958 11.4729L49.6831 13.8823L50.293 17.2881L47.0703 15.6818L43.8373 17.2881L44.4575 13.8823L41.8447 11.4729L45.4538 10.9747L47.0703 7.88412Z" fill="#FFCC00"/>
<path d="M60.6748 7.88412L62.2811 10.9747L65.9003 11.4729L63.2876 13.8823L63.8975 17.2881L60.6748 15.6818L57.4418 17.2881L58.062 13.8823L55.4492 11.4729L59.0583 10.9747L60.6748 7.88412Z" fill="#FFCC00"/>
</g>
</g>
</g>
<defs>
<clipPath id="clip0_320_2413">
<rect width="71.88" height="21" fill="white" transform="translate(0.59375 0.982422)"/>
</clipPath>
<clipPath id="clip1_320_2413">
<rect width="71.88" height="11" fill="white" transform="matrix(1 0 0 -1 0.59375 18.1523)"/>
</clipPath>
<clipPath id="clip2_320_2413">
<rect width="66.13" height="11" fill="white" transform="translate(0.59375 7.15234)"/>
</clipPath>
<clipPath id="clip3_320_2413">
<rect width="66.13" height="11" fill="white" transform="matrix(1 0 0 -1 0.59375 18.1523)"/>
</clipPath>
</defs>
</svg>
