<svg width="29" height="30" viewBox="0 0 29 30" fill="none" xmlns="http://www.w3.org/2000/svg">
<path d="M10.73 22.9688L11.1401 22.7344C11.2573 22.6758 11.3794 22.6318 11.5063 22.6025C11.6333 22.5732 11.7651 22.5586 11.9019 22.5586C12.1753 22.5586 12.4292 22.627 12.6636 22.7637C12.8979 22.9004 13.0737 23.0762 13.1909 23.291L14.6265 25.752C14.8218 26.1035 14.8657 26.4795 14.7583 26.8799C14.6509 27.2803 14.4214 27.5879 14.0698 27.8027L12.9272 28.4473C12.5757 28.6426 12.1997 28.8037 11.7993 28.9307C11.3989 29.0576 10.9937 29.1309 10.5835 29.1504L10.73 22.9688ZM10.73 22.9688L10.5542 29.0625L10.5835 29.1504L10.73 22.9688ZM10.73 22.9688C10.6323 23.0273 10.5298 23.0713 10.4224 23.1006C10.3149 23.1299 10.2026 23.1445 10.0854 23.1445C10.0269 23.1445 9.96826 23.1445 9.90967 23.1445C9.85107 23.1445 9.79248 23.1348 9.73389 23.1152C9.55811 23.0762 9.40186 23.0029 9.26514 22.8955C9.12842 22.7881 9.021 22.6562 8.94287 22.5L10.73 22.9688ZM10.5835 29.1504H10.437C10.3979 29.1504 10.354 29.1504 10.3052 29.1504C10.2563 29.1504 10.2124 29.1504 10.1733 29.1504C9.19678 29.1504 8.30811 28.9111 7.50732 28.4326C6.70654 27.9541 6.08154 27.3242 5.63232 26.543L5.60303 26.5137L1.44287 19.3066L1.53076 19.248L10.5835 29.1504ZM1.53076 19.248C1.31592 18.877 1.14502 18.4717 1.01807 18.0322C0.891113 17.5928 0.827637 17.1387 0.827637 16.6699C0.827637 16.1426 0.900879 15.6396 1.04736 15.1611C1.19385 14.6826 1.40381 14.2383 1.67725 13.8281V13.8574L1.53076 19.248ZM1.53076 19.248L1.44287 19.2773C1.22803 18.9062 1.05713 18.4961 0.930176 18.0469C0.803223 17.5977 0.739746 17.1387 0.739746 16.6699C0.739746 16.123 0.812988 15.6055 0.959473 15.1172C1.10596 14.6289 1.31592 14.1797 1.58936 13.7695V13.7988L1.53076 19.248ZM8.94287 22.5L6.59912 18.4277C6.54053 18.3301 6.49658 18.2275 6.46729 18.1201C6.43799 18.0127 6.42334 17.9004 6.42334 17.7832C6.42334 17.7051 6.42334 17.6367 6.42334 17.5781C6.42334 17.5195 6.43311 17.4707 6.45264 17.4316C6.51123 17.2559 6.58936 17.0996 6.68701 16.9629C6.78467 16.8262 6.91162 16.7188 7.06787 16.6406L7.47803 16.4062L8.94287 22.5ZM7.47803 16.4062C7.7124 16.2695 7.89795 16.084 8.03467 15.8496C8.17139 15.6152 8.23975 15.3613 8.23975 15.0879C8.23975 14.9512 8.22021 14.8193 8.18115 14.6924C8.14209 14.5654 8.09326 14.4434 8.03467 14.3262L7.47803 16.4062ZM8.03467 14.3262L6.62842 11.8945C6.53076 11.7188 6.40381 11.5723 6.24756 11.4551C6.09131 11.3379 5.91553 11.25 5.72021 11.1914C5.66162 11.1719 5.59814 11.1572 5.52979 11.1475C5.46143 11.1377 5.38818 11.1328 5.31006 11.1328C5.17334 11.1328 5.0415 11.1523 4.91455 11.1914C4.7876 11.2305 4.66553 11.2793 4.54834 11.3379H4.57764L3.43506 11.9824L8.03467 14.3262ZM3.43506 11.9824C3.06396 12.1973 2.73193 12.4463 2.43896 12.7295C2.146 13.0127 1.89209 13.3301 1.67725 13.6816H1.64795L1.58936 13.7988L3.43506 11.9824ZM13.4839 26.8066C13.5425 26.7871 13.5913 26.748 13.6304 26.6895C13.6694 26.6309 13.689 26.5625 13.689 26.4844C13.689 26.4453 13.6841 26.4111 13.6743 26.3818C13.6646 26.3525 13.6499 26.3281 13.6304 26.3086L12.2241 23.8477C12.1851 23.8086 12.1362 23.7695 12.0776 23.7305C12.019 23.6914 11.9604 23.6719 11.9019 23.6719C11.8628 23.6719 11.8286 23.6768 11.7993 23.6865C11.77 23.6963 11.7358 23.7109 11.6968 23.7305L13.4839 26.8066ZM10.5249 28.0078C10.8569 27.9883 11.1841 27.9346 11.5063 27.8467C11.8286 27.7588 12.1265 27.627 12.3999 27.4512L12.3706 27.4805L10.5249 28.0078ZM10.3784 28.0371C10.3589 28.0371 10.3296 28.0371 10.2905 28.0371C10.2515 28.0371 10.2026 28.0371 10.144 28.0371C9.40186 28.0371 8.71338 27.8467 8.07861 27.4658C7.44385 27.085 6.95068 26.5918 6.59912 25.9863V25.957L10.3784 28.0371ZM6.59912 25.957L2.40967 18.7207C2.23389 18.4277 2.09717 18.1055 1.99951 17.7539C1.90186 17.4023 1.85303 17.041 1.85303 16.6699C1.85303 16.2402 1.91162 15.835 2.02881 15.4541C2.146 15.0732 2.31201 14.7168 2.52686 14.3848V14.4141L6.59912 25.957ZM2.52686 14.4141L2.58545 14.2969C2.78076 14.0234 2.99561 13.7744 3.22998 13.5498C3.46436 13.3252 3.71826 13.1348 3.9917 12.9785L2.52686 14.4141ZM5.13428 12.334C5.15381 12.3145 5.17822 12.2998 5.20752 12.29C5.23682 12.2803 5.271 12.2754 5.31006 12.2754C5.32959 12.2754 5.34912 12.2754 5.36865 12.2754C5.38818 12.2754 5.40771 12.2754 5.42725 12.2754C5.46631 12.2949 5.50537 12.3193 5.54443 12.3486C5.5835 12.3779 5.61279 12.4121 5.63232 12.4512L5.13428 12.334ZM5.63232 12.4512L7.03857 14.9121L7.12646 14.8535L5.63232 12.4512ZM7.12646 14.8535L7.03857 14.9121C7.05811 14.9316 7.07275 14.9561 7.08252 14.9854C7.09229 15.0146 7.09717 15.0488 7.09717 15.0879C7.09717 15.166 7.08252 15.2344 7.05322 15.293C7.02393 15.3516 6.97998 15.3906 6.92139 15.4102L7.12646 14.8535ZM6.92139 15.4102L6.51123 15.6445C6.23779 15.8203 5.99854 16.0303 5.79346 16.2744C5.58838 16.5186 5.44678 16.7969 5.36865 17.1094V17.1387C5.34912 17.2363 5.32959 17.3389 5.31006 17.4463C5.29053 17.5537 5.28076 17.666 5.28076 17.7832C5.28076 17.998 5.31006 18.208 5.36865 18.4131C5.42725 18.6182 5.51514 18.8184 5.63232 19.0137L5.60303 18.9844L7.97607 23.0566L6.92139 15.4102ZM7.97607 23.0566C8.13232 23.3496 8.3374 23.5938 8.59131 23.7891C8.84521 23.9844 9.12842 24.1211 9.44092 24.1992L7.97607 23.0566ZM9.44092 24.1992C9.53857 24.2188 9.64111 24.2383 9.74854 24.2578C9.85596 24.2773 9.96826 24.2871 10.0854 24.2871C10.3003 24.2871 10.5151 24.2578 10.73 24.1992C10.9448 24.1406 11.1401 24.0625 11.3159 23.9648L9.44092 24.1992ZM11.7847 26.2207C11.9214 26.2207 12.0337 26.1719 12.1216 26.0742C12.2095 25.9766 12.2534 25.8691 12.2534 25.752C12.2534 25.6152 12.2095 25.498 12.1216 25.4004C12.0337 25.3027 11.9214 25.2539 11.7847 25.2539C11.6675 25.2539 11.5601 25.3027 11.4624 25.4004C11.3647 25.498 11.3159 25.6152 11.3159 25.752C11.3159 25.8691 11.3647 25.9766 11.4624 26.0742C11.5601 26.1719 11.6675 26.2207 11.7847 26.2207ZM9.93896 26.748C10.0757 26.748 10.188 26.6992 10.2759 26.6016C10.3638 26.5039 10.4077 26.3965 10.4077 26.2793C10.4077 26.1426 10.3638 26.0303 10.2759 25.9424C10.188 25.8545 10.0757 25.8105 9.93896 25.8105C9.80225 25.8105 9.68994 25.8545 9.60205 25.9424C9.51416 26.0303 9.47021 26.1426 9.47021 26.2793C9.47021 26.3965 9.51416 26.5039 9.60205 26.6016C9.68994 26.6992 9.80225 26.748 9.93896 26.748ZM5.19287 14.9121C5.2124 14.9121 5.22217 14.9121 5.22217 14.9121C5.37842 14.9121 5.51025 14.8535 5.61768 14.7363C5.7251 14.6191 5.77881 14.4824 5.77881 14.3262C5.77881 14.1699 5.7251 14.0381 5.61768 13.9307C5.51025 13.8232 5.37842 13.7695 5.22217 13.7695C5.22217 13.7695 5.2124 13.7695 5.19287 13.7695C5.05615 13.7695 4.93408 13.8281 4.82666 13.9453C4.71924 14.0625 4.66553 14.1895 4.66553 14.3262C4.66553 14.4824 4.71924 14.6143 4.82666 14.7217C4.93408 14.8291 5.05615 14.8926 5.19287 14.9121ZM3.81592 16.2598C3.81592 16.2598 3.82568 16.2598 3.84521 16.2598C4.00146 16.2598 4.1333 16.2012 4.24072 16.084C4.34814 15.9668 4.40186 15.8301 4.40186 15.6738C4.40186 15.5176 4.34814 15.3857 4.24072 15.2783C4.1333 15.1709 4.00146 15.1172 3.84521 15.1172C3.82568 15.1172 3.81592 15.1172 3.81592 15.1172C3.65967 15.1367 3.52783 15.2002 3.42041 15.3076C3.31299 15.415 3.25928 15.5371 3.25928 15.6738C3.25928 15.8301 3.31299 15.9619 3.42041 16.0693C3.52783 16.1768 3.65967 16.2402 3.81592 16.2598ZM15.4761 15.791L19.021 12.7734H27.4292C27.8394 12.7734 28.1909 12.627 28.4839 12.334C28.7769 12.041 28.9233 11.6895 28.9233 11.2793V2.34375C28.9233 1.93359 28.7769 1.58203 28.4839 1.28906C28.1909 0.996094 27.8394 0.849609 27.4292 0.849609H10.9644C10.5542 0.849609 10.2026 0.996094 9.90967 1.28906C9.6167 1.58203 9.47021 1.93359 9.47021 2.34375V11.2793C9.47021 11.6895 9.6167 12.041 9.90967 12.334C10.2026 12.627 10.5542 12.7734 10.9644 12.7734H12.2827V14.2383C12.2827 14.6289 12.3853 14.9902 12.5903 15.3223C12.7954 15.6543 13.0737 15.8984 13.4253 16.0547C13.562 16.1133 13.6987 16.1572 13.8354 16.1865C13.9722 16.2158 14.1089 16.2305 14.2456 16.2305C14.4604 16.2305 14.6753 16.1914 14.8901 16.1133C15.105 16.0352 15.3003 15.9277 15.4761 15.791ZM18.4644 11.7773L14.7437 14.9121C14.6851 14.9707 14.6118 15.0195 14.5239 15.0586C14.436 15.0977 14.3433 15.1172 14.2456 15.1172C14.187 15.1172 14.1284 15.1074 14.0698 15.0879C14.0112 15.0684 13.9624 15.0488 13.9233 15.0293C13.7671 14.9707 13.645 14.8682 13.5571 14.7217C13.4692 14.5752 13.4253 14.4238 13.4253 14.2676C13.4253 14.248 13.4253 14.2383 13.4253 14.2383V12.2168C13.4253 12.0605 13.3667 11.9287 13.2495 11.8213C13.1323 11.7139 12.9956 11.6602 12.8394 11.6602H10.9644C10.8667 11.6602 10.7788 11.6211 10.7007 11.543C10.6226 11.4648 10.5835 11.377 10.5835 11.2793V2.34375C10.5835 2.24609 10.6226 2.1582 10.7007 2.08008C10.7788 2.00195 10.8667 1.96289 10.9644 1.96289H27.4292C27.5269 1.96289 27.6147 2.00195 27.6929 2.08008C27.771 2.1582 27.8101 2.24609 27.8101 2.34375V11.2793C27.8101 11.377 27.771 11.4648 27.6929 11.543C27.6147 11.6211 27.5269 11.6602 27.4292 11.6602H18.8159C18.7573 11.6602 18.6987 11.6699 18.6401 11.6895C18.5815 11.709 18.5229 11.7383 18.4644 11.7773ZM27.2827 14.4727C27.2827 14.6875 27.2192 14.8682 27.0923 15.0146C26.9653 15.1611 26.8042 15.2246 26.6089 15.2051C26.4136 15.2051 26.2427 15.1416 26.0962 15.0146C25.9497 14.8877 25.8765 14.7363 25.8765 14.5605C25.8569 14.3652 25.9155 14.1992 26.0522 14.0625C26.189 13.9258 26.3452 13.8477 26.521 13.8281L27.2827 14.4727ZM27.2827 14.4727C27.2632 14.2773 27.1802 14.1113 27.0337 13.9746C26.8872 13.8379 26.7163 13.7891 26.521 13.8281L27.2827 14.4727ZM27.1655 16.9043C27.1851 16.709 27.1362 16.5332 27.019 16.377C26.9019 16.2207 26.7456 16.1328 26.5503 16.1133C26.3745 16.0938 26.2085 16.1426 26.0522 16.2598C25.896 16.377 25.7983 16.5234 25.7593 16.6992C25.7397 16.875 25.7886 17.041 25.9058 17.1973C26.0229 17.3535 26.1694 17.4512 26.3452 17.4902C26.5405 17.5293 26.7163 17.4902 26.8726 17.373C27.0288 17.2559 27.1265 17.0996 27.1655 16.9043ZM27.0776 16.9043C27.0386 17.0801 26.9507 17.2168 26.814 17.3145C26.6772 17.4121 26.5308 17.4414 26.3745 17.4023C26.1987 17.3633 26.062 17.2803 25.9644 17.1533C25.8667 17.0264 25.8276 16.8848 25.8472 16.7285C25.8862 16.5723 25.9692 16.4404 26.0962 16.333C26.2231 16.2256 26.3745 16.1816 26.5503 16.2012C26.7261 16.2207 26.8628 16.2988 26.9604 16.4355C27.0581 16.5723 27.0972 16.7285 27.0776 16.9043ZM25.2026 18.8965C25.1831 18.9355 25.1733 18.9746 25.1733 19.0137C25.1733 19.0527 25.1733 19.0918 25.1733 19.1309C25.1733 19.2676 25.2124 19.3945 25.2905 19.5117C25.3687 19.6289 25.4663 19.7168 25.5835 19.7754L25.6128 19.8047C25.6519 19.8047 25.6909 19.8145 25.73 19.834C25.769 19.8535 25.8179 19.8633 25.8765 19.8633C26.0327 19.8633 26.1694 19.8193 26.2866 19.7314C26.4038 19.6436 26.4819 19.5312 26.521 19.3945C26.5796 19.1992 26.5698 19.0137 26.4917 18.8379C26.4136 18.6621 26.2769 18.5449 26.0815 18.4863C25.9058 18.4277 25.73 18.4375 25.5542 18.5156C25.3784 18.5938 25.2612 18.7207 25.2026 18.8965ZM24.1772 20.918C24.0991 21.0742 24.0747 21.2451 24.104 21.4307C24.1333 21.6162 24.2261 21.7676 24.3823 21.8848C24.5386 21.9824 24.7192 22.0166 24.9243 21.9873C25.1294 21.958 25.2808 21.8555 25.3784 21.6797C25.4761 21.5039 25.5054 21.3184 25.4663 21.123C25.4272 20.9277 25.3198 20.7812 25.144 20.6836C24.9683 20.6055 24.7876 20.5859 24.6021 20.625C24.4165 20.6641 24.2749 20.7617 24.1772 20.918ZM23.7378 22.6465C23.6011 22.5293 23.4399 22.4707 23.2544 22.4707C23.0688 22.4707 22.9077 22.5391 22.771 22.6758C22.6343 22.8125 22.5659 22.9736 22.5659 23.1592C22.5659 23.3447 22.6343 23.5059 22.771 23.6426C22.8882 23.7988 23.0493 23.877 23.2544 23.877C23.4595 23.877 23.6304 23.8086 23.7671 23.6719C23.9038 23.5156 23.9722 23.3398 23.9722 23.1445C23.9722 22.9492 23.894 22.7832 23.7378 22.6465ZM21.0132 24.1113C20.8569 24.209 20.7593 24.3506 20.7202 24.5361C20.6812 24.7217 20.7104 24.8926 20.8081 25.0488C20.9058 25.2246 21.0474 25.3369 21.2329 25.3857C21.4185 25.4346 21.5991 25.4004 21.7749 25.2832C21.9507 25.1855 22.0581 25.0342 22.0972 24.8291C22.1362 24.624 22.0972 24.4434 21.98 24.2871C21.9019 24.209 21.814 24.1406 21.7163 24.082C21.6187 24.0234 21.5112 23.9941 21.394 23.9941C21.3354 23.9941 21.272 24.0039 21.2036 24.0234C21.1353 24.043 21.0718 24.0723 21.0132 24.1113ZM19.1089 25.0781C19.2847 25.0391 19.4556 25.0488 19.6216 25.1074C19.7876 25.166 19.9194 25.2832 20.0171 25.459L19.9292 25.5176C19.9878 25.6543 19.9878 25.8057 19.9292 25.9717C19.8706 26.1377 19.7534 26.25 19.5776 26.3086L19.1089 25.0781ZM19.1089 25.0781C18.9331 25.1562 18.8062 25.2832 18.728 25.459C18.6499 25.6348 18.6401 25.8105 18.6987 25.9863C18.7573 26.1816 18.8794 26.3184 19.0649 26.3965C19.2505 26.4746 19.4312 26.4746 19.6069 26.3965L19.1089 25.0781ZM16.9409 25.6934C16.7456 25.7129 16.5942 25.8008 16.4868 25.957C16.3794 26.1133 16.3354 26.2891 16.355 26.4844C16.3745 26.6797 16.4624 26.8359 16.6187 26.9531C16.7749 27.0703 16.9507 27.1094 17.146 27.0703C17.3218 27.0508 17.4634 26.9775 17.5708 26.8506C17.6782 26.7236 17.7319 26.5723 17.7319 26.3965C17.7319 26.377 17.7319 26.3525 17.7319 26.3232C17.7319 26.2939 17.7319 26.2695 17.7319 26.25C17.6929 26.0938 17.605 25.9619 17.4683 25.8545C17.3315 25.7471 17.1753 25.6934 16.9995 25.6934C16.9995 25.6934 16.9897 25.6934 16.9702 25.6934C16.9507 25.6934 16.9312 25.6934 16.9116 25.6934H16.9409ZM14.4507 3.51562H13.1323C13.0151 3.51562 12.9175 3.55957 12.8394 3.64746C12.7612 3.73535 12.7222 3.84766 12.7222 3.98438C12.7222 4.10156 12.7612 4.20898 12.8394 4.30664C12.9175 4.4043 13.0151 4.45312 13.1323 4.45312H14.4507C14.5288 4.45312 14.5923 4.47754 14.6411 4.52637C14.6899 4.5752 14.7144 4.64844 14.7144 4.74609V5.50781C14.7144 5.58594 14.6899 5.64941 14.6411 5.69824C14.5923 5.74707 14.5288 5.77148 14.4507 5.77148H13.8062C13.4937 5.77148 13.23 5.89355 13.0151 6.1377C12.8003 6.38184 12.6929 6.67969 12.6929 7.03125V7.79297C12.6929 8.125 12.8003 8.41309 13.0151 8.65723C13.23 8.90137 13.4937 9.02344 13.8062 9.02344H15.1245C15.2417 9.02344 15.3442 8.97461 15.4321 8.87695C15.52 8.7793 15.564 8.66211 15.564 8.52539C15.564 8.4082 15.52 8.30078 15.4321 8.20312C15.3442 8.10547 15.2417 8.05664 15.1245 8.05664H13.8062C13.7476 8.05664 13.6938 8.03223 13.645 7.9834C13.5962 7.93457 13.5718 7.87109 13.5718 7.79297V7.03125C13.5718 6.93359 13.5962 6.86035 13.645 6.81152C13.6938 6.7627 13.7476 6.73828 13.8062 6.73828H14.4507C14.7632 6.73828 15.0269 6.61621 15.2417 6.37207C15.4565 6.12793 15.564 5.83984 15.564 5.50781V4.74609C15.564 4.41406 15.4565 4.12598 15.2417 3.88184C15.0269 3.6377 14.7632 3.51562 14.4507 3.51562ZM19.1089 3.51562C18.9917 3.51562 18.894 3.55957 18.8159 3.64746C18.7378 3.73535 18.6987 3.84766 18.6987 3.98438V5.77148H17.7905C17.7319 5.77148 17.6782 5.74707 17.6294 5.69824C17.5806 5.64941 17.5562 5.58594 17.5562 5.50781V3.98438C17.5562 3.84766 17.5171 3.73535 17.439 3.64746C17.3608 3.55957 17.2534 3.51562 17.1167 3.51562C16.9995 3.51562 16.9019 3.55957 16.8237 3.64746C16.7456 3.73535 16.7065 3.84766 16.7065 3.98438V5.50781C16.7065 5.83984 16.8091 6.12793 17.0142 6.37207C17.2192 6.61621 17.478 6.73828 17.7905 6.73828H18.6987V8.52539C18.6987 8.66211 18.7378 8.7793 18.8159 8.87695C18.894 8.97461 18.9917 9.02344 19.1089 9.02344C19.2456 9.02344 19.353 8.97461 19.4312 8.87695C19.5093 8.7793 19.5483 8.66211 19.5483 8.52539V3.98438C19.5483 3.84766 19.5093 3.73535 19.4312 3.64746C19.353 3.55957 19.2456 3.51562 19.1089 3.51562ZM22.3022 6.15234H21.6284V3.98438C21.6284 3.84766 21.5845 3.73535 21.4966 3.64746C21.4087 3.55957 21.2964 3.51562 21.1597 3.51562C21.0229 3.51562 20.9106 3.55957 20.8228 3.64746C20.7349 3.73535 20.6909 3.84766 20.6909 3.98438V8.52539C20.6909 8.66211 20.7349 8.7793 20.8228 8.87695C20.9106 8.97461 21.0229 9.02344 21.1597 9.02344C21.2964 9.02344 21.4087 8.97461 21.4966 8.87695C21.5845 8.7793 21.6284 8.66211 21.6284 8.52539V7.11914H22.3022C22.3804 7.11914 22.4487 7.14355 22.5073 7.19238C22.5659 7.24121 22.5952 7.31445 22.5952 7.41211V8.52539C22.5952 8.66211 22.6392 8.7793 22.7271 8.87695C22.8149 8.97461 22.9272 9.02344 23.064 9.02344C23.2007 9.02344 23.313 8.97461 23.4009 8.87695C23.4888 8.7793 23.5327 8.66211 23.5327 8.52539V7.41211C23.5327 7.06055 23.4106 6.7627 23.1665 6.51855C22.9224 6.27441 22.6343 6.15234 22.3022 6.15234ZM25.4663 6.29883L25.437 6.32812C25.3979 6.28906 25.3491 6.25 25.2905 6.21094C25.2319 6.17188 25.1733 6.15234 25.1147 6.15234C24.978 6.15234 24.8706 6.20117 24.7925 6.29883C24.7144 6.39648 24.6753 6.51367 24.6753 6.65039V8.52539C24.6753 8.66211 24.7144 8.7793 24.7925 8.87695C24.8706 8.97461 24.978 9.02344 25.1147 9.02344C25.2319 9.02344 25.3296 8.97461 25.4077 8.87695C25.4858 8.7793 25.5249 8.66211 25.5249 8.52539V7.58789L26.0815 6.97266C26.1206 6.93359 26.1499 6.88477 26.1694 6.82617C26.189 6.76758 26.1987 6.70898 26.1987 6.65039C26.1987 6.57227 26.189 6.50879 26.1694 6.45996C26.1499 6.41113 26.1206 6.35742 26.0815 6.29883C26.0425 6.25977 25.9937 6.22559 25.9351 6.19629C25.8765 6.16699 25.8179 6.15234 25.7593 6.15234C25.7007 6.15234 25.647 6.16699 25.5981 6.19629C25.5493 6.22559 25.5054 6.25977 25.4663 6.29883Z" fill="#FFCC00"/>
</svg>
