<svg width="21" height="31" viewBox="0 0 21 31" fill="none" xmlns="http://www.w3.org/2000/svg">
<g clip-path="url(#clip0_320_2663)">
<path d="M8.48828 17.2773V11.6719C9.49089 12.1406 10.4056 12.6061 11.2324 13.0684C12.0592 13.5306 12.9284 14.0026 13.8398 14.4844C13.0977 14.901 12.2708 15.3438 11.3594 15.8125C10.4479 16.2812 9.49089 16.7695 8.48828 17.2773ZM19.582 8.87891C19.4128 8.65755 19.1914 8.46224 18.918 8.29297C18.6445 8.1237 18.3516 8.01302 18.0391 7.96094C17.5833 7.86979 16.6263 7.80469 15.168 7.76562C13.7096 7.72656 12.1504 7.70703 10.4902 7.70703C8.83008 7.70703 7.27083 7.72656 5.8125 7.76562C4.35417 7.80469 3.39714 7.86979 2.94141 7.96094C2.69401 8.01302 2.45964 8.0944 2.23828 8.20508C2.01693 8.31575 1.80859 8.45573 1.61328 8.625C1.20964 9.0026 0.929688 9.71875 0.773438 10.7734C0.604167 11.8281 0.513021 12.9447 0.5 14.123C0.486979 15.3014 0.526042 16.3984 0.617188 17.4141C0.708333 18.4427 0.799479 19.1198 0.890625 19.4453C0.96875 19.7318 1.06315 19.9759 1.17383 20.1777C1.28451 20.3796 1.40495 20.5456 1.53516 20.6758C1.70443 20.8581 1.90299 21.0078 2.13086 21.125C2.35872 21.2422 2.60938 21.3268 2.88281 21.3789C3.26042 21.457 3.98958 21.5286 5.07031 21.5938C6.13802 21.6458 7.38802 21.6784 8.82031 21.6914C10.2526 21.7044 11.776 21.6914 13.3906 21.6523C15.0052 21.6133 16.5417 21.5417 18 21.4375C18.2734 21.3854 18.5273 21.3008 18.7617 21.1836C18.9961 21.0664 19.2044 20.9102 19.3867 20.7148C19.7643 20.3503 20.0443 19.6146 20.2266 18.5078C20.4089 17.401 20.5 16.2129 20.5 14.9434C20.5 13.6738 20.4219 12.4661 20.2656 11.3203C20.1094 10.1615 19.8815 9.34766 19.582 8.87891Z" fill="#FFCC00"/>
</g>
<defs>
<clipPath id="clip0_320_2663">
<rect width="20" height="20" fill="white" transform="matrix(1 0 0 -1 0.5 25.0898)"/>
</clipPath>
</defs>
</svg>
